<mxfile host="app.diagrams.net" agent="Mozilla/5.0 (Windows NT 10.0; Win64; x64) AppleWebKit/537.36 (KHTML, like Gecko) Chrome/126.0.0.0 Safari/537.36 OPR/112.0.0.0" version="24.7.6">
  <diagram name="Page-1" id="7e0a89b8-554c-2b80-1dc8-d5c74ca68de4">
    <mxGraphModel dx="1314" dy="711" grid="1" gridSize="10" guides="1" tooltips="1" connect="1" arrows="1" fold="1" page="1" pageScale="1" pageWidth="1100" pageHeight="850" background="none" math="0" shadow="0">
      <root>
        <mxCell id="0" />
        <mxCell id="1" parent="0" />
        <mxCell id="kWzljJYtxSuuumgWQ70q-1" value="" style="shape=image;verticalLabelPosition=bottom;labelBackgroundColor=default;verticalAlign=top;aspect=fixed;imageAspect=0;image=data:image/png,iVBORw0KGgoAAAANSUhEUgAAA5wAAAMiCAYAAAACcszUAAAAAXNSR0IArs4c6QAAIABJREFUeF7snQeYVNXZgD8US6wUC4IYO1ZEA6KoBHsXFRXEKMaGFVGxo4DtV7EgNlCCBWssEYwYBIKCDRuKlCBgBUQEkYBd4X++k9zJ3dmZ3ZnZO/Pde897nocnZvfOOd95v7O7885p9VasWLFCKBCAAAQgAAEIQAACEIAABCAAgYgJ1EM4IyZKdRCAAAQgAAEIQAACEIAABCDgCCCcDAQIQAACEIAABCAAAQhAAAIQKAsBhLMsWKkUAhCAAAQgAAEIQAACEIAABBBOxgAEIAABCEAAAhCAAAQgAAEIlIUAwlkWrFQKAQhAAAIQgAAEIAABCEAAAggnYwACEIAABCAAAQhAAAIQgAAEykIA4SwLViqFAAQgAAEIQAACEIAABCAAAYSTMQABCEAAAhCAAAQgAAEIQAACZSGAcJYFK5VCAAIQgAAEIAABCEAAAhCAAMLJGIAABCAAAQhAAAIQgAAEIACBshBAOMuClUohAAEIQAACEIAABCAAAQhAAOFkDEAAAhCAAAQgAAEIQAACEIBAWQggnGXBSqUQgAAEIAABCEAAAhCAAAQggHAyBiAAAQhAAAIQgAAEIAABCECgLAQQzrJgpVIIQAACEIAABCAAAQhAAAIQQDgZAxCAAAQgAAEIQAACEIAABCBQFgIIZ1mwUikEIAABCEAAAhCAAAQgAAEIIJyMAQhAAAIQgAAEIAABCEAAAhAoCwGEsyxYqRQCEIAABCAAAQhAAAIQgAAEEE7GAAQgAAEIQAACEIAABCAAAQiUhQDCWRasVAoBCEAAAhCAAAQgAAEIQAACCCdjAAIQgAAEIAABCEAAAhCAAATKQgDhLAtWKoUABCAAAQhAAAIQgAAEIAABhJMxAAEIQAACEIAABCAAAQhAAAJlIYBwlgUrlUIAAhCAAAQgAAEIQAACEIAAwskYgAAEIAABCEAAAhCAAAQgAIGyEEA4y4KVSiEAAQhAAAIQgAAEIAABCEAA4WQMQAACEIAABCAAAQhAAAIQgEBZCCCcZcFKpRCAAAQgAAEIQAACEIAABCCAcDIGIAABCEAAAhCAAAQgAAEIQKAsBBDOsmClUghAAAIQgAAEIAABCEAAAhBAOBkDEIAABCAAAQhAAAIQgAAEIFAWAghnWbBSKQQgAAEIQAACEIAABCAAAQggnIwBCEAAAhCAAAQgAAEIQAACECgLAYSzLFipFAIQgAAEIAABCEAAAhCAAAQQTsYABCAAAQhAAAIQgAAEIAABCJSFAMJZFqxUCgEIQAACEIAABCAAAQhAAAIIJ2MAAhCAAAQgAAEIQAACERJ44403ZPbs2fLdd99FWGvNVU2fPl3atm0rW265pbRp06Ys7X7zzTcyd+5c92/rrbeWzTffvCztUGm6CCCc6convYEABCAAAQhAAAIQMCIwdOhQeeSRR6RZ02bSZMMNpX79+hWLZO68ubL++uvLvC+/lMWLF8tJJ50kXbt2jaT93377TQYPHiwPPPCAbLvtttKsWTMZP3689O7dWw4++OBI2qCS9BJAONObW3oGAQhAAAIQgAAEIFABAjqT2atXL1mxfLl0aP9HJ5uW5Ys5c2Tc+FekQYMGcvPNN9dJfIcPHy733Xef7LrrrnLGGWfIRhtt5Lr27rvvynXXXSeXX365+x4FAvkIIJyMDQhAAAIQgAAEIAABCNSBwFlnnSVrrbGmHBqz2b7hf39eVojIgAEDiu7dO++842Y169Wr50SzdevW1ero06eP/OEPf5Ajjjii6Pp5gT8EEE5/ck1PIQABCEAAAhCAAAQiJqDLaN+aOFG6HHtcxDVHU92jTzwue7Vv75bYFlLmzZvnZjTffvtt6d69e40yee+998rKK6/shJQCgXwEEE7GBgQgAAEIQAACEIAABEoksM8++8gZp55mvow2X/i6p3PoQw/KmDFjau2hiqb+O/XUU51EqkzmK1OnTpVu3bq5PavbbLNNrXXzgL8EEE5/c0/PIQABCEAAAhCAAATqQEBPo73n7nvk1JNPrkMt5X/pkAcfkHPPPVd22223nI298MILTjR33HFHN6vZvHnzGoP65z//6ZbbdunSRY466qjyd4AWEk0A4Ux0+ggeAhCAQHoIfPXVV/Lll1/K119/LbqkS/+lrTRp0kQ23HBDd8LjTjvtlLbu0R8IeEdAZ/c+mPR+7PZuZifihRdflJ12biV/+tOfqnzr/fffd+L4008/uRnNfEIavOhf//qXE9P58+e75zt06OBdzulw8QQQzuKZ8QoIQAACEIiYgB6vP3HiRPn1118jrjm+1W266aZy/PHHxzdAIoMABGTatGluL+OPP/6Yk8bzzz8va/xuDTm7e/dY07pn8GBp0LCBk0UtCxYscP89YcIEN6N59NFH1xj/0qVLnZhqf1U0TzjhhFj3l+DiRQDhjFc+iAYCEICAdwTuv/9+WbhwoXf91g6vtdZact5555Wl73PmzJFPPvlEPv/8czdbrG8wFy1aJN9++60sW7ZMlixZUq3ddddd18WkVyk0btzYzcY2bdpUNtlkE9lss83czCwFAr4QGDJkiLt3Uu+g1H+5yooVK2T/ffeTA/ffP9ZYRo0eLZtuvpmTS+2TyqNKo8rjaqutVmPsjz/+uJPTQw45xD2vvycoECiGAMJZDC2ehQAEIACBSAnoG5lPP/000jqTVpneX7fvvvvWKeyff/7Z3Yn3wQcfyJQpU2T69OlOKqMua6+9trv0fYcddpBWrVq56xDKebH9jDfnybyPFsv82d/KN/Oi70/UfKgvPQT0Xs1/fvyYLF7xRY2dWr58uey3z76JEM7fViyX2bNny1ZbbeXEUz9EqqnoyhMV0/XXX9+J5nbbbZeeBNOTihJAOCuKm8YgAAEIQCAgoGKky7PCRYVGBUxn0tI4m6YzjB9++KHoQSPh0qlTJ9l6662LGhy6h0rfEL7++uvy5ptvis60VLroCZa656tdu3bSvn172WCDDSILYfRfJsvIuyZFVh8VQaBYAlNXGS5L6s1NjXC+P/kDufLKK2XPPfessU+zZs1yM5r6YaCK5n777VcsOp6HQBUCCCcDAgIQgAAEKk5Al3cOGzZMdGYuKHvttVetb4QqHmiZGnzyySfl448/LrrverDHP/7xDxk9erTbVxa30rZtWznggAPkoIMOqtPM5wU7PxS3rhGPhwSmrTpCvpU5qRHOYEltvg798MMPbkbzqaeecqKpV55QIBAFAYQzCorUAQEIQAACRRHQ5Z8vvfRS5jXrrbeenH766UXVkeSH33rrLRk7dmymC3qHXU1XC8ycOVOee+45GTFiRBVJjyuD3/3ud+6yeO1Tbcv2svsw7PLx8t4/Polr14jLIwLTV3tevln+udSrVy9vr5O0pLYm4VTJ1FlNd6foGWe4PdwUCERFAOGMiiT1QAACEIBAwQRGjhzp9hsGRd/k6OyYL0UP8nn00Ucz3dVDeXKd+jhp0iTR2dBx48YlFs3+++8vnTt3dvf71VY+enOe3HvW6CqPHdh9J2nUdC33jwKBShIYNWqUPPL3Qa7JfCdoJ/HQoDBDXZKvs5q6nUFFs2XLlpVETFueEEA4PUk03YQABCAQJwJDhw4VvXczKCpbKl2+lNqEU/e3Pvzww/LKK6+kBokejKRL9Fq0aJG3T68+8S955qaJme+rbB50ZqvUMKAjySPw0UcfuSubvv/++5zB62qNxg0bJeLQoPAMp+7P1BlNvVdTRVOXwVMgUC4CCGe5yFIvBCAAAQjkJfB///d/Vb53+eWXe0Urn3Dq3la9imH48OGp5aEHJOny6YYNG1br41+ve0PeeOajzNdP/L/2sstBNZ+kmVpQdCwRBHR28NOPP0mMcJ5yyilONPUDLRXNU089NRGcCTLZBBDOZOeP6CEAAQgkkgDCWX1J7UorrST33nuv6MFAaS961+dZZ50lxxxzTJWu3n36KJn1zvzM1865/0DZsnWTtOOgfwkmkCTh/PHnn9yMpp4qrbKp9+xSIFAJAghnJSjTBgQgAAEIVCGAcFYVTr3n7tBDD5Vbb71VJkyY4M1o0StVevbsmTlYCOH0JvWp6WiShHPKtKnSr18/2WWXXVLDn44kgwDCmYw8ESUEIACBVBFAOD93+dSDk3baaSf338Ee1l69enklnTqzq33WpbYIZ6p+zL3oTJKEs7ZrUbxIGJ00IYBwmmCnUQhAAAJ+E/BdOPW+u7vvvlvOPfdcWX311asNBt+kUwHoDG+jz3eV2e/+7zApltT6/XsiCb1HOJOQJWK0JoBwWmeA9iEAAQh4SMBn4Zw+fbpcc801suuuu8oFF1yQN/u6xyp8dUzah8mf/vQn+eafDeXbT3/LdBXhTHvWk98/hDP5OaQH5SeAcJafMS1AAAIQgEAWAV+FU+/TvOqqq+SXX35x944OHDgw79jQ74Xv6kzzIDrttNPcybXBgUHffPONNGrUyHWZQ4PSnPnk9w3hTH4O6UH5CSCc5WdMCxCAAAQggHDKM888IzfffHMVEnr3nR7ikascd9xx8tlnn6V+7DRt2lSeffZZqVevXpW+fvnll7LRRhulvv90MNkEEM5k54/oK0MA4awM58S2ohcdP/LIIzJgwAD59ttvRe/KO++886r1Z8WKFTJr1ix57LHHZMyYMTJ79mzRY+9btWrl9uUce+yxssYaaxTEIajrb3/7mzs4Qy9V1rratGnj6tE3aOE9Tz/++KP06dNHhg0blrN+fe0999wj++23X43tjx071vXt119/leuuu070zV52eeihh+T666+X+vXru5mHnXfe2T3yySefuNe+9957VV6y8cYbu9PgOnfuLHvssYesuuqqBTHgIQiknYBvM5x6553u2cxVcknn1VdfLaNGjUr7MHD9077q34nssnz5cvnrX/8qXbp08YIDnUwmAYQzmXkj6soSQDgryzsxrekf+tdee030TeH777+fifviiy+utudIBXHEiBFORlVKc5Wjjz7aidq6665bK4PHH39cLrroorzPnXzyydK7d++MwC5evFjOOeccefnll+sknPoJux7goSVXP/Xrt99+u/Tv3989oxezqwRrefvtt6Vjx4419u2EE06QK6+8Uho0aFArAx6AQNoJ+CScDzzwgAwaNKjGlKp0XnbZZTJ//nwnpr5cjdK6deu8Iq6/k2+66Sb3YZ7u76RAwIKAfvA+evRo97OZq+iH4o0bNpID99/fIryC2xw1erRwSm3BuHgwYgIIZ8RA01KdzgjqLF92ySViX331lfTo0cO9QerQoYN73WabbSa6B+fGG2/M7EF68MEH5YADDqgV0ZAhQ0SXUp100knSvHlz0RlM3csU7HXSGcuhQ4fKnnvu6eoKC+eJJ57olqflOvWxtoajEs4ghtVWW00+/fRTN/uqs75a9KCQU089tdrSsdpi4/sQSBsBX4SzppnNtOW0lP7oh4X6uz676O99/aBy0aJF7lt6uBIznaUQ5jV1IaAHfOkY1Q/hv/vuu5xV6Yfu+++7H8JZF9C8NvUEEM7Up7i0DupMns5sduvWzX2qp0f0a8klnPrp3vHHHy/Lli2r9v0333zTvWnQctddd2X+u9io9Je+HiqhS1e1hJf2xlU4A+kdP3585o3SYYcdJrfccouss846xSLgeQikioAPwplrz2aqkhhBZ1q0aCF/+ctfZJVVVqlSm/69yN4moStEjjjiiAhapYpyEVg2aZIsfftt+W7KFPn3W2/J0okTy9VURep9ft995ZUlS0Tvis1XVEb322dfhLMiGaGRpBJAOJOauTLHrSco6j5FPcShtpm/yZMnOzHVmU5dNqozjLpfUz/10z2dKqnZs5LFhq+fcp999tmZZWZ9+/YVvTJAS9yFU/ezdu/eXaZNm+ZmgHW5XMOGDYtFwPMQSBWBtAvnP//5T/fBGKV2AltvvbX7/b777ru7hz/++GP3IWauoh/Y7bXXXrVXyhMVJ/BJ794y59ZbZfmPP1a87XI1OGibbeTjWj4gRjjLRZ9600QA4UxTNsvUl9qEc8mSJXLJJZfI888/7yI466yz3D8VUd2TNGfOHMned1lsqNkznOHluXEXznDsCGexmef5tBJIs3Dqh0v6gZh+cFfXovXoktNgBlD3iwd7zetad6VfH8xQ6kqVXMtj9ZC5TTfdVF5//XVZsGBBzvD0w8z7779fttxyy0qHT3s1EHh7u+3k++nTU8cI4UxdSumQEQGE0wh8kpqtTTi1L/oG4oorrpBXXnmlWtdUNlVISz0sR2dKdcmVnmSoRT/d1v2cG264ofv/+Q4N0hNi9VndM7ntttvWum+ykH4WcmhQ9j7SkSNHuuXAWjQWvYOP02qT9BNArOUgkFbh1ANGTjnllMzy/7qwC2TzxRdfdIeu6QE7ur1BT8vWryWtPPHEEy5k/d2t18OU2gedEdV9/NnLcJPGIy3xvte6tSx99920dKdKP0YecID885tvWFKbyuzSqUoSQDgrSTuhbRUiYtq1L774wr0ZCp+uqJLZs2dPd8JgodeiZGPSGcIzzzxTZs6c6Zbm6qmFRx55ZEYgde+oyu7TTz+dk3Cu1+R6MNzPQlKV75TaQDhVKidNmuQODdLrUjQO/WT+j3/8YyHV8wwEUk0grcKps3jBIWF1TaDWpdc51UXO6hpDVK9Xee7UqZPo6hTdevHGG284iS61HHzwwaJbKyi2BD6/8Ub5JGvp+Dq77y6b33yzrL7JJrLaJpvYBljH1vW6Nz006KeffuLQoDqy5OV+E0A4/c5/Qb2vTTh1BlKvJNEZSN2vuN1227mZxeA+Tm3k8MMPd6fXrr/++u7rul9HRTFc9NqA7AMhdDmuymTwBi7f0lw90VCLHtSj8Xz99deiVxHccccd7ut6F6aevLtJDX/8ohLOXFBVNnU/l8qo7o2lQMB3AmkUTt2zHvzOiSK/wQynHuCW1GW0AQc9BGi99dZzS2nD/10XTvoBp97NTLEhsOCxx2T6CSdUafz3ffvKpn362ARUplb1bu5//OMfMnfu3JwtcC1KmcBTbaoIIJypSmd5OlObcH7wwQdy+umnu72aBx54oLu7s0mTJu44+/C1KHqs/YUXXijjxo0rSDhVGnUpbnD5eVhaC+mpXsui97dpe1rCM5K5Xl9bP/U1hSypDde9ww47yB577CFdu3Z1e470ECYKBCAg7vdEuCT9gB1diaEfiEVdwiezJnX/pi4F1tnIYFZTRVoPBdI7l++77746IXv00UfZz1kngqW/+KPu3eXLUP7WbttWdnnzzdIrTOgrBw8eLJ9+/Amn1CY0f4RdGQIIZ2U4J7qV2kTszjvvzLx51Gd32223TH/DJ7Tq0jB9dt11162Vh+6D0hlRXX6lRUVWl5XpDGmhRWc9dTlrcLR+pYSzLneBFto3noNA0gmkTTh12b8uoS9X0VnBNm3aiP5uTNoS22A57YABA9y+zUBA9Z7ius7cKhNlQ6k8gcn77y+L/3vHtLa+w/PPS+PDDqt8IMYtIpzGCaD5RBBAOBORJtsgaxPOfLN+GrXOeury2XfeecftRSpEOHX5iv4CD/b3lCKb2rZe09KjRw+3p3SzzTaTIUOGuMOD8pXa+qmvK2SGE+G0Ha+0ngwCaRLORx55xP1uK3fRfYu66mPq1Kl1FrVyxxquP5Dl7DZ1FYvOfOrfh7oUXTnTuXPnulTBa0sgMHGLLeTHjz/OvHLXmTPldx6eHqznVHyzaJGc0i36FQ4lpCXvS4Y+9KA0atxY9IMfCgQqTQDhrDTxBLZXm4jpsqiLLrrI9UwPg9B9NXoKoX4Sr5Kny2q1BEtqV1555bwUdP/lc889J5deeqnb46l7L1Xyttpqq7yv0etYdI+TXh3QvHlzt2xVZVMP6Ln33nvd6/785z+702F1j2e+Uls/9XUIZwIHMCHHkkBahHP+/PnuMBz9oKwSJTjpNde1IpVov9g2AknWffjhQ4KiXFarv9efeeYZt0eUUjkCr2RtEfnjihWVazxGLel7oHfeflsOP+TQGEVVPZTnR74grdu0yXvHbayDJ7jEE0A4E5/C8nQgvEw2XwvBIT/Zey1zPV/oLOW///1vJ6x///vfa+xYy5YtRdvXO9tGjBjhTrHNVwrd+4lwlmcsUSsEchFIi3Bee+21tf6+KnUEqFwuXLgwM5uZfU1KqfVW8nX5TtqNclmt9kdPLk/6PuBK5iWKthDO/1DUvdW33XabdD/1P9efxbUMGnK/e3+lP3sUCFSaAMJZaeIJaa8Y4dQu6WymHu6js5P6y/fbb791927q/hp9I6DCWci1KLrvUt/A6QmzNZWwcC5fvtztndJPGSdOnOhOytU7OHV2VJdZ6aE9hdx7OXbsWHfIkM5U6Jukbt26VQtBT7rVvaXaNz2sYuedd3bPaPs6u6v91mW8OuPLHXEJGeyEaUIgDcI5efJkd2BauUogZeG96/oBW12uEylXrPnqrWlGVpfabr/99pHtSdW/G3pKOqUyBBDO/3E+6KCD5IQux0vzjTeuDPwiW/ns88/lr888LS+88EKRr+RxCERDAOGMhiO1QAACEIBAEQTSIJzZ9w4X0X0eLQOBvffeO7OFowzVU2UWAYTzf0D0SiRdNn5S16rXxMRl0Dzw8ENy6GGHyXHHHReXkIjDMwIIp2cJp7sQgAAE4kAg6cKpd+/pgWiUeBHQa1Z22mmneAWV0mgQzqqJ1cOrVixfLh0POzxWGX/6b3+TtdZeiw9jYpUV/4JBOP3LOT2GAAQgYE4g6cKpB5u9/PLL5hwJoCqBfffdV2644QawVIAAwlkVsm7H0VUP3y1bJnv/sYM03WijCmQhfxO6jPafL4+TjZo2RTZNM0HjSgDhZBxAAAIQgEDFCSRZOGfOnCl/+tOfKs6MBgsjoPv5N99888Ie5qmSCSCcudE9/PDDov+aNGkiG23YROrXr18y42JfOHfeXHdf+dx582Tp0qXuLAqW0RZLkefLQQDhLAdV6oQABCAAgRoJJFk4+/fvL08//TQZjikBPSxOlzdSyksA4ayZ75tvvimzZs2S7777rryJCNU+ffp0adu2rbtKjtNoK4adhgoggHAWAIlHIAABCEAgWgJJFc6ffvpJ9ttvP/n555+jBUJtkRH43e9+5w5wqeTMUmTBJ6gihDNBySJUCBgTQDiNE0DzEIAABHwkkFThHD58OHsEEzBge/fuLXoHM6V8BBDO8rGlZgikjQDCmbaM0h8IQAACCSCQVOE899xz3V3DlHgT0GWFAwcOjHeQCY8O4Ux4AgkfAhUkgHBWEDZNQQACEIDAfwgkUTjnz58vHTt2JIUJIfD888/LBhtskJBokxcmwpm8nBExBKwIIJxW5GkXAhCAgMcEkiicf/3rX+XWW2/1OGvJ6vrFF18sxxxzTLKCTlC0CGeCkkWoEDAmgHAaJ4DmIQABCPhIIInC2bNnT3njjTd8TFci+9yuXTu5/fbbExl7EoJGOJOQJWKEQDwIIJzxyANRQAACEPCKQNKEU0+lbd++vaxYscKrPCW5syuvvLKMHz+e02rLlESEs0xgqRYCKSSAcKYwqXQJAhCAQNwJJE04dWZTZzgpySKgBwfpAUKU6AkgnNEzpUYIpJUAwpnWzNIvCEAAAjEmkDThHDRokDzwwAMxJkpouQiccsop0r17d+CUgQDCWQaoVAmBlBJAOFOaWLoFAQhAIM4EkiacXIcS59GUP7Zdd91V7rzzzmQGH/OoEc6YJ4jwIBAjAghnjJJBKBCAAAR8IZA04dx3331l2bJlvqQnNf1ce+21ZcyYManpT5w6gnDGKRvEAoF4E0A4450fooMABCCQSgJJEs45c+ZIp06dUpkHHzr17LPPSrNmzXzoakX7iHBWFDeNQSDRBBDORKeP4CEAAQgkk0CShHPChAnSq1evZIImarnllltkr732gkTEBBDOiIFSHQRSTADhTHFy6RoEIACBuBJIknA++uijoqedUpJJ4Pzzz5euXbsmM/gYR41wxjg5hAaBmBFAOGOWEMKBAAQg4AOBJAln//795emnn/YhLans47HHHssMdRkyi3CWASpVQiClBBDOlCa21G598cUXUujhGC1bthS9KqBx48Zy5ZVXujdke++9twwYMEDWX3/9KiHMmzfP3WH36quvymmnneaeX2211eS3336TO+64wy15yi4bb7yxtGvXTjp37uzuUVtppZUyj0yaNElOOOEE+fXXX+Wiiy7Keez9kiVLXJujRo2SAw880MW17rrr1opGL3afMmWKi2n06NES9HPTTTet9trly5eLxvLYY4+JLrvTvV4a9yGHHCKnnnqqNG/ePPOaESNGyJlnnllr+5dffrmcd9557oJ5ZXPzzTfnfc31118vf/7zn2utkwcgEDcCSRLOiy++WMaPHx83hMRTIIH27duLfmhAiZYAwhktT2qDQJoJIJxpzm4JfStFOFXizjnnHHn55Zdlu+22k8GDB8sWW2xRpfXZs2c7KZw2bZqceOKJ0q9fP1l99dXlxx9/lD59+siwYcNqjFYFVV9fv35999zbb78tHTt2dP+tbwYvuOCCaq9fvHhxJq4OHTrI3XffLQ0bNqyxnUWLFjmJfuihhzInUubrk8rufffd50Q21+mVKp4qjLvvvrtrs1DhDPpTCBuEs4RBzktiQSBJwql3OU6dOjUW3AgiN4F69erJvffeKzvvvHOVB3744Qf3gaB+AEiJlgDCGS1PaoNAmgkgnGnObgR9C4tiPmkLi11dhXP48OHSpk0bN3P5wQcfOBl97733ZK211pKhQ4fKnnvuWTbh/PTTT93M4rvvvluFXL4+vfnmm3LWWWfJV1995WZbL7vsMie0r732mpt11dnOww8/3M1Q1jSz+vPPP8u1114rf/nLX6r0MyychQpzBCmnCghUhECShPPoo4+WuXPnFsyldevW0rdvX7fS45NPPpEuXbpUe+1smtHpAAAgAElEQVQZZ5whJ510kvv6ww8/7D688rnUlZmuYrnmmmtyIvT9lGFdnbP99tvLVlttJZtvvrlbMRRFQThzU9RTkfXe3qCEP2S//fbb3ZezPyTP9fVcHzqH69J69D1a79695brrrst80K/t33PPPZkP/7Xu7Bl+3lNE8RNAHcUQQDiLoeXhs1bCGaAO/+IOlprq98oxw6l9vfDCC0V/EeuyYp091GWyuYRTlwKrSOqF4htuuKGT4eCT9ezv6WypLsvNV2bMmCH65nPmzJmie430D4feHYdwevgD51GXkyScRx55pFuWH6ywCNKkP7v6OyK7BPK06qqryiqrrOJ+V7z44otVHrvrrrucBGh5/PHHEc7/SnqpzHQWWlfB5CtRSVYafkQPPfRQufrqq+vcFYSzOkKVO31/El5Rpe9jtOgHV4UKZ/DeS3MVyGnwnkBXogX1Zwtn8Dr9/aof3mvJ12adBwAVQKAIAghnEbB8fNRaOPOJZTmEU/dj6j99U1nbrG1YBnMJaViU9Y2l/qHJVVROb7vttswfhCFDhrj9n1oQTh9/4vzpcxyEc+nSpW7mUv/pTGS+stlmm7kPoXKVbt26yb/+9a8q3wqE88svv5SNNtpIdPVEeMbj4IMPlksuuURmzZolW265JcIpInVlhnAW97tjjTXWkPCHHsW9+j9PI5xVqeWabczmWqhw5nsueG9yzDHHuPcV4TYbNWrkthEF3wvaRjhLGd28JmoCCGfURFNWn7Vw6t7OSy+91FG99dZb5fjjj3f/XQ7hDKeuGOHUN6Mqittuu22minwzs9nD4/PPP5ezzz7bLRvWe+L06gWdMUU4U/aDRHeqEbAWTt2r/cADDxSUmVdeecXtOc9V9M3cE088kVM4VTS16JJGXWL7zjvvuP+ve9J1b/fYsWPliCOOQDhDwlkqs5qW1OZb1lxQ8lP+0MSJE0vuIcJZFZ3+3VeewRkV+X5f6NdrWlIbvP/QZ4JZynBd+jtn/vz5rh39sEyX1Oo/XZrfpEmTgpbrlpx0XgiBEgkgnCWC8+VlVsKpezh1L6TubdSDhvSXrn4aG5z6ai2cmn/dc6VvIrX06NHD/fvd737n9nTq4RX333+/+16+Q430FFo9zEK/r0X3q+rSWj38Qku+Q4MaNGjg5FT3f+mb1vDpvb6MS/qZfAKWwqknO+vvlUJLTW/K9edcP3AKl2C2TuVp8uTJ7mdVl9TqMv3s7+mHaCyp/d8MZ6nMajo0SE8cv+qqqwpNd+qeW7hwoRMTPScgeyzr+QP6t6uUgnBWpVbITGKu/ZRBLcF7hdpmSsNiq3nNdSBjtqBm7+EMzssoJe+8BgKlEEA4S6Hm0WuKFc5C0BR7Sq0eFKRvFnbcccdM9XEQTv3UXA8Z0tnJmko+4VQx1T/0ugdMD3NQgW3RokWmqvBe0Hz1Z5/eWwh/noFAHAhYCace5LVgwYKiENRlhlOX0gYzoHp4kH6o1KlTJ3e6tX6AhnD+JxVhES8Hs7rM5BU1WGL+sM6qX3HFFVWi1A9OdZl3sQXhLE049VU1zXAWK5w6u6l7PXWZfi6RLESEi809z0OgWAIIZ7HEPHveWjj1TYjOcu60005VyMdBODUg3byvBwaNGTPG7aUI7uDUw0DOP/98F/NNN93kroLJLiNHjnR3kmrRI/tVqvXAjHD55ZdfRE+xXXPNNd2X9W5R/XRT36zrVSzZBxZ5NjzpboIJWAinLqHVpbTholc4bbPNNtK0adO8NEvdwxns3dQPhvbbbz93eJDu+dQSyCfC+R/s2cIZNTOE83/DW2fkgxU4+tWaliPX9CsG4axKJ7zUtaYl+Pqqui6pDeoIy6me7K/3oWdfAYdwJvgPZYpCRzhTlMxydKVY4YziWpQ//OEPbo+mvuHQZW+77LKLO1RHZwGDEhfhzMc8vIfzwQcflAMOOKDKoyqOeiKuLrPLvvKltjxmL7Wt6VCi2uri+xCwIlBp4Rw1alS1kzn1IKAbbrihVgSlnlIbCGdwSJB+QKUfEj3zzDNuRYPOdiKcuYUzSma6DUHzT/kPAV1iq2NaP9DUonuMn3zyyaLxIJxVken7Ej1NP9dd5MGThRwaFPyNz7UfM3t/Z1g4mzVr5rbmaAnvI0U4ix7avKAMBBDOMkBNU5UWwqn7NbP3N5555pnunstgBlDvytQ3ajrLp2/aVE71+oFw0Td7+jrdQ6WntukbS5W7QkpthwbVVEd4KWyupbL62ldffVX0VEWNX99Y6Um1Nd3Vmd1eeB8IwllIRnkmbgQqLZx63dDzzz+fwaA/d8Ee7NrYlHoPZ/h0Wv051d9tX3/9deYAIYTzf+SzZzj1O1Ex05UnKvmU/xE46qijZN68eZkv6CodvY6rmIJwVqWV69oSfUI/gP7ss8/crGYhwqmvCT5UD/99D+oPC2X28tvgvYv+rglmURHOYkY1z5aLAMJZLrIpqddKOBVfTXsc9SJvPd1VT33UGVC95HiTTTapQj28ZFX3NugS1+BAntrSUxfh1Ps0zzrrLDc7m31Js7abPUMZPn23trj0+99//70T7OATad0f1r59+0JeyjMQiA2BSgvn6aef7j58CorOMGYv1c8HRz8cmjp1asHscsmTymX48CCtDOGsWTijYqZbHHTrA+V/BPRvVPj8AT3oTv+WFlMQzty0sg8GCr8PKFQ4tebw+6+gpewPmHPt9wxkNdjPmeugIr1vPHvpbTG551kIFEsA4SyWmGfPWwqnznLqm0JdGqJFP63TZagrr7yy6CyiLlvRWQstujxID+f5/e9/776nM4h6IqRKX75lvjWlshDhXLRokUyfPt1d3q5LtjTeDz/8UG688UbRQ0b0U3X9hZ59rPmkSZPc7KYKdT5Z1th0FveRRx5xb0p1plTvB9WluHqyrf4BCWZHdV9Y48aNPRuZdDfpBCotnLqsXX9+gvKPf/xDGjZsWBBG/d0yfvz4gp7lofgR0A/ksk/pjF+UlY0I4awsb1qDgO8EEE7fR0At/bcUTg1txowZTrh01jBbznSmT+Uu+0qCcJf0QJBrrrlG9NO82mY3w0tw82HRgz/uvPNOt/w1vI80+3mVzeDkv3C7KsO6fDb8KWcg0dl1hJcN54pHRVbr0j5SIJA0ApUWzrZt21ZBVMwhMnqtxlNPPZU0xMT7XwLHHnus9OrVCx4hAggnwwECEKgkAYSzkrQT2Jbu8ejZs6ebMdR9kDprmL3PY+nSpW6Jp56OpleY6HH/2Sc+qszpFSIqUXoyqz6/2mqryU8//eTqVGlUcdITJHXGMCh6Qqu+2dNlJLr/cuDAgXLQQQdlvq/3db711lvuzaAur1VB1udatWrl9kbqzGehsxjFCue///1vGTZsmOhMifZLix54pAeR6Bsc3cCfXfTQED3yX2VV+6szoC1btsw5MnTGdNasWW5GU+8knTJliptJVdEMDjFZY401EjiqCBkC4k5aDhc9bKOcpS7CqT+Dd9xxRznDo+4yEtDtFF27di1jC8mrGuFMXs6IGAJJJoBwJjl7xA4BCEAgoQSSJJz6gdtFF12UUNKErfvk9cNQyv8IIJyMBghAoJIEEM5K0qYtCEAAAhBwBJIknHPnzhU9qZaSTAJ6SmiuFSfJ7E00USOc0XCkFghAoDACCGdhnHgKAhCAAAQiJJAk4dRu6/5t3T5ASRaBddZZR0aPHp2soCsQLcJZAcg0AQEIZAggnAwGCEAAAhCoOIGkCafuQdf94pRkEdC9u7r3n1KVAMLJiIAABCpJAOGsJG3aggAEIAABRyBpwqnXMHGXY/IG76mnnupOOqcgnIwBCEDAjgDCaceeliEAAQh4SyBpwqnXqPTo0cPbfCW143qN1a677prU8MsWNzOcZUNLxRCAQA4CCCfDAgIQgAAEKk4gacKpVzC1b99e9C5dSjIIrLLKKjJ+/HhZaaWVkhFwBaNEOCsIm6YgAAFBOBkEEIAABCBQcQJJE04FdOGFF7o7cSnJIKBXoeiVKJTqBBBORgUEIFBJAghnJWnTFgQgAAEIOAJJFM6nn35a+vfvTwYTQuDSSy/lOps8uUI4EzKICRMCKSGAcKYkkXQDAhCAQJIIJFE4FyxYIIcffniSMHsd68iRI6Vx48ZeM8jXeYSTYQEBCFSSAMJZSdq0BQEIQAACiZ3h1MD14CA9QIgSbwLt2rWT22+/Pd5BGkaHcJYH/rPPPivnnnuuq3y77bYTPd16iy22cGNx/vz50q9fP1l99dXd93/88Ufp06ePNGnSRC644IJMQMHX9Uqfo48+OjOONWf6/LBhw3IGf/HFF2fqCcehD5944omZtoOfi3Cb+ky+r5eHFLX6RgDh9C3j9BcCEIBADAgkcYZTsf3973+Xa6+9NgYECaEmAvrG/JBDDgFSHgIIZ/RDQyVPl93ffffd0rBhQ5k9e7aMHTvWXcvz9ttvO6ELvqet6/e7d+8uG2ywQbWv9+7dW6677rqMrOrzNUlpuDfajrYXbktj0xIWWIQz+jFAjfkJIJyMDghAAAIQqDiBpAqnnla73377yQ8//FBxZjRYGIG11lpLxowZI/Xq1SvsBR4+hXBGn/SaZggXL14s55xzjpPGNm3auMZVCm+77Tb5+uuv3Z728NfDcpqr3uxZ0KA3KrFhWc3VS2Y4o889NdZOAOGsnRFPQAACEIBAxASSKpyKQd8kPvnkkxETobqoCHTt2lXOP//8qKpLZT0IZ/Rp1VnEe+65J7OMNtxCruWzKn6///3v5bPPPnP/q7OPWrKFsBjh1Bh0yX946W52TxHO6HNPjbUTQDhrZ8QTEIAABCAQMYEkC+cnn3wiXbp0iZgI1UVF4K9//at7A0/JTwDhLM/oUJnTk6zD+zeDlsIyqCskghnPL774IiOJ+qwuBz/mmGMyM57FCGch+zCDGHMRCO8DLQ8havWVAMLpa+bpNwQgAAFDAkkWTsWmy9ZGjx5tSJCmcxE48MAD5ZprrgFOLQQQzvINkWA2Uw/3CQtceLmrtn7LLbfIDTfcIN98801mGWz467oPVEs5hFPrZQ9n+cYANVcngHAyKiAAAQhAoOIEki6cH374oZx22mkV50aDNRMYOnSobL/99mBCOM3HgO7RvPzyyzNLbMP7LjU4XUqr0hd8XWc1w7OdwWm2xQpn9mm42SBYUms+NLwMAOH0Mu10GgIQgIAtgaQLp9K74oor3CmUlHgQ2H///d3JnpTaCTDDWTujuj6R66Cg8FU9ufZtapvhr+v/L0Y4syU3Vx8QzrpmlteXQgDhLIUar4EABCAAgToRSINwzpgxQ0466aQ6ceDF0RHQJYxbb711dBWmuCaEM9rk6p7MCy+8UHr16uWuMtGSfU2Kfk2FsGPHjtX2eOb7erHCGcyW6kxp9rUowYwqwhlt7qmtMAIIZ2GcvHrqt99+kzvuuMPtL8hX9FqAO++8U9Zdd11ZunSpXHnlle7+qT333FMGDBggTZs2rfbS77//3m2Gf/TRR/PWe/LJJ7tnVltttcwzK1askFmzZsljjz0mr732mkyZMkX02PtWrVrJPvvsI0cddZTMmTNHjj/+eFm2bFmtuWrZsqUMGjTI3X2VLx79g9GhQwdX57bbblvleH2d0TjvvPNEr0fQfnfr1i1nX0eNGiXPPfec+wPz7bffuj9CrVu3lmOPPVZ23XVXqV+/ft5Yly9fLpMmTXJ9njBhgutfEJP2d+edd5b33nuv6D5vuummrs3Jkye7Awt0T4kWvaha/1Cuuuqq1WL66KOP5Oyzz5Zp06ZV+97uu+8uOqugfWrcuLH7/ogRI+TMM8+sNQ/6QHgcFfQCHkoNgTQIpybj5ptvlmeeeSY1eUlqR/R3kP4OoxRGAOEsjFMxTwX3agZ/K/U9RFj6tK5g1lP/O/y94OvNmzevdsJsMTOcQbzZBwOdeOKJmXoRzmKyyrNREUA4oyKZonrCG97zdSssCsEvypdffjnnyWxBHeHn8tWbLZwai8qhHjWeTyYPO+ww0V+mp556alHCqbKs0qVx5ysqtjfddJMceeSRGenUTy1V0LTkOtFN93bpgSIqmvnKgw8+KAcccEDOb6vI3nfffU7cc/U5EOZFixaVJJwq8PqBgr5RDspWW23l2mzRokW1mIJPXmsa4rvssotb9qP1IJwp+mVQxq6kRTj195ruvSrkw64y4nRV6wdgRxxxRJVm9I6/vn37yjvvvFPl63fddZc7BVN/vvX32cEHHyyXXHKJrLHGGjnD1NncRo0ayfrrr5/z+5Yn96699tpO+vV3OqUwAghnYZx4CgIQiIYAwhkNx1TVki2cw4cPzxzPnaujpQhnriPDs+tW8Ro8eLBcf/317ls6k6ZLVnbccUf3//WN1AsvvOBm6/RUwnXWWSdTRfiTxlyfMuqD+eL+5ZdfZNy4cU4adWYxW8ZqEs6ZM2e6QwB09rFBgwbSs2dPJ4X6hki5aqwqmyqw+YRTZzZPOeUU+eqrr9zSm6uvvlo22mgj0Rni119/XR5//HG56qqrJJitDDpdSJ/1Wa23R48ebuZ0r732cv+r5dZbb3WxZpewcIY/JV2yZIkMGTLEvU5L586dXa6y37Dme32qfmjoTNEE0iKc2nFd3aFXIVgXFU79MFA/THrxxRczEqk/8+FrXHSlhe4/1aKrGrKFNJDPMWPGZH7/hvumr9fXfPrpp5kP3yz7rqLcqVMnyxAS1zbCmbiUETAEEk0A4Ux0+soTfFyE88033xT9o6hvlvRNlC7x1WWwhZRC5KsmUc6eBdRZ1mDmIJ9wZnPTJcd6kXO9evUKCTnzjL4ueDNe00xodqWF9Flf8+qrrzqhXXPNNeXGG2+U+++/34msztLoEe06qxsuNQmjHueuy4tV0IOZ12wRRjiLSr83D6dJODVp559/vujvLMuSLZwayxNPPOF+psNSqc/pcnjd3qCrSnR2UFc4BCVJwtmuXbvMoSqW7JPWNsKZtIwRLwSSTQDhTHb+yhJ9HIRT95Hqp/QqX1ryzb7lA1CIfNU2MxsWS11+pvKoJZ9wTp8+3V2ToEvLdOZw4MCBsuGGGxado/DeC31TroeSFCKthfQ5zFWXIutyYZVp5ayxPvTQQ04cCxXO8FjJN2uNcBY9BLx4QdqEU3/uu3btKrr/2qrkm+GcOnVqlZlIldCFCxe6r4X/O2nCucoqqzhp1lM9KcURQDiL48XTEIBA3QggnHXjl8pXx0E4dX+iHlSjyz0322wzt3RTD+8ptBQiXzUJZ1jMdHZA73bTA5FqEs6nnnrKzXJo0Vk/Xea18sorFxpy5rmXXnrJzTpo0bb1UCIV2drktZA+6xJh5ar7uXTG44wzzpDx48dnltvpIUr6tbDg1iSMOvus+2B1hjSfZCOcRQ8BL16QNuHUpOlMYXhvdKUTmWsPpy7FD5bYajw6e6lL/YNZzVyzokmZ4dQ7DnV7AqV4Aghn8cx4BQQgUDoBhLN0dql9ZW2HBmUvnaxtpjAAVduhQeGDiMLypEum9DS32oQrnJBC5Ctf3Np/3Ruqs38qaIcffrh7wxYcSJFvhjM8M6mv1f2OpRTdG6lvArWdoKh46pvA7t27Vzs1N3imkD6PHDkyI6/BbGZYQrWN2267rcrhG/mEUWVTl+Hde++9LgTdR6sHN2XPxiKcpYyC9L8mjcIZ/Bzo7w+Lkm9Jrf7uDKQzWE4bLLHNJZdJEE7d3x7sQ7VgnfQ2Ec6kZ5D4IZAsAghnsvJVkWjjJpz5Dv2pCUYh8lWbAGv9um9TDw/aeOONM80VIpzhJbilJE2vUVHJVikMn36p4qkzlHrtyOqrr16l6tr6/PPPP8u1114rf/nLX5y8BmKphyTpYT8qj1q/LlHT0yuDUtsptXo4kr55Of3006vFpHUgnKWMgPS/Jq3CqYed6R5pPdW10qWQ2UpdQqurRrJL+JTZuAvnDjvs4H6PUUongHCWzo5XQgACxRNAOItnlvpXxGFJbViedKmmXosS3PNYSAJqky+tozbh1FNxVcTCsqmvK0Q49doRvReuLkUPLtLZRz0BU0+m1f8OSi6hra3Pn3/+uZNVPUE3e+lseBmvnrKrpwEHy4FrE069GkbfvGQLcC5hDZ9yWxc2vDb5BNIqnJoZ/VnUD2C+++67iiaqNuHUk731JGr9fRI+JCjf3s84nlKrK030oDP2bdZtaCGcdePHqyEAgeIIIJzF8fLi6TgIZ3iZp+7d1OtRttxyy4L51yZf2cIZHHijb2J02el1113nBO/AAw90S9HCd8/lE059A6fL1LRcdNFFTtoKOeynkE7pnlaV7mD5qh74o6f2FnMVTBB3rlnMMO/svZi5Zih/+uknNwOr4qtF37Dqct/69etX6w4znIVk2L9n0iycmk09DVp/D1Sy5BJO/Rndfvvt3e+xQw891F2nVNs1KHGe4dTD2Nq2bVtJrKlsC+FMZVrpFARiSwDhjG1q7AKLg3DqMlLdn6Oze1r00KBDDjmkYCilCucWW2whuiROZU7f2GjJ3puYTzjDh+/k2gtZcPB5Hgwf0JNrmXFNfdaDQ/TN6JNPPllQGLrsrn379u7ZfMI4f/58dzjSa6+95maBddZhp512QjgLIsxDaRdOzfCIESNy3mNZruzXdGiQzm7WdHdm+PoU/YBNDz2L2wxnv3795KCDDioXPq/qRTi9SjedhYA5AYTTPAXxCyAOwqlUdNlXMEOQa6axJnJ1EU6tV/df6WmtM2fOrHb6aj7hVCHs0aOHO1lXZxH14CA9QTGqWc5wn3LdmVlTn8P9KWTEad/1zateO1DTDGU4R9lLcYN2mOEshLh/z/ggnJpVFTk9UIxSNwIqwJ06dapbJbw6QwDhZDBAAAKVJIBwVpJ2QtqKi3DqMlJ9k/Hiiy86cipvul9Ql72qxOnBOqNHj3bXeuhey+AUWX22rsIZPmBH6wvfA5pPOPW54cOHuxh1hlZn/S699FJ3QM8aa6whejjPrFmz3N6pffbZx51+m110qeoNN9wgehDPUUcd5erQZaoqszrrqgf6aCl2D+ewYcNcLFoefPBBOeCAA6q1Hd7jucsuu7glvJtsskmNwhl+zVZbbeX61qJFiyp1I5wJ+cGvcJi+CKdifeSRRzJ3ClcYcyqa0w8ejzvuuFT0JS6dQDjjkgnigIAfBBBOP/JcVC9rO6VWK2vdurUTEhWi2g7f0dk+nQnbfPPN3Z2NL7/8ct54svcm6t5CPeAmkM5cLwxfpxJ8v67CqfXoHiw9bVLlMbxEtibh1OW4+n1duqZCnK8MGjTInYCbXQphr7Oo+k8lNlzy9Tm8PDmct9raDpYx1ySMel+pnnYbzOAUe49nUQOTh1NFwCfh1MQx01na8GVmszRutb0K4ayNEN+HAASiJIBwRkkzJXWpROgpqzqjlq+ExUX3B6poBLNv2a/RO+D0eg899Kem5/R1uQ7D0dlG3Seo+w/1hFWVUJ0BbNWqley5556i97E1a9asSrPz5s1zl5urNOryU50BXXvttas8o/dd6jOjRo1y9QwYMECaNm2aeSZ8H2bQB72DdOzYsW7vosqlLjvt1q1bNUxz586Vp556yj377rvvuu/rUf56eIfOXO62226y6qqr5sSrr9WZUhXz999/3wmv7i3VgzL0hMmdd95ZVlpppWqvzdfnTz/91F2jMnnyZPe/l112Wd62lYX2TdvUWQXlo6874YQTnECr6OrXdaltUPT7+kGCCq/us1UBDR9mNHXqVNeufj/X61PyY0M3iiTgm3Aqnqj3dOpe7pNPPtndzWtd9OdcryrR39VRFfZsRkWyej0IZ/nYUjMEIFCdAMLJqIAABCAAgYoT8FE4FbLu8b766qtFP6irS2nevHnmULW61BPla5cvX+4+UNMDxepS9ANFPayN02jrQrHm1yKc5WNLzRCAAMLJGIAABCAAgRgQ8FU4Fb3u5dbZu48++qjkTHTp0kX0oK64FV0Zo6s7Si26EkRXwuj+cUr5CCCc5WNLzRCAAMLJGIAABCAAgRgQ8Fk4Fb8eIqZL/Wvan15Tmjp37uzu+o1bqYtw6sFwl19+edy6lMp4EM5UppVOQSC2BFhSG9vUEBgEIACB9BLwXTiDzOpsYE375fONAN23/swzz0R27VIUI01P2darS/TOz2KK7mfX071zHaRWTD08WzgBhLNwVjwJAQjUnQDCWXeG1AABCEAAAkUSQDj/B0yX2OqhZXoidDGlXbt28uc//1l23HFHU/FcsWKFfPDBB6InWxfbBz2wTQ8n0z2plMoRQDgrx5qWIAABEYSTUQABCEAAAhUngHBWR64ncet1U3o9UiXK3L3WFv0XlGYTlor+q0TRe5PPPvtsd78ypfIEEM7KM6dFCPhMAOH0Ofv0HQIQgIARAYQzN/iFCxfK/fffL88991zZM2MlnLr/9PTTT692VVXZO0wDGQIIJ4MBAhCoJAGEs5K0aQsCEIAABBwBhLPmgTBt2jR5+OGHZdy4cWUbMZUWzgMPPFBOOukkdyczxZYAwmnLn9Yh4BsBhNO3jNNfCEAAAjEggHAWlgTdG6lLbceOHVvYC4p4qlLCedBBB4nOam633XZFRMej5SSAcJaTLnVDAALZBBBOxgQEIAABCFScAMJZHPKPP/7YLbMdMWKE/PDDD8W9OM/T5RTOtdZay506e9RRR3GnZiTZirYShDNantQGAQjUTADhZIRAAAIQgEDFCSCcpSH/9ddf3d2do0ePlokTJ5ZWyX9fVQ7h1JNz999/fzn44INNT86tExgPXoxwepBkugiBGBFAOGOUDEKBAAQg4AuBpAvn7bff7lJ1wQUXuP9dvHixnHPOOdKmTRv3Nb0epGPHjtXSOXz4cPe1yy+/XAYPHixbbLFF5hmtc/78+dKvXz9ZffXVax0KCxYskPHjx8trr73m5PO3336r9TXhB6IQzlVWWUXatm0re+yxh/zxj3+Uxo0bFxUDD7W9unUAACAASURBVNsQQDhtuNMqBHwlgHD6mnn6DQEIQMCQQNqEM1sWVTj1a3fffbc0bNiwCmm99qRPnz7SpEmTjLDOnj1bunfv7g5TUmkttujM57vvvivvv/++TJkyRaZPny5Ll9Z8xUkpwrnOOuvItttuKzvssIO0atVKWrduLSuttFKx4fK8MQGE0zgBNA8BzwggnJ4lnO5CAAIQiAOBNAnns88+K08//XQVuaxJOJW/fj88y1ns7GYhOZw7d67o3s8vvvhC5s2bJ1999ZUsWrRIvv32W1m2bJlMa7m82j2c201eyV1Xovdk6mzlhhtuKE2bNnX7MDfbbDNp1qxZIU3zTMwJIJwxTxDhQSBlBBDOlCWU7kAAAhBIAoG0COeee+6Zc3lsbcIZnuXUw3V69+4t1113XZUltuXOY79/PSF9ZzyZaaZvi87SZ5su5W6W+mNAAOGMQRIIAQIeEUA4PUo2XYUABCAQFwJpEM7+/fs7nLovM3sZbK49nBdffHFmCa2+TpfRqmhuv/32suaaa1b5XiXyhHBWgnI820A445kXooJAWgkgnGnNLP2CAAQgEGMCaRDO7777LrNPMvugn9pmOIPU6FLaF154odoBQpVIHcJZCcrxbAPhjGdeiAoCaSWAcKY1s/QLAhCAQIwJpEE4Fe/JJ5/sTqc95phj5Oijj84QL1Q4df+nnjBb6Mm0UaYU4YySZrLqQjiTlS+ihUDSCSCcSc8g8UMAAhBIIIG0CGf4CpTw0lqEM4GD0qOQEU6Pkk1XIRADAghnDJJACBCAAAR8I5Am4dTc6UzlPffck1kai3D6NqKT1V+EM1n5IloIJJ0Awpn0DEYcv56ceO6558rIkSNlu+22y7mvaOrUqXLmmWe6Ay/0oIy77rpLmjdvXiWSjz76SM4++2yZNm2aO8HxvPPOc3udrrzySnd9gJ7sOGDAAHfcvl5Wfscdd8gtt9xSrTcbb7yxtGvXTjp37uwuFw/f9xaOo0ePHnLRRReJXkKu9Q0ZMkRuvfVWd/S/Xqx+1VVXyQEHHFCl/iVLlkjPnj1l1KhR7uAOjTe7LF++XLQvI0aMkAkTJrh77rQ0aNDAHfSh/dcTJrfeemvuoot4LFJdugmkTTiDU2c1a7o89sMPP5SOHTtWS2L2AUMsqU33OI9r7xDOuGaGuCCQTgIIZzrzWnKvVNauvfZaue+++1wdDz74YDVR0zdIKqVByfWMCppKqRYVUt3btHjxYrfX6eWXX64is8EbtWHDhtUYt8qqXoxev35991z4FMgTTzwxswcqV3177bWXDBw40N0pF5RwPNmnR+ozCxYskBtvvFGeeOKJGuNq2bKlDBo0SDbddNOSufNCCPhGIOnCmYZ8sYczDVksrQ8IZ2nceBUEIFAaAYSzNG6pflVYKC+55BI5//zzpV69eq7Pv/zyi1x//fUZIdWvZT+j0nrzzTfLnXfe6QTvoYceEpWyQoUzmAH49ddf5YMPPpA+ffrIe++9J2uttZYMHTrUzY4WK5xh8S1EOL/++mvXL5391NKtWzc5/fTT3eXnKrzK4csvv5Rx48bJ2LFj5ZprrkE4U/1TQeeiJoBwRk20+PoQzuKZpeUVCGdaMkk/IJAMAghnMvJU0SinT58up512mnzyySfu5MUbbrjByZ6Wb775xi2PVdEKymGHHeaWw66zzjruS//+97+lV69e8ve//1323ntvJ56NGjUqWjiD+sMCHCzPLVQ49913X/n+++/ljTfekIMPPlhuu+02WXfddV3V+WY4f/75ZzezqbOWWrJnViuaDBqDQEoJIJz2iUU47XNgFQHCaUWediHgJwGE08+819jrsDBmLxcNZFRnAFdffXVZuHBhtb2eurdTl77q/k2VU50pXHnllUsWzvDS2fDS10KW1Hbt2lV22mknufTSS12fdW/nIYccUqNwzpgxQ8444wyZOXOmHH744W62NpBUhgsEIBANAYQzGo51qQXhrAu9ZL8W4Ux2/ogeAkkjgHAmLWMViDe8JFab0z2M7du3dy0Hs42tW7d2X9MZQy3hfZzjx4+XLl26VPt6sUtqg67q3s5AGPUgoOOPP959qxDh7NChg1x99dVuWa4e+hOe5cw3wxlu76abbhLdH0qBAASiJYBwRsuzlNoQzlKopeM1CGc68kgvIJAUAghnUjJV4Thfeukld6G5lr59+7oZv7CI6syhip+eDqtLb/WE2AsvvNDt9dQDh/Q12afcFiucuofztddec4cY6Wxp9om4hQrn3Xff7ZYABwcdBbOcuYRzxYoVTqJVbLWET5ScPHmy28v51VdfVcmGLhvWE3fXX3/9CmeJ5iCQXAIIp33uEE77HFhFgHBakaddCPhJAOH0M++19jq8LDY4AVb3Qgb7N1Uo9aoS/f9jxoyRYB+nXkuiV5A89thjma8FezsLFc5cwelBQVrvjjvumPl2McKp16moEL/44ouZWU698iQ4NTdYqpt9wm0hwpnv+phaIfMABDwmgHDaJx/htM+BVQQIpxV52oWAnwQQTj/zXmuv9f7KK664wt2Zqfdg6iyhHhgUHCakS2t1xjE4jXazzTZz+yPXXnttd5/lO++8U+302lKFU5fv6iyn7sUMl2KEs2HDhu7EWRVkLXqQ0a677lpNOLNP4c2+My9oP19fagXLAxCAgCOAcNoPBITTPgdWESCcVuRpFwJ+EkA4/cx7Qb1WKdM3hXpC7eOPPy5z5851d2uqAN5zzz2y8cYbS3jpre7jbNy4sVtqq8Ia3vupDRYqnCp5f/jDH9weTT0hVpfT7rLLLnL77bfLVlttlYm9WOFcunSp9O7dW5566ik59thj3TLgyy67zN0LGj6MKFgSrA0Fd4hmA0M4CxpCPASBvAQQTvvBgXDa58AqAoTTijztQsBPAginn3kvqNfhw3/07s358+e7mcHwVSnhK1R09rBJkyZOEsNSGjRWjHDq7Knup9SluSqDWlR2VRBXXXVV9/+LFU59zSuvvOLu09TSv39/efLJJ6sJ56uvviqnnHKKk2YV0+uuu87N3IYLwlnQEOIhCCCcMR4DCGeMk1Pm0BDOMgOmeghAoAoBhJMBkZfAnDlzMstjjzjiCNGrUPQ+y/BdmNl3bur1Ic8995w72bVfv37u6pRShVNfpwf06MFEesKszm7q7GOLFi1KFs7wHs2DDjpIFixYIO+9916VGc7wTKjO7upJtUceeaQ7EKm2vjCcIACBwggww1kYp3I+hXCWk26860Y4450fooNA2gggnGnLaIT9yT5AJ6g6vFQ2+1TX4Jlc14kUO8OpdWn9Kpkqr1ouuOACd/iP3utZygyn1vHmm2+K/rENnzYbXlKrz+gdnNqWyqhKpwr0SSedJM2bN3dxTJkyxe1x1e9zaFCEg46qvCGAcNqnGuG0z4FVBAinFXnahYCfBBBOP/NecK/Dd1Lqi1q2bCmDBg2STTfdNFNHeB+nflEF7dFHH3WHCoVLKcKpr58xY4a7lkUlUPdy6v7RTTbZpGTh/Pnnn+XGG290/QhKtnDq1z/88EO351PFtqay++67y8CBA6VZs2YFc+VBCPhOAOG0HwEIp30OrCJAOK3I0y4E/CSAcPqZ94J7rdLVs2dP0b2aWnT/oy6pDS+V1aW3+szrr7/ununUqZO7h1MPEAoXXaqq+zv15Fu95kTvrmzatKn89NNPontE9ZTbLbbYwong9ttvn3mpCuItt9ziDvBRmVW50+WwU6dOdfs69QoXXXarhwDptSzh+nS/qdadvQdT7w7VGEePHi0NGjRwy2YPP/zwaly0bZ0R/dvf/uZO3tW2tOywww4uxg4dOsgee+wh6623XsFMeRACEEj+KbXhD9A0n8GHVsGVUirU4Q/d9IMr/d05ePBg93suKPp1PRAtOAlcP+TSfeN6KnjHjh1zDpXwqorsOPQFwenaGktQX7jN4Osb9GgvAxe8lGmjb4vO0mebLgxPDwggnB4kmS5CIEYEEM4YJYNQIAABCPhCIMkznIHk6QdaRx99tEuZLv3fd9993UqHPn36SNu2bTPf0++rVOpBZdknX+vXtegS/nyCGJZSveIpKIHc6lVUQRwam67g0APWVFoRTl9+oorrJ8JZHC+ehgAE6kYA4awbP14NAQhAAAIlEEiycOYTwwCD3lM8ceLEzMFpwX74JUuWiB6sFhyoFnw9kNNihTMsq7lSwAxnCQPTk5cgnJ4kmm5CICYEEM6YJIIwIAABCPhEIMnCGcxw6pJZnZnMLtnLZ1X8dFuAXrc0dOhQueGGG0RnKrOFsBjhDGLQ9rP3y4dnQJnh9OmnqvC+IpyFs+JJCECg7gQQzrozpAYIQAACECiSQJKFU7saLGedNm1alWuV9HvZMhjMeOped91rHkiiiqnuaQ9mPIsRztpmWbNjzE6P7gPd/tpO7OEsctym5XGEMy2ZpB8QSAYBhDMZeSJKCEAAAqkikHThDJIRXM+UfT1SeLmr/vfvf/97t88y39cDQcw1I5lrD2ehwskMZ6p+bCLrDMIZGUoqggAECiCAcBYAiUcgAAEIQCBaAmkRTqUS7MVs0qRJZoltIIl64qweFtSrVy93Om0wq5k921mKcHbv3l2yT8MNZ4k9nNGO2TTVhnCmKZv0BQLxJ4Bwxj9HRAgBCEAgdQTSJJyanOyDggLZO/nkk+W5556rtm8z++vFCmcuyc0eJAhn6n5sIusQwhkZSiqCAAQKIIBwFgCJRyAAAQhAIFoCSRZOlcvPPvssM5uZ65qUQAiHDRtWZY9nvq8XK5z6fLCcN3zVisZyxRVXuBlVLSypjXbcpqU2hDMtmaQfEEgGAYQzGXkiSghAAAKpIpBk4dREBPdqBknJvl9Tv65ieu6551a7ezP4+vDhw6ucMFvMoUFBu+HDi4KvBfUyw5mqH5lIO4NwRoqTyiAAgVoIIJwMEQhAAAIQqDiBpAtnxYGVocF+/3pC+s54MlNz3xadpc82XcrQElXGjQDCGbeMEA8E0k0A4Ux3fukdBCAAgVgSQDjt04Jw2ufAKgKE04o87ULATwIIp595p9cQgAAETAkgnKb4XeMIp30OrCJAOK3I0y4E/CSAcPqZd3oNAQhAwJQAwmmKH+G0x28aAcJpip/GIeAdAYTTu5TTYQhAAAL2BBBO+xwww2mfA6sIEE4r8rQLAT8JIJx+5p1eQwACEDAlgHCa4meG0x6/aQQIpyl+GoeAdwQQTu9STochAAEI2BNAOO1zwAynfQ6sIkA4rcjTLgT8JIBw+pl3eg0BCEDAlADCaYqfGU57/KYRIJym+GkcAt4RQDi9SzkdhgAEIGBPAOG0zwEznPY5sIoA4bQiT7sQ8JMAwuln3uk1BCAAAVMCCKcpfmY47fGbRoBwmuKncQh4RwDh9C7ldBgCEICAPQGE0z4HzHDa58AqAoTTijztQsBPAginn3mn1xCAAARMCSCcpviZ4bTHbxoBwmmKn8Yh4B0BhNO7lNNhCEAAAvYEEE77HDDDaZ8DqwgQTivytAsBPwkgnH7mnV5DAAIQMCWAcJriZ4bTHr9pBAinKX4ah4B3BBBO71JOhyEAAQjYE0A47XPADKd9DqwiQDityNMuBPwkgHD6mXd6DQEIQMCUAMJpip8ZTnv8phEgnKb4aRwC3hFAOL1LOR2GAAQgYE8A4bTPATOc9jmwigDhtCJPuxDwkwDC6Wfe6TUEIAABUwIIpyl+Zjjt8ZtGgHCa4qdxCHhHAOH0LuV0GAIQgIA9AYTTPgfMcNrnwCoChNOKPO1CwE8CCKefeafXEIAABEwJIJym+JnhtMdvGgHCaYqfxiHgHQGE07uU02EIQAAC9gQQTvscMMNpnwOrCBBOK/K0CwE/CSCcfuadXkMAAhAwJYBwmuJnhtMev2kECKcpfhqHgHcEEE7vUk6HIQABCNgTQDjtc8AMp30OrCJAOK3I0y4E/CSAcPqZd3oNAQhAwJQAwmmKnxlOe/ymESCcpvhpHALeEUA4vUs5HYYABCBgTwDhtM8BM5z2ObCKAOG0Ik+7EPCTAMLpZ97pNQQgAAFTAginKX5mOO3xm0aAcJrip3EIeEcA4fQu5XQYAhCAgD0BhNM+B8xw2ufAKgKE04o87ULATwIIp595p9cQgAAETAkgnKb4meG0x28aAcJpip/GIeAdAYTTu5TTYQhAAAL2BBBO+xwww2mfA6sIEE4r8rQLAT8JIJx+5p1eQwACEDAlgHCa4meG0x6/aQQIpyl+GoeAdwQQTu9STochAAEI2BNAOO1zwAynfQ6sIkA4rcjTLgT8JIBw+pl3eg0BCEDAlADCaYqfGU57/KYRIJym+GkcAt4RQDi9SzkdhgAEIGBPAOG0zwEznPY5sIoA4bQiT7sQ8JMAwuln3uk1BCAAAVMCCKcpfmY47fGbRoBwmuKncQh4RwDh9C7ldBgCEICAPQGE0z4HzHDa58AqAoTTijztQsBPAginn3mn1xCAAARMCSCcpviZ4bTHbxoBwmmKn8Yh4B0BhNO7lNNhCEAAAvYEEE77HDDDaZ8DqwgQTivytAsBPwkgnH7mnV5DAAIQMCWAcJriZ4bTHr9pBAinKX4ah4B3BBBO71JOhyEAAQjYE0A47XPADKd9DqwiQDityNMuBPwkgHD6mXd6DQEIQMCUAMJpip8ZTnv8phEgnKb4aRwC3hFAOL1LOR2GAAQgYE8A4bTPATOc9jmwigDhtCJPuxDwkwDC6Wfe6TUEIAABUwIIpyl+Zjjt8ZtGgHCa4qdxCHhHAOH0LuV0GAIQgIA9AYTTPgfMcNrnwCoChNOKPO1CwE8CCKefeafXEIAABEwJIJym+JnhtMdvGgHCaYqfxiHgHQGE07uU02EIQAAC9gQQTvscMMNpnwOrCBBOK/K0CwE/CSCcfuadXkMAAhAwJYBwmuJnhtMev2kECKcpfhqHgHcEEE7vUk6HIQABCNgTQDjtc8AMp30OrCJAOK3I0y4E/CSAcPqZd3oNAQhAwJQAwmmKnxlOe/ymESCcpvhpHALeEUA4vUs5HYYABCBgTwDhtM8BM5z2ObCKAOG0Ik+7EPCTAMLpZ97pNQQgAAFTAginKX5mOO3xm0aAcJrip3EIeEcA4fQu5XQYAhCAgD0BhNM+B8xw2ufAKgKE04o87ULATwIIp595p9cQgAAETAkgnKb4meG0x28aAcJpip/GIeAdAYTTu5TTYQhAAAL2BBBO+xwww2mfA6sIEE4r8rQLAT8JIJx+5p1eQwACEDAlgHCa4meG0x6/aQQIpyl+GoeAdwQQTu9STochAAEI2BNAOO1zwAynfQ6sIkA4rcjTLgT8JIBw+pl3eg0BCEDAlADCaYqfGU57/KYRIJym+GkcAt4RQDi9SzkdhgAEIGBPAOG0zwEznPY5sIoA4bQiT7sQ8JMAwuln3uk1BCAAAVMCCKcpfmY47fGbRoBwmuKncQh4RwDh9C7ldBgCEICAPQGE0z4HzHDa58AqAoTTijztQsBPAginn3mn1xCAAARMCSCcpviZ4bTHbxoBwmmKn8Yh4B0BhNO7lNNhCEAAAvYEEE77HDDDaZ8DqwgQTivytAsBPwkgnH7mnV5DAAIQMCWAcJriZ4bTHr9pBAinKX4ah4B3BBBO71JOhyEAAQjYE0A47XPADKd9DqwiiEI4395mG/l+xoxMF9rOni2rb765VZdoFwIQiDEBhDPGySE0CEAAAmklgHDaZxbhtM+BVQRRCOeUjh1l0YgRmS5s//TTsl6nTlZdol0IQCDGBBDOGCeH0CAAAQiklQDCaZ9ZhNM+B1YRRCGcsy+4QOYMGJDpwiqNG0u7hQutukS7EIBAjAkgnDFODqFBAAIQSCsBhNM+swinfQ6sIohCOBePGSOT99+/ShfW3WMP2WHkSKm/zjpWXaNdCEAghgQQzhgmhZAgAAEIpJ0AwmmfYYTTPgdWEUQhnBr77AsvlDm3316lG6ust540v/RSWbt1a2nQoYNVF2kXAhCIEQGEM0bJIBQIQAACvhBAOO0zjXDa58AqgqiEU+N/q0UL+eGjj6y6QrsQMCWwxrbbyjpt28qaLVvKmjvsIA2zZv1Ng4tR4whnjJJBKBCAAAR8IYBw2mca4bTPgVUEUQqn9mHyfvvJ4rFjrbpDuxCIDYENu3WTbR58MDbxxCUQhDMumSAOCEAAAh4RQDjtk41w2ufAKoKohVP78dWwYTLznHPkt6VLrbpFuxCIBYGV11pLWo4Z42Y+Kf8hgHAyEiAAAQhAoOIEEM6KI6/WIMJpnwOrCMohnNqX7yZPliUTJsjSSZNk2XvvybJJk6y6SLsQMCfwxxUrzGOISwAIZ1wyQRwQgAAEPCKAcNonG+G0z4FVBOUSTqv+0C4ErAj8PG+e/PDxx/LZtdfK4pdeqhJG8169ZPP+/a1Ci1W7CGes0kEwEIAABPwggHDa5xnhtM+BVQQIpxV52k0zga+fekqmHXdclS5u8/DDsuGJJ6a52wX1DeEsCBMPQQACEIBAlAQQzihpllYXwlkatzS8CuFMQxbpQxwJfNqvn3zWt28mtA26dpVtH300jqFWNCaEs6K4aQwCEIAABJQAwmk/DhBO+xxYRYBwWpGn3bQT0CW2EzffXJb/9JPrql6b0mbatLR3u9b+IZy1IuIBCEAAAhCImgDCGTXR4utDOItnlpZXIJxpyST9iCOBiVtsIT9+/HEmtD0WL5b6DRrEMdSKxYRwVgw1DUEAAhCAQEAA4bQfCwinfQ6sIkA4rcjTrg8EPth7b/n25ZczXd1p3Dhp0KGDD13P20eE0+v003kIQAACNgQQThvu4VYRTvscWEWAcFqRp10fCCCc1bOMcPow8ukjBCAAgZgRQDjtE4Jw2ufAKgKE04o87fpAAOFEOH0Y5/QRAhCAQOwJIJz2KUI47XNgFQHCaUWedn0ggHAinD6Mc/oIAQhAIPYEEE77FCGc9jmwigDhtCJPuz4QQDgRTh/GOX2EAAQgEHsCCKd9ihBO+xxYRYBwWpGnXR8IIJwIpw/jnD5CAAIQiD0BhNM+RQinfQ6sIkA4rcjTrg8EEE6E04dxTh8hAAEIxJ4AwmmfIoTTPgdWESCcVuRp1wcCCCfC6cM4p48QgAAEYk8A4bRPEcJpnwOrCBBOK/K06wMBhBPh9GGc00cIQAACsSeAcNqnCOG0z4FVBAinFXna9YEAwolw+jDO6SMEIACB2BNAOO1ThHDa58AqAoTTijzt+kAA4UQ4fRjn9BECEIBA7AkgnPYpQjjtc2AVAcJpRZ52fSCAcCKcPoxz+ggBCEAg9gQQTvsUIZz2ObCKAOG0Ik+7PhBAOBFOH8Y5fYQABCAQewIIp32KEE77HFhFgHBakaddHwggnAinD+OcPkIAAhCIPQGE0z5FCKd9DqwiQDityNOuDwQQToTTh3FOHyEAAQjEngDCaZ8ihNM+B1YRIJxW5GnXBwIIJ8LpwzinjxCAAARiTwDhtE8RwmmfA6sIEE4r8rTrAwGEE+H0YZzTRwhAAAKxJ4Bw2qcI4bTPgVUECKcVedr1gQDCiXD6MM7pIwQgAIHYE0A47VOEcNrnwCoChNOKPO36QADhRDh9GOf0EQIQgEDsCSCc9ilCOO1zYBUBwmlFnnZ9IIBwIpw+jHP6CAEIQCD2BBBO+xQhnPY5sIoA4bQiT7s+EEA4EU4fxjl9hAAEIBB7AginfYoQTvscWEWAcFqRp10fCCCcCKcP45w+QgACEIg9AYTTPkUIp30OrCJAOK3I064PBBBOhNOHcU4fIQABCMSeAMJpnyKE0z4HVhEgnFbkadcHAggnwunDOKePEIAABGJPAOG0TxHCaZ8DqwgQTivytOsDAYQT4fRhnNNHCEAAArEngHDapwjhtM+BVQQIpxV52vWBAMKJcPowzukjBCAAgdgTQDjtU4Rw2ufAKgKE04o87fpAAOFEOH0Y5/QRAhCAQOwJIJz2KUI47XNgFQHCaUWedn0ggHAinD6Mc/oIAQhAIPYEEE77FCGc9jmwigDhtCJPuz4QQDgRTh/GOX2EAAQgEHsCCKd9ihBO+xxYRYBwWpGnXR8IIJwIpw/jnD5CAAIQiD0BhNM+RQinfQ6sIkA4rcjTrg8EEE6E04dxTh8hAAEIxJ4AwmmfIoTTPgdWESCcVuRp1wcCCCfC6cM4p48QgAAEYk8A4bRPEcJpnwOrCBBOK/K06wMBhBPh9GGc00cIQAACsSeAcNqnCOG0z4FVBAinFXna9YEAwolw+jDO6SMEIACB2BNAOO1ThHDa58AqAoTTijzt+kAA4UQ4fRjn9BECEIBA7AkgnPYpQjjtc2AVAcJpRZ52fSCAcCKcPoxz+ggBCEAg9gQQTvsUIZz2ObCKAOG0Ik+7PhBAOBFOH8Y5fYQABCAQewIIp32KEE77HFhFgHBakaddHwggnAinD+OcPkIAAhCIPQGE0z5FCKd9DqwiQDityNOuDwQQToTTh3FOHyEAAQjEngDCaZ8ihNM+B1YRIJxW5GnXBwIIJ8LpwzinjxCAAARiTwDhtE8RwmmfA6sIEE4r8rTrAwGEE+H0YZzTRwhAAAKxJ4Bw2qcI4bTPgVUECKcVedr1gQDCiXD6MM7pIwQgAIHYE0A47VOEcNrnwCoChNOKPO36QADhRDh9GOf0EQIQgEDsCSCc9ilCOO1zYBUBwmlFnnZ9IIBwIpw+jHP6CAEIQCD2BBBO+xQhnPY5sIoA4bQiT7s+EEA4EU4fxjl9hAAEIBB7AginfYoQTvscWEWAcFqRp10fCCCcCKcP45w+QgACEIg9AYTTPkUIp30OrCJAOK3I064PBBBOhNOHcU4fIQABCMSeAMJpnyKE0z4HVhEgnFbkadcHAggnwunDOKePEIAABGJPAOG0TxHCaZ8DqwgQTivytOsDAYQT4fRhnNNHCEAAArEngHDapwjhtM+BVQQIpxV52vWBAMKJcPowzukjBCAAWCNP/QAAIABJREFUgdgTQDjtU4Rw2ufAKgKE04o87fpAAOFEOH0Y5/QRAhCAQOwJIJz2KUI47XNgFQHCaUWedn0ggHAinD6Mc/oIAQhAIPYEEE77FCGc9jmwigDhtCJPuz4QQDgRTh/GOX2EAAQgEHsCCKd9ihBO+xxYRYBwWpGnXR8IIJwIpw/jnD5CAAIQiD0BhNM+RQinfQ6sIkA4rcjTrg8EEE6E04dxTh8hAAEIxJ4AwmmfIoTTPgdWESCcVuRp1wcCCCfC6cM4p48QgAAEYk8A4bRPEcJpnwOrCBBOK/K06wMBhBPh9GGc00cIQAACsSeAcNqnCOG0z4FVBAinFXna9YEAwolw+jDO6SMEIACB2BNAOO1ThHDa58AqAoTTijzt+kAA4UQ4fRjn9BECEIBA7AkgnPYpQjjtc2AVAcJpRZ52fSCAcCKcPoxz+ggBCEAg9gQQTvsUIZz2ObCKAOG0Ik+7PhBAOBFOH8Y5fYQABCAQewIIp32KEE77HFhFgHBakaddHwggnAinD+OcPkIAAhCIPQGE0z5FCKd9DqwiQDityNOuDwQQToTTh3FOHyEAAQjEngDCaZ8ihNM+B1YRIJxW5GnXBwIIJ8LpwzinjxCAAARiTwDhtE8RwmmfA6sIEE4r8rTrAwGEE+H0YZzTRwhAAAKxJ4Bw2qcI4bTPgVUECKcVedr1gQDCiXD6MM7pIwQgAIHYE0A47VOEcNrnwCoChNOKPO36QADhRDh9GOf0EQIQgEDsCSCc9ilCOO1zYBUBwmlFnnZ9IIBwIpw+jHP6CAEIQCD2BBBO+xQhnPY5sIoA4bQiT7s+EEA4EU4fxjl9hAAEIBB7AginfYoQTvscWEWAcFqRp10fCCCcCKcP45w+QgACEIg9AYTTPkUIp30OrCJAOK3I064PBBBOhNOHcU4fIQABCMSeAMJpnyKE0z4HVhEgnFbkadcHAggnwunDOKePEIAABGJPAOG0TxHCaZ8DqwgQTivytOsDAYQT4fRhnNNHCEAAArEngHDapwjhtM+BVQQIpxV52vWBAMKJcPowzukjBCAAgdgTQDjtU4Rw2ufAKgKE04o87fpAAOFEOH0Y5/QRAhCAQOwJIJz2KUI47XNgFQHCaUWedn0ggHAinD6Mc/oIAQhAIPYEEE77FCGc9jmwigDhtCJPuz4QQDgRTh/GOX2EAAQgEHsCCKd9ihBO+xxYRYBwWpGnXR8IIJwIpw/jnD5CAAIQiD0BhNM+RQinfQ6sIkA4rcjTrg8EEE6E04dxTh8hAAEIxJ4AwmmfIoTTPgdWESCcVuRp1wcCCCfC6cM4p48QgAAEYk8A4bRPEcJpnwOrCBBOK/K06wMBhBPh9GGc00cIQAACsSeAcNqnCOG0z4FVBAinFXna9YEAwolw+jDO6SMEIACB2BNAOO1ThHDa58AqAoTTijzt+kAA4UQ4fRjn9BECEIBA7AkgnPYpQjjtc2AVAcJpRZ52fSCAcCKcPoxz+ggBCEAg9gQQTvsUIZz2ObCKAOG0Ik+7PhBAOBFOH8Y5fYQABCAQewIIp32KEE77HFhFgHBakaddHwggnAinD+OcPkIAAhCIPQGE0z5FCKd9DqwiQDityNOuDwQQToTTh3FOHyEAAQjEngDCaZ8ihNM+B1YRIJxW5GnXBwIIJ8LpwzinjxCAAARiTwDhtE8RwmmfA6sIEE4r8rTrAwGEE+H0YZzTRwhAAAKxJ4Bw2qcI4bTPgVUECKcVedr1gQDCiXD6MM7pIwQgAIHYE0A47VOEcNrnwCoChNOKPO36QADhRDh9GOf0EQIQgEDsCSCc9ilCOO1zYBUBwmlFnnZ9IIBwIpw+jHP6CAEIQCD2BBBO+xQhnPY5sIoA4bQiT7s+EEA4EU4fxjl9hAAEIBB7AginfYoQTvscWEWAcFqRp10fCCCcCKcP45w+QgACEIg9AYTTPkUIp30OrCJAOK3I064PBBBOhNOHcU4fIQABCMSeAMJpnyKE0z4HVhEgnFbkadcHAggnwunDOKePEIAABGJPAOG0TxHCaZ8DqwgQTivytOsDAYQT4fRhnNNHCEAAArEngHDapwjhtM+BVQQIpxV52vWBAMKJcPowzukjBCAAgdgTQDjtU4Rw2ufAKgKE04o87fpAAOFEOH0Y5/QRAhCAQOwJIJz2Kdr7tavk5YVTMoGM2r2PHLBBK/vAiKDsBBDOsiOmAY8JIJwIp8fDn65DAAIQiA8BhNM2F3N+WCTb/fM8WfrrD5lA5h/0gGy4WgPbwGi9IgQQzopgphFPCSCcCKenQ59uQwACEIgXAYTTNh+nTrpLhn4+NhNEy3U2lQ/2vt02KFqvGAGEs2KoachDAggnwunhsKfLEIAABOJHAOG0y8lJ790hw754uUoA127bVXpvfaxdULRcUQIIZ0Vx05hnBBBOhNOzIU93IQABCMSTAMJZ2bx8+v0Ct1/zrk9Gyrvfzq7SeIu1msm/9r2rsgHRmikBhNMUP42nnADCiXCmfIjTPQhAoJIEJv/7U5mwaLpMWvKxvPftx+5/KRBIGoHX9vo/addom6SFTbx1IIBw1gEeL4VALQQQToSTHxIIQAACkRDQJYnnTL6vyqErkVRMJRCoIIHH/nChHL/xXhVskabiQADhjEMWiCGtBBBOhDOtY5t+QQACFSSw3+t9ZOzXkyvYIk1BIFoCF295pOi+zdVWWiXaiqktEQQQzkSkiSATSgDhRDgTOnQJGwIQiAsBvUpi+tI5cQmHOCBQEIGmqzeSNg23lDYNtpI2Dbbkvs2CqKX3IYQzvbmlZ/YEEE6E034UEgEEIJBYAr2nPybXf/RUlfibrd5ILtqyo+zWsIXs3qhFYvtW6cA5NKjSxGkPAv8jgHAyGiBQPgIIJ8JZvtFFzRCAQKoJ6IFA7SZcLj/+9nOmn31bdJY+23RJdb/L1TmEs1xkqRcCtRNAOGtnxBMQKJUAwolwljp2eB0EIOA5gfs+fUm6f3BvhsL2azeXKfsM9JxK6d1HOEtnxyshUFcCCGddCfJ6COQngHAinPx8QAACECiJQI8Ph8idH7+QeW3/7btJry2PLKkuXiSCcDIKIGBHAOG0Y0/L6SeAcCKc6R/l9BACECgLgd3GXyoTF3+UqXvcHtdKh/V2KEtbPlSKcPqQZfoYVwIIZ1wzQ1xpIIBwIpxpGMf0AQIQMCBQb/hRVVpd0fFvBlGkp0mEMz25pCfJI4BwJi9nRJwcAggnwpmc0UqkEIBArAggnNGmA+GMlie1QaAYAghnMbR4FgLFEUA4Ec7iRgxPQwACEPgvAYQz2qGAcEbLk9ogUAwBhLMYWjwLgeIIIJwIZ3EjhqchAAEIIJxlGQMIZ1mwUikECiKAcBaEiYcgUBIBhBPhLGng8CIIQAACzHBGOwYQzmh5UhsEiiGAcBZDi2chUBwBhBPhLG7E8DQEIAABZjjLMgYQzrJgpVIIFEQA4SwIEw9BoCQCCCfCWdLA4UUQgAAEmOGMdgwgnNHypDYIFEMA4SyGFs9CoDgCCCfCWdyI4WkIQAACzHCWZQwgnGXBSqUQKIgAwlkQJh6CQEkEEE6Es6SBw4sgAAEIMMMZ7RhAOKPlSW0QKIYAwlkMLZ6FQHEEEE6Es7gRw9MQgAAEmOEsyxhAOMuClUohUBABhLMgTDwEgZIIIJwIZ0kDhxdBAAIQYIYz2jGAcEbLk9ogUAwBhLMYWjwLgeIIIJwIZ3EjhqchAAEIMMNZljGAcJYFK5VCoCACCGdBmHgIAiURQDgRzpIGDi+CAAQgwAxntGMA4YyWJ7VBoBgCCGcxtHgWAsURQDgRzuJGDE9DAAIQYIazLGMA4SwLViqFQEEEEM6CMPEQBEoigHAinCUNHF4EAQhAgBnOaMcAwhktT2qDQDEEEM5iaPEsBIojgHAinMWNGJ6GAAQgwAxnWcYAwlkWrFQKgYIIIJwFYeIhCJREAOFEOEsaOLwIAhCAADOc0Y4BhDNantQGgWIIIJzF0OJZCBRHAOFEOIsbMTwNAQhAgBnOsowBhLMsWKkUAgURQDgLwsRDECiJAMKJcJY0cHgRBCAAAWY4ox0DCGe0PKkNAsUQQDiLocWzECiOAMKJcBY3YngaAhCAADOcZRkDCGdZsFIpBAoigHAWhImHIFASAYQT4Sxp4PAiCEAAAsxwRjsGEM5oeVIbBIohgHAWQ4tnIVAcAYQT4SxuxPA0BCAAAWY4yzIGEM6yYKVSCBREAOEsCBMPQaAkAggnwlnSwOFFEIAABJjhjHYMIJzR8qQ2CBRDAOEshhbPQqA4AggnwlnciOFpCEAAAsxwlmUMIJxlwUqlECiIQK9evWTChAmZZ2+99VbZc889C3otD0EAAjUTQDgRTn5GIAABCJREgBnOkrDlfRHCGS1PaoNAMQQeeOABGTRoUOYlp59+upx22mnFVMGzEIBAHgIIJ8LJDwcEIACBkgggnCVhQzijxUZtEIiEwKuvvioXXXRRpq7ddttN7rjjjkjqphII+E4A4UQ4ff8ZoP8QgECJBBDOEsHleRkznNHypDYIFENg3rx5ctRRR1V5ybHHHiu61JYCAQjUjQDCiXDWbQTxaghAwFsCCGe0qUc4o+VJbRAolsDVV18to0aNqvKy/v37S/v27YutiuchAIEQAYQT4eQHAgIQgEBJBBDOkrDlfRHCGS1PaoNAsQR++OEHOeyww2TZsmVVXnrEEUfILrvsIq1atZKNNtqo2Gp5HgLeE0A4EU7vfwgAAAEIlEYA4SyNW75XIZzR8qQ2CJRCQE+qZRltKeT+85qWLVvKjjvuKFtttZW0bdtWGjVqVHplvDI1BBBOhDM1g5mOQAAClSWAcEbLG+GMlie1QaBUAiNHjpR+/fqV+nJe918CTZo0keOOO05OOOEEmHhOAOFEOD3/EaD7EIBAqQQQzlLJ5X4dwhktT2qDQF0IfPPNNzJw4EB58cUX61INrxVxs52PPPIILDwmgHAinB4Pf7oOAQjUhQDCWRd61V+LcEbLk9ogEAWBcePGyYwZMzL/Fi1aFEW13tXRpk0bueuuu7zrNx3+DwGEE+HkZwECEIBASQQQzpKw5X0RwhktT2qDAAQqT2Du3Lkya9YsGTJkiHz00UdVAujbt68cfPDBlQ+KFs0JIJwIp/kgJAAIQCCZBBDOaPOGcEbLk9ogAAFbAiqd999/fyaINddcUwYPHuyW2FL8IoBwIpx+jXh6CwEIREYA4YwMpasI4YyWJ7VBAAK2BBYuXCjdunUT/d+gXHzxxXLMMcfYBkbrFSeAcCKcFR90NAgBCKSDAMIZbR4Rzmh5UhsEIGBPIHuWU+80vfLKK+0DI4KKEkA4Ec6KDjgagwAE0kMA4Yw2lwhntDypDQIQsCfwxhtvSM+ePTOBtGjRQh5++GH7wIigogQQToSzogOOxiAAgfQQQDijzSXCGS1PaoMABOJBoG3btlUCmThxYjwCI4qKEUA4Ec6KDTYaggAE0kUA4Yw2nwhntDypDQIQiAcBhDMeebCMAuFEOC3HH21DAAIJJoBwRps8hDNantQGAQjEgwDCGY88WEaBcCKcluOPtiEAgQQTQDijTR7CGS1PaoMABOJBAOGMRx4so0A4EU7L8UfbEIBAggkgnNEmr9LCuc8++8h3332X6cSECRNk1VVXjbZT1AYBCHhPAOH0fggIwolw8lMAAQhAoCQCCGdJ2PK+qNLCed5558lbb72Vieepp56STTbZJNpOURsEIOA9AYTT+yGAcP4/e+cBXkWxxfGDjQ6CNEGKFOkgvUgv0qtUQaSKQKiCCgQSlCJdIBA6oSO9g9J7D4KCIl2U3qSDhfed8d3rvclNsnd39m77z/fxvWcyc2bmP7Ob+e3MnONjCsR7/vz5c0wNKAAFoAAUiF0BAKfcGRJo4Jw0aRLNnj3b3YmvvvqKKlasKLdTsAYFoIDjFQBwOn4KADgBnHgIoAAUgALqFABwqtMtplKBBs6NGzdSSEiIuznJkyen7777Tm6nYA0KQAHHKwDgdPwUAHACOPEQQAEoAAXUKQDgVKebWYDz9u3b1KZNG7p69aq7SXnz5qURI0ZQqlSp5HYO1qAAFHCsAgBOxw69u+O4wxl9DuBILZ4LKAAFoIACBQCcCkTyI0ugdzi5afPnz6fx48dHa2WHDh2I4bNUqVJ+9ABZoQAUgALRFQBwYlYAOAGceAqgABSAAqoUAHCqki3GQkYAJzemZcuWdPr0abmdgTUoAAVspUCWLFnER6gcOXJQ1qxZKSpExtZZAKetpoKqzgA4AZyqJg4KQQEoAAUAnHLngFHAyb0ICgqiQ4cOye0QrEEBKGBbBWrVqkUDBw5U1D8ApyKZbJ0JwAngtPUER+egABTQTwEAp1xtjQRO7smGDRto5MiRXrE55fYQ1qAAFLCTAokSJaKwsDCx8xlbAnDaadTV9QXACeBUN3NQCgpAAccrAOCUOwWMBk7uDR+tPXbsGJ06dcr9T24vYQ0KQAG7KbBlyxZKkiRJjN0CcNptxP3vD4ATwOn/rEEJKAAFoAARATjlTgMzAKfcHsEaFIACdlGAvVpfu3aNlixZQuvWrfPqVpkyZWj06NEATrsMtg79AHACOHWYVjAJBaCAExQAcModZQCnXD1hDQpAAX0U2L59O3322Wdexj/88EPq3Lmzzwqxw6nPOFjJKoATwGml+Yq2QgEoYCIFAJxyBwPAKVdPWIMCUEA/BaZPn07Tpk1zV8CeaxcuXAjg1E9yS1sGcAI4LT2B0XgoAAWMUwDAKVd7AKdcPWENCkAB/RS4efMm1a9fn/78809RSfz48Wnnzp0ATv0kt7RlACeA09ITGI2HAlDAOAUAnHK1B3DK1RPWoAAU0FeBBg0a0OXLl92VrFy5kl5//fVoleJIrb7jYAXrAE4ApxXmKdoIBaCACRUAcModFACnXD1hDQpAAX0V6NSpE0VGRrorCQ8Pp8KFCwM49ZXdktYBnABOS05cNBoKQAHjFQBwyh0DAKdcPWENCkABfRUAcOqrr52sAzgBnHaaz+gLFIACAVQAwClXbACnXD1hDQpAAX0VAHDqq6+drAM4AZx2ms/oCxSAAgFUAMApV2wAp1w9YQ0KQAF9FQBw6quvnawDOAGcdprP6AsUgAIBVADAKVdsAKdcPWENCkABfRUAcOqrr52sAzgBnHaaz+gLFIACAVQAwClXbACnXD1hDQpAAX0VAHDqq6+drAM4AZx2ms/oCxSAAgFUAMApV2wAp1w9YQ0KQAF9FQBw6quvnawDOAGcdprP6AsUgAIBVADAKVdsAKdcPWENCkABfRUAcOqrr52sAzgBnHaaz+gLFIACAVQAwClXbACnXD1hDQpAAX0VAHDqq6+drAM4AZx2ms/oCxSAAgFUAMApV2wAp1w9YQ0KQAF9FQBw6quvnawDOAGcdprP6AsUgAIBVADAKVdsAKdcPWENCkABfRUAcOqrr52sAzgBnHaaz+gLFIACAVQAwClXbACnXD1hDQpAAX0VAHDqq6+drAM4AZx2ms/oCxSAAgFUAMApV2wAp1w9YQ0KQAF9FQBw6quvnawDOAGcdprP6AsUgAIBVADAKVdsAKdcPWENCkABfRUAcOqrr52sAzgBnHaaz+gLFIACAVQAwClXbACnXD1hDQpAAX0VAHDqq6+drAM4AZx2ms/oCxSAAgFUAMApV2wAp1w9YQ0KQAF9FQBw6quvnawDOAGcdprP6AsUgAIBVADAKVdsAKdcPWENCkABfRUAcOqrr52sAzgBnHaaz+gLFIACAVQAwClXbACnXD1hDQpAAX0VAHDqq6+drAM4AZx2ms/oCxSAAgFUAMApV2wAp1w9YQ0KQAF9FQBw6quvnawDOAGcdPr0aTp27BidOnXK/c9Okxx9gQJQQB8FDvZL72W4+NDL+lTkEKv169f36unKlSsd0vPAdbNAgQKUP39+ypEjB5UoUYJSpkwZuMpRExSwmQIATpsNqI7dAXA6HDg3bNhAI0eOpIcPH+o4zWAaCkABOyoA4JQ7qgBOuXrGZS1dunTUpEkTatGiRVxZ8XsoAAV8KADgxLRQqgCA08HAGRQURIcOHVI6V5APCkABKOClAIBT7oQAcMrVU6k13u2cN2+e0uzIBwWgwP8VAHBiKihVAMDpUOBs2rQpXbhwQek8QT4oAAWgQDQFAJxyJwWAU66e/lgrVqwYhYWF+VMEeaGA4xUAcDp+CigWAMDpQOCcPHkyzZo1y6vnWbNmpdq1a1Pu3LmpcOHCiicQMkIBKOBcBeA0SO7Yw2mQXD19WYuMjCT+t2DBgmhXSUJDQ6lGjRr6NwI1QAGbKADgtMlABqAbAE6HASc7Bmrfvj09e/bM3fMOHTqInyFBASgABfxRAMDpj1px5wVwxq2RrBznzp2jiRMn0u7du90mEydOTFOmTBEOhZCgABSIWwEAZ9waIce/CgA4HQac7PXQc1GTOnVqWrt2LZ4HKAAFoIDfCgA4/ZYs1gIATrl6xmXtypUr4mPrzZs33Vn79OlDjRo1iqsofg8FoAARATgxDZQqAOB0GHCOHj2aFi9e7O51jx49qHnz5krnC/JBASgABdwKADjlTgYAp1w9lVibP38+jR8/3p21bt261L9/fyVFkQcKOF4BAKfjp4BiAQCcDgPOtm3b0okTJ9y9nj59uohJhgQFoAAU8FcBAKe/isWeH8ApV08l1vg+Jy+aXSlnzpw0Z84cJUWRBwo4XgEAp+OngGIBAJwOA04OdO2ZDhw4oHiyICMUgAJQwFMBAKfc+QDglKunUmv4u6hUKeSDAt4KADgxI5QqAOAEcCqdK8gHBaAAFPBSAMApd0IAOOXqqdQagFOpUsgHBQCcmAPqFABwAjjVzRyUggJQwPEKADjlTgEAp1w9lVoDcCpVCvmgAIATc0CdAgBOAKe6mYNSUAAKOF4BAKfcKQDglKunUmsATqVKIR8UAHBiDqhTAMAJ4FQ3c1AKCkABxysA4JQ7BQCccvVUag3AqVQp5IMCAE7MAXUKADgBnOpmDkpBASjgeAUAnHKnAIBTrp5KrQE4lSqFfFAAwIk5oE4BACeAU93MQSkoAAUcrwCAU+4UAHDK1VOpNQCnUqWQDwoAODEH1CkA4ARwqps5KAUFoIDjFQBwyp0CAE65eiq1BuBUqhTyQQEAJ+aAOgUAnABOdTMHpaAAFHC8AgBOuVMAwClXT6XWAJxKlUI+KADgxBxQpwCAE8CpbuagFBSAAo5XAMApdwoAOOXqqdQagFOpUsgHBQCcmAPqFABwAjjVzRyUggJQwPEKADjlTgEAp1w9lVoDcCpVCvmgAIATc0CdAgBOAKe6mYNSUAAKOF4BAKfcKQDglKunUmsATqVKIR8UAHBiDqhTAMAJ4FQ3c1AKCkABxysA4JQ7BQCccvVUag3AqVQp5IMCAE7MAXUKADgBnOpmDkpBASjgeAUAnHKnAIBTrp5KrQE4lSqFfFAAwIk5oE4BACeAU93MQSkoAAUcrwCAU+4UAHDK1VOpNQCnUqWQDwoAODEH1CkA4ARwqps5KAUFoIDjFQBwyp0CAE65eiq1BuBUqhTyQQEAJ+aAOgUAnABOdTMHpaAAFHC8AgBOuVMAwClXT6XWAJxKlUI+KADgxBxQpwCAE8CpbuagFBSAAo5XAMApdwoAOOXqqdQagFOpUsgHBQCcmAPqFABwAjjVzRyUggJQwPEKADjlTgEAp1w9lVoDcCpVCvmgAIATc0CdAgBOAKe6mYNSUAAKOF4BAKfcKQDglKunUmsATqVKIR8UAHBiDqhTAMAJ4FQ3c1AKCkABxysA4JQ7BQCccvVUag3AqVQp5IMCAE7MAXUKADgBnOpmDkpBASjgeAUAnHKnAIBTrp5KrQE4lSqFfFAAwIk5oE4BACeAU93MQSkoAAUcrwCAU+4UAHDK1VOpNQCnUqWQDwoAODEH1CkA4ARwqps5KOWXAg+PH6c/du2i+0eP0oPISHpw9Khf5ZEZCphRgQor63s1a3v9lQFpZvJ33qFkpUpR4gIFKMW779IradMGpF69KwFw6q2wb/sATmN0R63WV6BTp04UGRnp7kh4eDgVLlw4WsfwjFl/rLX2AMAJ4NQ6h1A+DgWuzZ1Lp7t0ob/v34dWUMBWChgFnJ4iJsicmdIHBVHG3r0try2A05ghxGLYGN1Rq/UVAHBafwwD1QMAJ4AzUHPNkfUcr1KF7mzZ4si+o9P2V8AMwOlSmXc7ix47ZmnRAZzGDB+A0xjdUav1FQBwWn8MA9UDACeAM1BzzXH1HMqThx799JPj+o0OO0cBMwEnq56icmUqsHmzZQcAwGnM0AE4jdEdtVpfAQCn9ccwUD0AcAI4AzXXHFXP+eBg+nXIEK8+J86bl9K2bk1JixalVytUcJQe6Kw9FTDKadDd7dvp7o4d9NuYMfT3vXte4uaaM4fSfvCBJQUHcBozbABOY3RHrdZXAMBp/TEMVA8AnADOQM01x9TDDoGOli5N/zx54u5z5tBQyhIS4hgN0FFnKGAUcLrUfXjiBJ3v25durVnjFvzFpEmp0O7dwqGQ1RKA05gRA3Aaoztqtb4CAE7rj2GgegDgBHAGaq45pp4rU6fSLx07uvsbP0MGKvnbb47pPzrqHAWMBk5W+smFC3T0nXfo2eXLbuFzhIVR+i5dLDcQAE5jhgzAaYzuqNX6CgA4rT+GgeoBgBPAGai55ph6znTrRr9PmODub7YxY+iNnj0d03901DkKmAE4We1Lo0bRuT593MKna9eOck6fbrmBAHAaM2QATmN0R63WVwDAaf0xDFQPAJwAzkDNNcfUE1myJN0/cMDd30J794qYgUhQwG4KmAU4+U4n/zFzpSSFClERj9hwVtEdwGnMSAE4jdEdtVpfAQCn9ccwUD0AcAI4AzXXHFPPjnjxvPpa/vlzx/QdHXWWAmYBTlbdDs8dgNOY5wfAaYx27X94AAAgAElEQVTuqNX6CgA4rT+GgeoBgBPAGai55ph67LDwdcxgoaOaFABwapIvWmEAp1w9lVoDcCpVCvmggLcCAE7MCKUKADgBnErnCvIpVADAqVAoZLO8AgBOuUMI4JSrp1JrAE6lSiEfFABwYg6oUwDACeBUN3NQKkYFAJyYHE5RAMApd6QBnHL1VGoNwKlUKeSDAgBOzAF1CgA4AZzqZg5KATgxBxyvAIBT7hQAcMrVU6k1AKdSpZAPCgA4MQfUKQDgBHCqmzkoBeDEHHC8AgBOuVMAwClXT6XWAJxKlUI+KADgxBxQpwCAE8CpbuagFIATc8DxCgA45U4BAKdcPZVaA3AqVQr5oACAE3NAnQIATgCnupmDUgBOzAHHKwDglDsFAJxy9VRqDcCpVCnkgwIATswBdQoAOAGc6mYOSgE4MQccrwCAU+4UAHDK1VOpNQCnUqWQDwoAODEH1CkA4ARwqps5KAXgxBxwvAIATrlTAMApV0+l1gCcSpVCPigA4MQcUKcAgBPAqW7moBSAE3PA8QoAOOVOAbsA5/UFC+jujh305Nw5enzunPhfM6dPixf3at6IgwfN3FxpbYufIQMlzJGDEmTNSvEzZaIsISHSbMOQMxTo1KkTRUZGujsbHh5OhQsXjtZ5fNRxxnyIrZcATgAnngLJCiAOp2RBYc60CgA45Q6NHYDz16++ovN9+8oVRmdrTgXOqLK+WqEC5Vuzhl5MkkRnxWHeLgoAOO0ykvr3A8AJ4NR/ljmsBgCnwwbcwd0FcModfKsDZ2TRonT/yBG5ogTAGoDTW+RCe/ZQstKlA6A8qrC6AgBOq49g4NoP4ARwBm62OaQmAKdDBhrdJACn3ElgZeA8lCcPPfrpJ7mCBMgagDO60O/cvUsvJU8eoBFANVZVAMBp1ZELfLsBnADOwM86m9cI4LT5AKN7bgUAnHIng1WB83xwMP06ZIiXGElLlKDMwcGUKFcuSpg9u1yhJFtz6v2yZ9eu0dNff6XLkybR1YgIL1Vfq1OH8q1eLVlpmLObAgBOu42ofv0BcAI49ZtdDrUM4HTowDuw2wBOuYNuReB8cPQoHS1dmv558sQtRubQUEs5oHEqcHrO3psrVtCJhg29JnSmzz+nN4cNkzvJYc1WCgA4bTWcunYGwAng1HWCOdE4gNOJo+7MPgM45Y67FYHzytSp9EvHjm4hkpUqRYX27pUrjM7WAJz/Cvzb2LF0tlcvt9qJ8+aloj/+qLP6MG9lBQCcVh69wLYdwAngDOyMc0BtAE4HDDK6KBQAcMqdCFYEzjPdutHvEya4hXh71y5KXqaMXGF0tgbg/E/g3UmT0t8PHogfvJAwIZV99Ehn9WHeygoAOK08eoFtO4ATwBnYGeeA2gCcDhhkdBHAqcMcsCJwRpYsSfcPHHCrUfLiRRHT0UoJwPnfaB3MkYMenznj/kGJ8+cpQZYsVhpOtDWACgA4/Rf77Nmz1LFjRzp58qQonCdPHpoyZQply5aNDh06RGPHjqWJEydSihQp3MZj+vny5cspKCjInc/TFv/wyZMnFBISQvyOa/j/I/Ou+jt37ix+xrbr1asXrSOrVq2iYsWK+d/BGEoAOAGc0iYTDP2rAIATM8EpCmCHU+5IWxE47fC+A3D+N4+xKJT7TNvdGoDTvxF2wZ0nzDEALly4kHr37k0//PCDIuB0geSlS5e84NQFoC77UYHT9d/p0qWjnj17isbHBLP+9Szu3Hi3ADjjniXI4ZcCdliA+dVhZHasAgBOuUMP4JSrp1JrAE4Ap9K5gnzeCgA4lc8IX7uNUUsr3eGMDRJ5h/Tq1as0aNAgYd5zh9PzdwkSJABwKh8+XXLGe/78+XNdLJvAKP6w6j8IAE79NUYN5lAAwCl3HACccvVUag1/FwGcSucK8gE41c4B3skMDg6mwYMHi+OzvpJS4GRw5OTapfS0xTb69u0rjulmyJDBDZycZ+nSpYqP66rtZ0zlsMMZXRkAp+xZ5jB7AE6HDbiDuwvglDv4AE65eiq1BuAEcCqdK8gH4FQ7B5QcXY3pPiXXWaFCBQGLCRMmjHYv07NNnmDrAs65c+d63RWNCqhR73D26dPHJ8yq7TuXA3ACOLXMH5T1oQCAE9PCKQoAOOWONIBTrp5KrQE4AZxK5wryATjVzgGlwBmX0yA1wMk7qtu3bxdOgKLuiippl9o+e5YDcAI4Zcwj2PBQAMCJ6eAUBQCcckcawClXT6XWAJwATqVzBfkAnGrngOdRV72P1Lqg1RNOCxYsKLzj8t8ZT++zAE61I6q9HI7UatfQ0RYAnI4efkd1HsApd7gBnHL1VGoNwAngVDpXkA/AqXYO3Llzh7p06UKNGjVyhyiJakvpHU72RuvrPibb87zfGdVREZebNGmSOwwL5wdwqh1R7eUAnNo1dLQFAKejh99RnQdwyh1uAKdcPZVaA3ACOJXOFeQDcGqZA1HDlrAtvnM5atQoGjp0KJ05c0ZRWBQXvGbMmFF4o3V5nI0KlL484zKQMmS6Yn0COLWMqLayAE5t+jm+NIDT8VPAMQIAOOUONYBTrp5KrQE4AZxK5wryATi1zoGojoHy5Mnj3nFUusPJbXDBJDsEcqUPPvjAC0B9AacLVl33OWNyVOQZK1Rrn7k87nBGVxHAKWNmOdgGgNPBg++wrgM45Q44gFOunkqtATgBnErnCvIBODEH1CkA4ARwqps5KBWjAgBOTA5ZCpw+fZqOHTtGp06dcv+TZVuGnYP90nuZKT70sgyzprRRoEAByp8/P+XIkYMYUFKmTCm9nQBO6ZIqMgjgBHAqmijIFE2BTp06UWRkpPvn4eHhVLhw4Wj58Ixh8gA4AZx4CiQrAOCULKhDzW3YsIFGjhxJDx8+NK0CTgJOz0FIly4dNWnShFq0aCF1bACcUuVUbAyLYQCn4smCjF4KADgxIZQqAOAEcCqdK8inUAEAp0KhkC1GBYKCgsSlfrMnpwKna1x4t3PevHnShgnAKU1KvwwBOAGcfk0YZHYrAODEZFCqAIATwKl0riCfQgUAnAqFQjafCjRt2pQuXLhgCXWcDpw8SOx4ISwsTMp4ATilyOi3EQAngNPvSYMCQgEAJyaCUgUAnABOpXMF+RQqAOBUKBSyRVNg8uTJNGvWLK+fZ82alWrXrk25c+f2eTfGSBmd5DSI7ynxvwULFkQ75hwaGko1atTQPBQATs0SqjIA4ARwqpo4KATgxBxQrACAE8CpeLIgozIFAJzKdEIubwXYMVD79u3p2bNn7l906NBB/MysyUnA6RqDc+fOifhlu3fvdg9L4sSJhVt7PmKrJQE4tainviyAE8CpfvY4uyR2OJ09/v70HsAJ4PRnviCvAgUAnApEQpZoCqxcuZI8gSN16tS0du1aUyvlRODkAbly5Yr4EHDz5k33+PTp04caNWqkabwAnJrkU10YwAngVD15HF4QwOnwCeBH9wGcAE4/pguyKlEAwKlEJeSJqsDo0aNp8eLF7h/36NGDmjdvbmqhnAqcPCjz58+n8ePHu8enbt261L9/f03jBeDUJJ/qwgBOAKfqyePwggBOh08AP7oP4ARw+jFdkFWJAgBOJSohT1QF2rZtSydOnHD/ePr06SLuo5mTk4GT73PyYsuVcubMSXPmzNE0XABOTfKpLgzgBHCqnjwOLwjgdPgE8KP7AE4Apx/TBVmVKADgVKIS8kRVwIqLXicDJ4+f7DEDcBrzXpA9jsb0Qk6tWBTK0dEpVgCcThlp7f3EuwXAqX0WwYKXAgBOTAg1Clhx0QvgLOE11AcOHFAz9O4yAE5N8qkubMVnT3Vn4yiIRaFeytrTLoDTnuOqR6/wbgFw6jGvHG0TwOno4VfdeSsuegGcAE47vO+s+OypftEAOPWSzpF2AZyOHHZVnQZwAjhVTRwUilkBOyzAML6BV8CKi14AJ4DTDu87Kz57er2hsCjUS1l72nU6cI4dO5ZGjhwpBrdChQoiZFaKFCncg33nzh3q0qULbd++3f0z9mjes2dP938fOnSI2E7UspzB076rgKuehAkTUkhICM2dO5dWrVpFxYoVc9tcvnw58YmbQYMGUYIECbx+HhQU5P7vPHnyiJBe2bJlEz978uSJsMnvxIYNG3pN2rNnz1LHjh3p5MmTXj+PWndMMx3vFgCnPd+CBvbKDgswA+VzbNVWXPQCOAGcdnjfWfHZ0+tFiUWhXsra066TgZNh8OrVq26oY3C8dOmSG9T4v+vVq0dhYWHun7kANGPGjF7lYgNOnjmegOqaSS44ZOCMCrtRgdOVl9vnCbacjwHUBY1xAWdwcDANHjzYDaiuPkaFaF+zHe8WAKc934IG9soOCzAD5XNs1VZc9AI4AZx2eN9Z8dnT60WJRaFeytrTrlOBMzYwU7pTyHf2eVcyrh3OuICTdyd5B5XjQLt2JaMCZ1x1uMCZ64pthzMqcHJ+tt23b1+vnVIAp7LnPd7z58+fK8tqvVz4w6r/mNlhAaa/SqghqgJWfDYBnABOO7zvrPjs6fUGBXDqpaw97ToVOHk0eVeSYcvXUVg+fuoLzjxhNF26dGLnMi4YjAs4Xe+vpUuXutsSFTi5rTHZ8QTGDBky+A2cccG3a+bj3YIdTnu+BQ3slR0WYAbK59iqrbjoBXACOO3wvrPis6fXixKLQr2UtaddJwNnbEdaY4NIF6y6ADAu4HTdEXXNIF/HX2vWrClA0QWxnsAZ264l/84TjtUAZ9T+xDTT8W4BcNrzLWhgr+ywADNQPsdWbcVFL4ATwGmH950Vnz29XpRYFOqlrD3tOhk4XSPq6RjIdV9TJnAq2eHko7SeO5XHjh1zOw0CcJr32cORWvOOjSVaZocFmCWEtlkjrbjoBXACOO3wvrPis6fX6w/AqZey9rQL4PxvXHlX0XWs9fbt23EeqXV5go1rh1MpcLp2XHmXM3PmzF5eauM6UutyWuTyfBuTl1pfx4RxpFb9sw3gVK8dShKRHRZgGMjAK2DFRS+AE8Bph/edFZ89vd5QAE69lLWnXQDnf+PqeTQ1ZcqUIhyKpyMfV86o9ztlASfbd9nOmzcv3b9/3+0J1xOGPcO2cBlPGPXXS61nnZ7ea33NdrxboqsC4LTnezFgvbLDAixgYqEitwJWXPQCOAGcdnjfWfHZ0+vVqXVRGDXuoCtcgiv8gq92e4Z0cOXzDCXhKuMrJqHrPpsrPIMv+65Yg/w7X3EEPY9BchgLz6Qk3INeY2EFu04FTga7UaNG0dChQ91xN6OGSYkacoTH0/V8sHdaV6gTmcDpAki+9/nBBx+4gdNXOBbOy22cNGmS28Osv8Dpis3ZuXPnaHE7o85fre8WKzwP/rYRwOmvYsjvpYAdFmAY0sArYMVFL4ATwGmH950Vnz293lBaFoW8o8JA57mrM3XqVKpcubI7bp9rkesrKD0vdnkRz8lzd8YTOPn/ey7UfYVjiGkBH5vnULYbtZxrke5rl0ov/a1m16nA6Zovnh8oPAHPNY6+PoS4PpLElsf1ESYiIoKiOg1y/S6m468uCCxSpIgbOLkuTydHrrqjttlXHs7LH2UKFiwY7YON62MOh2aJK2l5t8Rl26q/B3BadeRM0m47LMBMIqWjmmHFRS+AE8Bph/edFZ89vV6OWhaFly9fpk8++cQrMLyvdkYN2eC58OY7cD169KAvvviCevfu7QWqUe+hxbQbIws4Y4NjvfS3ml0nA6fVxsro9mp5txjddr3qB3DqpaxD7NphAeaQoTJVN6246AVwAjjt8L6z4rOn18tLy6LQtcPpeVzQH+BkoGRnJ+xx0/P/u2xEBc6YdiBlAmfUY5J66W5VuwBOq45c4Nut5d0S+NYGpkYAZ2B0tm0tdliA2XZwTNwxKy56AZwATju876z47On1KtO6KHQd5zt58iTFdP/R1w4nw2O/fv3cu5q+oDEqcMbkCCU24Ix6h9PzSGHUcq6+DBs2jBiikaIrAODErFCqgNZ3i9J6rJQPwGml0TJhW+2wADOhrLZvkhUXvQBOAKcd3ndWfPb0eiHKWhS67q75uuPlCzg5Px+nHTRoECVIkMDtXIXva7pgL6rTIF935lgXLTucnnfy/Lmfptd4mN0ugNPsI2Se9sl6t5inR9pbAuDUrqGjLdhhAeboATSo81Zc9AI4AZx2eN9Z8dnT6zUlc1HoGRfQ5eiH2+0LOH15oOW8nruknjucvrx9ujTRApyueIQcOoL/P9uaOHGi2xOpXrpb1S6A06ojF/h2y3y3BL71+tQI4NRHV8dYtcMCzDGDZaKOWnHRC+AEcNrhfWfFZ0+vV5fsRaEvuIz6s5i8x0YFx6hHavn38FKr10xQZhfAqUwn5CKS/W6xg6YATjuMooF9sMMCzED5HFu1FRe9AE4Apx3ed1Z89vR6UWpZFO7cuZOOHDniDlsSk1OfqMAZk9daV3nXsVp4qdVr1NXbBXCq185pJbW8W+yqFYDTriMboH7ZYQEWIKlQjYcCVlz0AjgBnHZ431nx2dPr5al1URj1aCzH72Ovs57JEzD55yEhIcRjEDUf/87TS2x4eLgwE/V4Lt/99Dz26o/TILbnaqOvcnAcFPtMA3Dq9STaz67Wd4v9FCGyLXBOmTKFZs6c6TVmbdu2FYFckeQowBrn+vhjL2M/T54MjeXIa2srVlz0AjgBnABOe72WsCi013jq3RsAp94K28c+3i3Rx9K2wFmkSBG6cuWKV49ff/11cQQGSY4C0FiOjk60AuDUNupGgI/sMePwC56J76eZPRmhu2xNZI+j7PYF0h4WhYFU2/p1ATitP4aB6gHeLQ4DzsjISK8eFy5cGMAp8Wlj4ITGEgV1kCkrLnqxw4kdTgCnvV5SWBTaazz17g2AU2+F7WMf7xYAJ4BT4vMM4JQopsNMATi1DbgR4CN7zLDDqW0OqC0texzVtsMM5bAoNMMoWKcNAE7rjJXRLcW7BcAJ4JT4FAI4JYrpMFNWXPRihxM7nEaAvuxXgxWfPdkauOxhUaiXsva0C+C057jq0Su8WwCcAE6JTxaAU6KYDjNlxUUvgBPACeC014sKi0J7jafevQFw6q2wfezj3QLgBHBKfJ4BnBLFdJgpAKe2ATcCfGSPGY7UapsDakvLHke17TBDOSwKzTAK1mkDgNM6Y2V0S/FuAXACOCU+hQBOiWI6zJQVF73Y4cQOpxGgL/vVYMVnT7YGLntYFOqlrD3tAjjtOa569ArvFgAngFPikwXglCimw0xZcdEL4ARwAjjt9aLCotBe46l3bwCceitsH/t4twA4AZwSn2cAp0QxHWYKwKltwI0AH9ljhiO12uaA2tKyx1FtO8xQDotCM4yCddoA4LTOWBndUrxbAJwATolPIYBTopgOM2XFRS92OLHDaQToy341WPHZk62Byx4WhXopa0+7AE57jqsevcK7xQbAuW/fPjp79iw9fPgw1jkydepUunLlilee119/nT766CM95pYjbcrW+KeffiJeDGXPnp2KFSvmSE2d0mkrLnoBnABOAKe93lBYFNprPPXuTUhICH333Xf0yiuv0LNnz6h9+/bUrl27aNW2bt2azp8/T/HixaMUKVLQjBkzKGXKlHo3D/ZNpADeLRYGzpkzZ9Ls2bPppZdeouvXr9OtW7dinVpJkiTx+fsHDx6YaEpauymyNU6cODElTJiQUqdOTS+88AK1adOG3n//fWuLhNb7VADAqW1iGAE+sscMR2q1zQG1pWWPo9p2mKHckbJl6erVq+IDdrJkyajk5Mn0aoUKZmga2mAyBfiDeMeOHenp06eiZc+fP6cMGTLQihUrvFo6Z84cWrx4Md24cUP8/LXXXqN3332XevToYbIeoTl6KgDgtCBw8h+Crl270pkzZ+jQoUP05MkTPecIbJtEgUSJElHRokUpX758NG7cOPGhAck+Clhx0YsdTuxwGgH6sp96Kz57sjVw2WvVqpX4eM1wkDZtWuJrIqGhoXpVB7sWVmDHjh3EO5yPHz929yJr1qy0cOFCr17169ePNm3aJD6au8C0ZMmSNH78eAv3Hk33VwEApwWBs23btrR9+3ZxPAHJeQq89dZbVKlSJQoPD3de523cYysuegGcAE4Ap31eSgwFQ4cOpUePHrk79c8//9Dq1auJr98gQQFPBXwB599//02HDx+OEzgLFSpEU6ZMgaAOUgDAaTHg5GO0ERERtGvXLgdNU3Q1qgLlypUT9yT4azSSPRQAcGobRyPAR/aY4UittjmgtrTscVTbDqPLHTx4kD777DMv4OQ2MVgkSJDA6OahfpMpAOA02YCYvDkATosBZ/ny5Yn/KOAYrcmfLJ2bx/c6eZG0bds2nWuC+UApYMVFL3Y4scNpBOjLfiat+OzJ1oDtATj1UNW+NgGc9h1bPXoG4LQQcLI32uDgYNq6dasecwE2LaYAH6sdMmQI8V0IJOsrYMVFr12B8+KvV2jh4k1xTqoVSyZ65WnQuEucZWLL8PzP371+He/lDD6zN29SlTJnMscRRwCnpiE3VWEAp6mGw/SNAXCafohM1UAAp4WAc968eTR8+HD68ccfTTWJ0BhjFGDnQXz8qWXLlsY0ALVKVQDAqU1OmeDzcbev6PqN25Qnz5uxNmrT2giv31et3VpTJxK/dNer/MO/Xo1m7+TJ85QmdUqaPP5zTXXJKixTd1lt8teOFZ89f/uoJD+AU4lKyONSwBM42UMtJ77zyx/C+S4nOwmKHz8+ffPNNyLeu6fTINzhdN48AnBaCDg5XiY7Czp9+rTzZip6HE2BHDlyUIUKFYhjfyJZXwErLnrtusP5domWFDahF2XL5nuH0TXb6tes6zXxVq5frWkiRkyd6VW+9Udto9k7e/Z3Cuo6hr4/ME9TXbIKAzhlKWm8HQCn8WNg9hb8+eefwinQ8ePHae/evSIGPIdF4RA6/I9DuXHYkxdffFGESeHYnOz1+Pbt23T//n3RvZdffpmSJ08uoi0ULlyYUqVKZfZuo30SFABwWgg42aPXoEGD6MqVK6qGnh/sggULUvr06UXwXY619f3330fzKKbKOAoFXAH2GsguyTkOFpL1FQBwahtDWeDz66VrVLV2EG3fGhZng4wATm5UhUpBtGntBMqUMV2cbdQ7gyzd9W5nbPat+Oxp1YvB4dSpU8Lb/W+//SbWA7/++itduHCB/v7n7/+bj0fxiKhQ4UKUJnUa4ak2U6ZMlC1bNsqSJYvWJqC8RRTgUHzswZivc/HVrjx58hB7y+d5wPMhXTrl76G7d+/SpUuX6Ny5cyK0H5/YYxsVK1akypUrU+bMmS2iCprprwIATgcAJx+77NChg3g5+Er8hWry5Mk0atQof+cP8v9fAY6J2bp1a6pZsybxUZGMGTOKL3z8Yo2MjKR169bRjBkzxHETWQnAKUtJc9ix4qLXjjuci5dtoRVrttGY0V3jnBhGAWevTyZQgzoVqcl7leNso94ZAJx6KyzPPu9g7t+/X3xkPnnyJGXPkZ0yZc5M6V5PR6lSp6ZXX00udqheiR+fXogXTxyLZAeFDx48oNu379CN69fp8u+X6cL5C3Tv3h9UsEBBKlasGJUuXTrG9YW81sNSoBU4duwYLV++nNavXy/GmOOA88YFOy2UmX744QcxJxlm+eRWgwYN6N1335VZBWyZQAEAp42Bk18QvCvKd/2UJD5jz8d2GZCQlCvQqVMnERg7TZo0sRa6fPkyDRw4UICnjATglKGieWwAOLWNhSzw6fXp15QuQwr6oGX1OBtkFHDOnbeRrv5+h8aM6BFnG/XOIEt3vdsZm30rPntK9eKjj+s3rKfNmzYLsCxUpDAVKFiAcufNIz6Kqk28U3XyxxN0/PtjdPjgYXGcslq1alSrVi1KnTq1WrMoZwIFGPzYZwjvePOuI+8+Jk2aNCAt27Nnj9hJ/eOPP6hFixb03nvvBaReVKK/AgBOmwJn9erVxa6a65K20qnEXzL5D8bOnTuVFnF0vunTp4t4mP6ksLAwcXdBawJwalXQXOWtuOi14w5nqQrt6MsvOlDevLE7DOLZYxRwnjhxngYMnEb7tsv5eKXlSQBwalFPv7IbN26kJUuWiPtzFSpXpHIVytHr6dPrVuEPx3+gndt30ObvNlHVqu9Sk8aNKX/+/LrVB8PyFeBd72nTpgnQ5NNaDJpGJT5qy3P4xo0b1L59e/ExA8naCgA4bQicfLb+p59+8hs2XVLwef1cuXKJex1IMSswc+ZMatOmjSqJJk6cSEFBQarKugoBODXJZ7rCAE5tQyIDfG7cvEtFSreiA/umKWqMUcDJjStR6iM6snc2pU4V3ZOtosZLyiRDd0lNUW3Gis9eTJ3dsGEDRcyeTUmSJqGatWtS6TLvqNZFTcHHjx/ThrXrad3qteJ0FV814Tt/SOZWYNy4cbRixQpq2rSpqeCOT9zxsV6+J9qtWzfcHTb3NIq1dQycfM3s3r17wrFUifBwerVCBQv3SHvT4z13+XfWbkuqBaVOg1avXk116tTRVDe7sW7WrJkmG3YuzC8+fkFrSXyvlndI1SYAp1rlzFnOioteu+1wrlm/m2bOWU2TJn6iaJIYCZydu4ymtq3qUp2aZRS1Va9MAE69lPXPLjsADA8Pp6fPntF7Td6josWL+WdAh9yrlq+kJYsWU9WqValz587i2C2SuRQ4dOgQjRgxgrJnzy5g06xjtHbtWpo7dy716dOHmjRpYi4R0RpFCvBGC48jn7pgL8V9+/Yljifv5GRp4OQjEHz+XUYqWbIkHThwQIYpW9nguwy8+6v1xcxeAd944w3hmEFNAnCqUc28ZQCc2sZGBvj0Dw2n+Alfog7tvcOdxNQyI4Fz2vTV9PTxXzQktJM24TSWlqG7xiZoLm7FZ8+z0/zxc82aNdSqzYdUtbq5nK3wjueiuQto69Zt1LNHD3FlB8kcCsyePZtmzZoljqyyzw+zJ/agzG1mT4OGtToAACAASURBVLbsD4OdNSJZR4EuXboQf+DgKBm8r9erVy/Hb2xZGjjZ26ysMBljx44VEwLJW4Hu3bvT119/LUUWdtLEdybUJACnGtXMW8aKi1677XBWqtGZevVsSkWK5FI0UYwEziNHfqYxY7+hrRsmKWqrXpkAnHopG7ddvnM3dOhQypg5E7Vp35aSJguMY5e4WxY9B9/xnDllOuXNm5f69eunyWGRmvpRxluBL774QoTE4TVI2rRpLSUPQydHVxgyZAjCqFho5DyBkz8WsC8Tp5+ktDRw/vzzz5QzZ04pU/Do0aPCBTaStwIcj6pKlSpSZOHjz/Xq1VNlC8CpSjbTFgJwahsareDz4OFjypq7AR09EkEvvMDRB+NORgLnP8+fU6HCrencTysoSWK5YQri7vl/ObTq7k9deuW14rPHfzsYGrr17G66Xc3YxmnqpMl06qdTIqY4h8BACqwCHOamd+/eIvyNrM2JwPbg39rYKSbv6o8cOVLEl0cyvwIAzuhjZFngZI+0ao9nxjRVeesbyVuBO3fu0KuvynHUwaFSMmTIoEpiAKcq2UxbyIqLXjvtcG7ZdohGjZtPM2f0VTxHjARObmTbdsOod/cWVLmicff1AJyKp4u0jOzPgT149ujTk96S9IFZWuMUGFq/Zh3NnhkhdmfLlDH2DrKC5tomC0chcDneadmypeX7tWvXLpo6dao4ccbxYJHMp8DNmzfFFTT2NszvrYsXL4pGckgmvttdo0YN4rUsH5P2N6qG+Xrrf4ssC5wpU6YUl3FlJg7wy1/EkP5VgO9vsoctmYmPFqj5UADglDkKxtsCcGobA63gM2T4LHrw+BF169pIcUOMBs7xYUspSYJE1P8zdd6yFXc0loxadZfRBq02rPTssYOXn0+dok/7fUrJJX341KqfmvKHDhykrwYPE3fxOIwbkr4KPHv2jDhm+Jtvvknvv/++vpUF0Pr+/fuJndHwv7fffjuANaMqXwrwUWeO43rkyBE6ceIE/fPPP5QxY0YRpz5BggSUKFEicYeT73bzP/4IwhsvHIqHo2PwbnXx4sWpXLlyIp/dk2WBkweTB1BmcsKA+6MX72zyDqfMFD9+fOI/Bv4mAKe/ipk7v5UWvS4l7bTDWathL2rdugaVeaeA4oliNHDu3nOcIiI20LrlYxS3WXZGAKdsRWO2N3TYULFb0D9kAL3w4guBq1inmk6eOEGDQ74Unkc57iOSfgr06NFDnMxq1aqVfpUYZHn37t3Cgy3vdjJQIwVWAeaOlStX0vr168X6mE8tFC1aVMThVXo/+M8//xThHPkqH39E4Dis7777roi4YecPCZYFTp5i/JWAvybISHwfNHfu3DJM2coGP1wM93EldrrExwQaNmwYY9bbt2+LeERqEoBTjWrmLQPg1DY2WsCHv8KmzVyD9u+dRokSxVfcEKOB89Gjp1SydAe6dnGDYceRtOiuWGidM1rh2RszZgydPnOaBn4ZqrMagTX/88mfaGC/AeI+KnvZR5KvwLBhw4iPNvIdOrsmhp29e/dSREQEvfLKK3btpqn6xacf2cvxggULqHz58gIOo75L1TaYj+ByTGGODZs+fXrxoUSWbbVt0qOcpYFz3rx51KJFCym6sPdU9mCG5K0Av9RKlSoVpyxKgHPLli2qHRABOOMcAktlsMKiN6qgdtnh3Lv/OHFIlAXz/VvMGw2cPB7vtwgVoVFKl1S+MyvzwQBwylTTty1eRHO4sy+HD7HlYvr7yKMU0n+giEtdoIAx81j/UTSmBo6p7nIwZfcTa7z+ffr0qfBei6SvAgyCkyZNEqDJMJgpUybdKuT5y+9A3gALCgoSdz7tkiwNnHXr1qVVq1bFOBa83c1fubZv3y7yfPDBB8JbnK8dO77Qu3nzZruMq7R+BAcH05dffhmnPSXA+cknnxB/uVaTAJxqVDNvGQCntrHRAj5jxi+g365coz69/bvbZAbgHDlqAb3xelrq1c2/tmtT+7/SWnSX1Qatdsz87PFHSfbEOXzMSEqTNo3WrsZa/q+//qIL5y9Q9hzZda3Hl/Gtm7fQ4gXfiDiLspzyBbwTJquQ79C1a9eOvvrqK12BgK8EcYgVvovHfkQePXpEPJfYMQyvLVOkSEHp0qUTJ76SJ0+uq0qDBw8WH/HtdE9VV8H8NM47j8OHD6e7d++KsCaB9BDMR6bnzJkjvCzXr1/fz5abM7ulgZMl3bZtG1WoUEGTunw8AQGafUvI2/t8j8bX18Lly5eLLzC+UlhYmNfx2ocPH9Ibb7whHlw1CcCpRjXzljHzojcm1eyyw9m4RV+qW68MValc1K8JYgbg3LzlMK1euZuWLBjmV9tlZQZwylIyuh3+O8Mnlj4P7ktvFy6kX0X/t9z5o06UMEECGj1+rO51+apg/ux5dPXyFRo1apQh9dut0tatW1PZsmV1Oap8/fp1cYT1+++/F3fv2OEL359ksEyWLJnYiWfo5HXOtWvXxHWvU6dOUapUqQSk8N87PcLi8DPDH/L5mKce9u02R/zpDzsD4g2qBg0aGBZSh+928hHxfPnyUd++yj3K+9PPQOa1PHDyZd1Dhw5p0oyDM3NQaSTfCijZ5Yxrh7NXr17EedQmAKda5cxZDsCpbVy0gE+mHHVpw/rRlDJlMr8aYQbgvH37HtWo+Qn9enq1X22XlVmL7rLaoNWOWZ893kHIlTc3NWz8ntYuKirfqllLsTs1PjyM0mdI77PMjKnTicOaLFuzQpFNfzOF9h9IZd4pI05fIalXYMaMGXT8+HHq3r27eiM+SjI08t26Y8eOCe/CvLnBXkV5N1NJ4l1XDmfCYX3Y6z/bUHJFSYltV55vv/1WeEjlj/xIchTgk5N80oJP9xl91/r58+cUEhIiHBTx7j3HlLVqsjxwsvBNmjQhPruvJvGxXA6oixS7AkuXLqX33ot5IRAbcLJHNa3e4gCc9pqhZl30xqayHXY4jx47RZ27j6Dly4b6PaHMAJzc6Ibv9aNJX39Khd7O6XcftBYAcGpV0Hd53qHZuWsnhQweJK2Cvbv3UOky7/i0x0chO7XvSM//eU5VqlWljp0/jpbvaORRGvrFv/fjlqxcKq1dnoZ+u3SJOnfoRIsWLaJs2bLpUofdjf7+++/E67jx48dLu+/G4eB4TjLE8s5p48aNFUNmTHrzcXE+Ismw2rRpU6k7kuyEitdn7MgGSZsC/Czy/VgGTjM5Ep0wYQIdPnxYbNxwWEgrJlsAJwtfu3Zt4SZa6QXbc+fOCSdB/BJAUqbAsmXLYvRCGxNw8oMr4+stgFPZGFklF4BT20ipBZ/wacvph5OnaUBwa78bYBbg/HJwBOXPnZ06fRSYnTBPodTq7rfYOhYw27N39epVcUdpbNg4yvJmFik97/9ZPzr1088U8mUo5S8Y3THPgX37adzor8UOJwPAvG8WUMJECd1188+7dOgkdhX4uORinYCTK1y1fCWdOvmzphNAUkSzqBE+9sjxDmP7IO5P1zhMBe+Y1qtXT/gAUbqbqbQOXkfxeomPavI/GYmPXrITKnY4g6RegSVLlgjYHDduHGXJIuddpL410Usy4+zZs0fEYU2SJIlM0wGxZRvgZLX4sjYf/+zYsWOM2878ZXPKlCliq5zdHCP5p8CAAf+6dI8rcTgVzjt69Oi4sir6PYBTkUyWyWS2Ra8S4eyww9mqfSiVLVeAatfyvfMTmw5mAc616/bQrp3Hac50/7zsKhnjuPIAOONSyP/f89+TxEmT0Put5Hic5xZs37qdwsMm0tMnT8Wd0JKlvT2tz5s9l5Z+s0Q0NkHCBNS0eTNq0Oi/kF7DvhxKkYePEMfL0xs4uQ29u3Fc3NbEzguRlCvA4ewYCtmD6Msvv6y8YAw5GQbZL8jAgQOpZMmSmu3FZIB3ZXkNyqAckx8MfyvnHd5ixYpJi9zgb/1Wz89OQ/nI6uTJkyl79sA7ElOqH+908rxn6LRashVwusR/6aWXqFq1aiKAKju94bhzly5dEkFWN23aZLUxMl17M2TIQG3atBHBqz3vI/BXYb5Pu3btWpo5cyZx3E1ZCcApS0lz2AFwahsHteDzVoHGtHB+KKVPn8rvBpgFOC9fvknNW4TSL8f/BYZAJrW6B7KNcdVlpmeP75717NmTZsydRfx3W1b6/bffqXf3XsQfPtlup66dqXLVKm7z/Lszp8+4/ztZ8mQ0Z+E88d98Z3POrNnuD9KxAefjR49pavhk6v5JT01NP7DvAC2av4AWLVykyY7TCvPdNvYEK8OLJ3sM5nUieyVNnTp1QKRkL7MXLlygPn36aAbm06dPi505doKJ5J8Cv/zyi/jgw/oxtJs9hYaGig9h/fr1M3tTvdpnS+C01AjYoLFp0qQRUM/BlvVKAE69lDXGrpkWvUoVsPoO58+nLlKzD/vThnXqTh2YBTh5vGrU+oQWzR5CuXJmVjp8UvIBOKXI6Dby+eefU5ZsWaheQzlHCz1b16xhEzc0criK9z9oQXUb1BNZmtRvRBzewpUSJkpEH3XqSJkyZaTePT4hdtThSjEB5/q162j2jAixCzpl1jTNkBLSbwDVqV0H9/AUTjEOS8J3KzmGuq9QdwrNiGx8t5K9y/IuoYydUn/q5lNg7PlWBjzwvUN2TMTHgZGUK8CwyZEqeD5ZJbFfFP7Q0rDhfyczzN52AKfZRwjtEwoAOO01EQCc2sZTDfhEzFtHO/dE0pDBH6mq3EzA2T94KpUrXZhaf1BLVV/UFlKju9q69CpnlmePd2Q6de4kdhZ9hd3S2v9Pe/amX0794jbDUFKjdk2qVKUSfdbrU3F/0zNlzJSJnj//h3679JvXz6MCZ+ThSJo5bYaIwfjns2dUrUY16tCpo9bm0qEDh+ib+Qtp/vz5mm05wUB4eDjx/d8PP/xQU3fZIymHO+H7cfHjx9dkS21h3unk+cSemrUkdirDO5wRERFazDiqLHv35XnEY2ClxJE1OO4s3zvlkINWSABOK4wS2gjgtNkcMMui1x9Zrb7D2THoK8qXPws1alTRn26785oJOJcu20Y/Hr9AU8I+V9UXtYUAnGqVi16Ojy6+FP9lsfOoJvEuZGygunDeAvpmgfcRVYbO7G/loDO/nI7mw4GP3rLNv//+2ydwXv79MkXMmEXHjx2jJ4//9f/AZcKmTKR0r7+upgvRyvTq2pO6BgVR6dKlpdizsxHekeIYlFqcu/A1KwZX3uHk61dGpk6dOglPxVp3rLp162Y6D6tG6hpb3byz/PHHHxPHlH/ttdfM2swY28XOrfjDHd89tUICcFphlNBGAKfN5gCAU9uAqgGfgiVa0qSwTyhrVnULKzMB57lzl6lz0Gg6duDfe3eBSmp0D1TblNZjhmePj6FyfLtJ0yerPoo6bvRY2rdnH1WsXJHKlCtLefPn85Lg0MFDNG7UWHrw4EE0gPQ8ThuXbrzDWbNOLeFN1vOoLZcrUaok9R0g7x4V3x89/fMvlllAxqWdXr8/cOCAuG+nZVfqr7/+Io4PztBqdKxF1unKlSsiXErfvn0pZ071IZ8WLlxIyZIl07xbqtfYmckuj33RokWpefPmZmqWX21p1KiRmMdW+EgF4PRraJHZKAVwpNYo5fWp1wyLXn97ZuUdzou/XqVqdbrRtq0T/O22O7+ZgJMbVbFSV/p2zXjKnCmd6j75WxDA6a9ivvOzY7lvv/uW+oUEqzbIMSy7deoq/AdwMPQXXnhBxN0sU66MCIVy9+5d6vBhO3HHUkviO30vvvSie1fTZYs9jA74YiDlzpNHi3mvsuzkqGmDxiJcG0MDkm8FRowYIcKVaAkrwvHB2QZHNjBLWrFiBa1cuZLYGZLadObMGeFplXftkGJW4MiRI+KDBWtu5bRu3TrhqJN36s2eAJxmHyG0TygA4LTXRABwahtPf8Hnm6WbadW6HTR6VJDqis0GnJ/0DqN6tcpT00b/eR9V3TmFBf3VXaHZgGYzw7PXs1dPKlayhNid1JI2fbuJZk6dLrzRulLiJEkoHhGVKlOa9u7eQw8fPNRSRYxl38r5Fo0YO0q67RFDh1OFcuXh+CUWZdlZCh8dVXuclu/s8a4QL9bNdpSybdu2VL58eSpbtqzqucWhYhhA1OqjumILFWSHZYUKFRK7ylZPvMvJTqcKFy5s6q4AOE09PGicSwEAp73mghkWvf4qauUdzp6fjqXXM7xGH7Ss5m+33fnNBpzz5n1Ll3+7RWNHagtJ4Y8gAE5/1PKdl3cc33nnHVq47BsRh1BrGjtyDO3ZvZv++vOvaKb4jiUfnZSdEiVOTEHdu1LpMvLvWm7bspUiDx6hUaPkw6xsHYywxzEsOSwb7+KpTbNmzSL2rq/VSY/a+mMrt2PHDtG3IUOGqDbPsMkh67TeB1XdAJMXvH79utBm69atIryI1dO8efPo7NmzmnbGA6EBgDMQKqMOzQoAODVLaCoDAE5tw+Ev+JQs344GD+5AefO8qbpiswHnyZPnqX/wNNq/Y4bqPvlb0F/d/bUfiPxGP3t79uyhmbNm0uDhQ6V099nTZ9SpfUfh5TNQKVXq1DRizEi6fesW3bp1+///e4vYsdD1a9fo+rXrVK5ieWrfsYPfTeKjwB3bdKCdO3f6XdYJBTZu3Ch2Jjl+q5rETqEYWNm7J68rzJg4PAeH6sidO7eq5m3evJkYzAcNGqSqvN0LsSfoc+fO0YABA3TrKt/J5THg++J8PJ4dQiVMmFCX+vjdV7duXfHO4GPiZk0ATrOODNrlpQCA014TwuhFrxo1rbrDef3GHSpWpjXt3ztVTbfdZcwGnNywkqU/okO7IyhN6hSa+qa0MIBTqVIx55s4cSI9+fOpau+0viwf+/4YDQn90iu2pvaWxm4hfoL49EK8F+ill1+mx48eee2kJkmShD4L/pzyFyigqhndO3elkIEhlDdvXlXl7Vzo66+/Fp6E1d7f3Lt3L+3fv584HIZZE3sfPX/+PPHxWjWJYYrDvCxevFhNcduXYc+077//PpUrV05qX9mpGIekWbNmDT18+FB80OA74Oy4jHcgedeZj79qOS4dU4M7d+5MTZo0oQoVKkjtk0xjAE6ZasKWbgoAOHWT1hDDAE5tsvsDPmvW7aJZ89bQxLBPNFVqRuDsEjSaWresQ3Vrqb/v5I8o/ujuj91A5jX62fu408dUq14dKlqsqNRuz5s9l9jLa9T4mlIricMYLy7TvZ6OgkMHUtp0aVVXPXFcGBXIl18sIJG8FeBjsLxgZ++iatKkSZOInwHeRTRr4lAXfMeUPfGqSXyMvGXLlnTw4EE1xW1d5smTJ1SmTBnat2+fgEFZyeWEKEeOHFS5cmXi//VMPCb8oYPjvhYsWJAGDhwoq2phh0P78N3kTz/9VKpdmcYAnDLVhC3dFABw6iatIYaNXvSq6bRVdzj7hYRTgkQvUYf2ddV0213GjMA5bfpqevLoLxo6qJOmviktDOBUqlTM+XgxNn5yGKVMmVK7sf9b4HuhfLx1yKAh9OvFi9Ls+mOI74tmy5GdQr4M1Xw3lcH5ym+XTeVB1R8t9MzLDoM4nEWGDBlUVcPOhiZMmEBvvqn+eoGqiv0sVLVqVeFFNXXq1H6W/Dc7g/mUKVPojTfeUFXeroUOHTok7sjyLrKstHv3burevTv16NFD3E+PK02fPl140eaPH7LS8ePHib03831OsyYAp1lHBu3yUgDAaa8JYUXgLLOrL+25/bN7INaXHEA10hrjFc4f8KlUvTP1+qQZFSmsPrYbd9qMwHkk8hSNHr2Itm2U94c7tifNH93N+sQa+ezduXNHOOtYsHSR3/Kc+PEEnT1zlh49fCjuSf7+2+907949un3rtgh98kr8+MI7LR+3VBJnk4+/8b/48eOLtvD/53IcXsXfxE6E8uXLqynMi2edx48dpyULviFemCJ5K8DxBhkWXOPmjz58tJE9uO7atcufYobkDQoKEkc+1e7k8v1NhusiRYoY0n6zVsr3Ny9fvkx9+vSR0kS+p8nHc3m8/NGan22ew1pC4Hh2gN+B/GxwjFo17zApYsRhBMAZCJVRh2YFAJyaJTSVASMXvWqF6HNiNo06s9JdPDRnUwrJ1UytOU3llILP/QePKHuehnQ0MoLixePluPpkRuBkSChUuDWdObmckibR7vE0NnVub9hAP9Ss6c6StFgxKmzBI2tGPnsnTpygwUMG05gJX/s9EVcsXU5zI+aIuJtaE9vgxR7f5SpZsiTxncuLFy+K3YHIyEgBsEqflwQJElDZCuWoSzf1IYei9oedDvXt/RmtX79ea1dtVZ7vxVWvXp1mz56tql8co5Lv2C1YsEBV+UAWYi/FfOSzTp06qqrlu65clndKkf5TYOjQoeK4q6wj1RyOJFWqVMQ77/6mzz77TOxEy7pLyveax44da9pwOABOf2cI8huiAIDTENl1q9TIRa/aTs29tJ1aRf53pybZS4lob7mvKG/SjGpNqi4XFTgvzZ0rnBRETadOX6VjJ6/RvLnqA4m7bJoROLlt7doPo15d36cqlYqr1lNJwQuDBtHF0FB31vSdO1OOiROVFDVVHiOfve3bt9PSZUupf6g675Dnzp6j2TMj6NTPp+iJR+xNfwRm2EyfPr3YJeOFYtTEkMdHGXmnNK7EQFCxciXq3K1LXFn9+j3X3bB2fdzBi6Ia31Fj761qjyIePnyY2Euy2ruRfg2ixsxz584VjmZatWqlyhIfp+WPKWqdK6mq1AKFeNeX70bzPU6t6cKFC9S+fXvhoElN4rnI92z5iLeMxI6DeL7wuJsxATjNOCpoUzQFAJz2mhRGLnrVKnnt6V0qsfNTuvjohtsEH6kdn789ZU8cWPf6UYGzb6lSYlcmarpzPyE1btaEunXV7iDDrMA5IWwpJYqfkII/V+fRUcl8eHjiBB3Ol88ra86ZMyldmzZKipsqj5HPHjvM2H/wAHXr1V2TJnt376FZ02aKI7VPnz71yxYD56JFi0SYgpiS645XXEfTOATBiy+9SKlSpabK71ahkqVKUAZJd+aaNWxCa9eupaRJk/rVPztn5l1o3hHi3Ts1icNGsEMeLTEu1dSrpsyKFSvE8ciPPvpITXHiWKPs5bhZM2NO4ahqdAAKsTOl/v37qw4549lEPp576tQp8RFETeITOi1atCAOY8OnLLSm4OBgcay2psdJHK02ZZYHcMpUE7Z0UwDAqZu0hhg2ctGrpcN8pJaP1nqmtPFfpc9yNKCSKXJSqZTa7kkqbVtU4Py0uO/dvdsPU9OwYT3ondL5lZqOMZ9ZgXPP3h9o1Mg51KZFdGcNiRMnFh4po3oM9EeMO999R8erVfMqkrRIESqwZQu9lDy5P6ZMkdfIZ2/hwoX0y9nT9FGnjlK0WL5kGc2fM0/cWfL1wSVqJQybb7/9Nk2bNi3W+hlk2blRXMDpaYR3Ozl/ytdSUuWqVahEqRKUMVMm1f1s07I1zY6IoLRp1Xu7VV25SQtyqBCOvzlmzBhVLdy2bRv9+uuvlohPyaE1GJA7dVLnEI2PHb/11lsCaJD+U4DvkPMHi0wank2XtdDQUOGUqVKlSqolZm+1fJ+UPddqTcOGDRN/6zj0ihkTgNOMo4I2RVMAwGmvSWHkolerkgW39aTj9y5oNaOpfOPVZ6jLzB/dNnwB53MiOvtbMjp0YAYlTPivYxQtyazA+fjxUypWoh29mf6ucBrjmdhzKCdetPlzNO2ve/fo3r59dG//fq9jtC7b+devp5Q1amiR07CyRj577Lr/tyu/U5v28najb9++TfMi5tKuHTvjhE4Gzo4dO4pjcHElvvv2xx9/KL7L6WmP4ZN3PxMmSkglS5Wijl0+jqu6aL//qE17Cp8UDi+jHsowLLJzFrU7nOwsiHek+B6f2dPy5cuJPap26NBBVVOxw+lbNr7XyseN+Vi91sSeaflorj/OgqLWOXLkSGrevLmUe5xsK2PGjKbd1QZwap1xKB8QBQCcAZE5YJUYueiV0ckqe0Noy43jMkxJsVF86OVodh4/fZHiJ8lGq1eNklKHWYGTO1e3Xm96+uAsJYwf/d4dH1ti8By2b58UHV6rU4fyrV4txZYRRox89vQAzt9/+41mz5xN30cejdM7LQNn27ZtFe0a8Q7n/fv3VQEnOxLie5ip06SmYiWKqwJsAGf0p+P69ev0wQcfUHh4uKpHhx1C8T3isLAwVeUDWYidG126dEn1DiUfC+fjlWqc2QSyn4Gui/Xg8ZcRLoZjXvLOZKlSpVR3gz9+8AcwGfcuhw8fLsL9mDV+L4BT9TRBwUAqAOAMpNr612XkoldW79iJUJfjU+n+X49lmVRlJ+VPjyn7ijvRyt6+9wrVqF2X+n6uzumEqsYYVGjYV3Now9rVlDLZM58t4KOOX+3fr7l1iQsUoKLHjmm2Y6QBI589mUdqnz55SvPmzKV1q9cq9lzLHx9y5sxJ7JAltnTjxg2qXbu2X8PEoVEeP3pEuXLnovIVKwjQfC3Va37Z8MzcpuWHNDtiNo7Ueojy+PFjqlKlSpzjF5Po7OSFQWzx4sWqxyVQBfl4ZLJkyaiGypMUfOyYHQbxhxOk/xTgO61ffvmlpmsWLmvjx48XH5bq1aunWmK+k8wfUGQd8eXdVrWejVV3QmFBAKdCoZDNWAUAnMbqL7t2Ixe9MvvCR2t33fqJjv5xjiLvnhP/G8iU669U9GD/BXpj9wP666+/vKr+43EaGjiwM1WuXDSQTTKkri1bD9OXX0yiVxPd9Fk/72yNOnxYddsSZM5M6YOCKGPv3qptmKWgkc+eLKdB69euE8doOW5m1Hkfl84c7oTvcObPH/O9Zj6axlAS1x1OPjr79z9/09uFClHZ8mUFZMpw/sF9gNMg3yPJRxj5SGTChAnjGupov2cHU23atKH9Ej4++V25nwX46He1atXEnWM1ieM79urViwoVKqSmuG3LcCikdu3aUbFitPAeUQAAIABJREFUxTT3kY9oz5w5kwYMUOd1mz+AcBgTvq8rI/Xo0UPEOZYVZkVGmzxtADhlKwp7uigA4NRFVsOMGrnoNazTOlXMd5LYmyF//fdMg4avos3fjacUKezv5fLOnftUsXIQZUkXfaeXNeEjtUP37lU8Ai8mS0bJihenpEWLUqJ8+ShFlSr0ik2ctxj57O3YsYMWL11CwSrDohw6cJAiZsyiO7fv0KNHjxSPp2dG/viQMmVKEcogc+bM0WwsWbJEhM1Q4oTolVdeoVLvlKKefT5R1ZaYCiEsSsxyvvfee8JTrdodod69ewsvtblz55Y6ZrKNlS9fXtxVTa7SMRmHyOB7nLx2QvpPAXbSU7x4cb9PMMSkIe9uMsDmi+LFXInmHJqJ30FqPRFHreP9998n7l+uXLmUVB/wPADOgEuOCtUoAOBUo5p5yxi56DWvKvJaFvn9KerSYwQtX2Z+5xiyev1u9e5Ezy5Qgle873EyFPCuhhJHMbLaYmY7Rj57J06cEDEux4T5H9Zi4/qNNH3yVHrxpZfo6ZMnmiRm6OSdTr7PyXen2JsxO6Tho7ZnzpwRO6f8eyWJ72vmyPkWhQ4eJBwFyUjXr12jvr0/J44JiuStAHupZWCIOo+V6sSLfD5W7Y8TMaW2ZeU7fvw4ffHFFzRixAhVJp88eSIgaJ+ke+uqGmHSQny6gZ/vLl3kxM7l0EXz5s0THzGUvjNYGo6/yeWWLVtG8eNrd+rHNnn3f+PGjdJOWcgeQgCnbEVhTxcFAJy6yGqYUSMXvYZ1OoAVT5q6jE78fIaC+6uLDxbApkqrKnTQDHp07xaVKfWW2ybDAB+dypMnj7R6rG7IyGfvzp071KBhA1q49Bu/Zbz8++9069Ztun3rFt26dYtu37pN58+eE7E47965Sw8ePCA+4sr3NJXsTnI+/seLPVdYFT6eG9cxWl8N53ozZc5EA78IoeSvvup336IWOP79MVqycDFNnz5dsy27GZg4caIY68aN1cUWZsdBDPJ8FNKsie8GssMq9l6qJv3yyy/i4wnHiUTyVoBD4/DRfrWejn3pyc56+IPVJ58oO+nAHxS++uorcZxWi8Mhz7bw8Vz2mst9M2sCcJp1ZNAuLwUAnPaaEEYueu2lpO/efNAulMqXL0i1apV2QndFH9et20s7dhyjuTNCHdNnNR01+tljpy/jJo2nlK+pd6gTU787tu1A165eUyOL5jIMna+++iqFDA6lNzJm1GSPHSFdu3xVBKhH8lZg69atxMeeOXah2sRhkiZMmCDiVJoxsaMg7l+WLFlUNW/Dhg3EH3eCg4NVlbdzIfZ0zCC/ZcsWqd1kgDx27Bjxsda8efPGaHvdunXEztP4pIeW+J1RK1i9erXYNWW7Zk0ATrOODNoF4LTxHDB60WtjaUXX3srfiBYtHESvv57K7l119+/KlZvUrHkI/fLDUsf0WU1HjX72eLFfs24tKlpcu9MOz/5PmjCRtm7a4rcTITUaxlaGj+fyHdXcedXvqod9PYHeLlBQ9S6e7D6ZyR57EObdTS07lAysvAtuRiBjBzIMD3379lUtO++Qsndas3orVd0xSQWbNm0qHP2ouXcZWxN47PjIburUqalAgQLCwzRf6eBTGLwDykecGUb5OC+HL5GZeC6zh1r2TGzWBOA068igXQBOG88Boxe9NpaWfjp1gd7/cACtXycn/qaVtKpZqzctiPiScudStzNgpb6qbavRz96kSZPo0dPH1KJVS7VdiFZu145dNGl8WDTHWdIq8DDEDqhefuVl+vPZn+LOFv83393k47h8d45TvBfiUeu2raleQ3WLv26dgmhQ6CAcBY9hABkY+F622h1KPpLLHz44Lmy2bNn0mCaqbbJTpBYtWqj2TssVd+jQQdwPhMMg38PAQM4nEngO6JHYORof3eY4quwZOUWKFJQ9e3Z65513pIRj8dVmdjLFH1LSpEmjR5ek2ARwSpERRvRWAEdq9VY4sPaNXvQGtreBrW3W3LW0e+9RGjz4o8BWbILaggdMpTKlClGbD/yLoWiCpgesCUY/e3v37qXpM6bTkBHDpPT55o0b1OWjzmJhF6iUNFlSmrtovrhL+O+d0n/vlvK9Ur5feuKHH6lM2TLUtIX/d/D4KGSndh2JF61IMQPDw4cPicFTbeK7bgwEHK/SLIl3bY8ePUrsGEltOnnyJC1YsED8Q/KtwI8//ii8uS5fvtwWEm3atIlWrFhB/DHPzAnAaebRQdvcCgA47TUZjF702ktN7950DBpG+QpkpUbvVbBzN332bdmy7fTD8XM0JUz9cTS7i2b0s8c7gfylf/6ShcI7rNbU/7N+dPrUL8LzpGdKkDAh/fnsmQjMLjslTJSIOnz8EVWqUkm2aXEs+PsjR4ljgSL5VoDvyrEXV60aMXTUr1+fGjVqZLjUDEG8Mzl69GhKly6d6vZERERQxowZhS2kmBX48MMPhefysmXLWl6mbt26iZittWrVMnVfAJymHh40zqUAgNNec8HoRa+91PTuTcHiLWjSpN6U9c30du6mz76dO3+ZOnceRccOwjtjTINvhmev1ye9qEjxolSpSmVNc3TZ4qW0dPFSevz/mJwMmf/8/bdw2lO+Unn6ZsEievRQXbzOuBqWMVMmmjA5LK5sfv9++JBhVKlCJapbt67fZZ1UgI+ecugPLTEHz58/T59//rnwBlywYEHD5OOYsgxADA1aHclwTEfuj1qHQ4aJEOCK+Z7s5s2biY/XWjmxx1t2Lsb3R82eAJxmHyG0TygA4LTXRDDDotdeiv7bmwsXr1D1et1p25YJduyeoj5VrNyVNq4aR1kyI+C5L8HM8OxxWIp1G9YL5zpq08kfT9CAvsHiDiXH1cycJTOVr1iBSpQqSWnSpqEb129Ql46d6NlT751Pf+sTdzR9xP5MlCgRfdb/cypY6G1/TcaY/xEfE23YhDh0Q9KkSaXZtaMh3sn7+eefiQFLS9q5cyd98803NHXqVLEzaETiHapUqVJRy5ba7jXv3r2b9u/fb/qjlUZo7KtO3tnmUCayQpMY0a/evXtT0aJFqVmzZkZU71edAE6/5EJmoxQAcBqlvD71mmHRq0/PjLX6zZJNtHrDTho1MsjYhhhYe+8+YVSnRjlq1riqga0wb9VmePb4WG3FihUpbMokAYdq0oxpM+jQ/gNUp15dAZmpUnt7ZN67ey+FfT2eePfIM7GzECVxOl1l2Mtkk+ZNacHc+cI5kGfZwkWLiNibstLa1Wvp3OmzNGzoUFkmbWvn7t27xCF2GBQ5HI2WtHbtWtq+fTuNGzcu4NDJwMCxXz/++GMtXRBl+ZgxOxyqWhXvPiVi8ocvdrQza9YsJdlNl4c/TE2ePFl8MLFCAnBaYZTQRuxw2mwOmGHRazNJRXd69BlLGTK+Ri1bVLNj9xT1ad78b+n3S7fo65HqHW8oqsiimczy7I0YOYJeePFFavGhtl2dmIZhzqzZtHzJMq9fvxI/PuXNl5dOnjhJT//vUdaVIaadTAbOxSuX0s0bN2nW9Jl05NBhtzdahtcxE76mjJnk7Iz1DOpOPbr3oJIlS1p0dgW22SNGjBDegWXs7jB0bty4kTieIoe00Dv98ccfIvRJsmTJNO/Sclv5aCV7pl26FGGh/Bm7Hj16UOHChalVq1b+FDM8L8/7Jk2aUPfu3Yk91FohATitMEpoI4DTZnPALItem8lKJcu3pSFDOlKe3M4NC3LypwvUv/8U2r9jpt2GV0p/zPLsnT17Viy05yyaJ3Z4ZKdeXXvQubPn3GYTJExATd9vTsVLFKPe3T+JFkIlV57c9EK8F+j06V9EyBNXcgGn679//OFHmjFlGl2/dl14xq1ctQp16tpZc/MP7j9ASxctoblz52q25RQD7GWWF93h4eEC3LQm9gw8ceJE6tevHzVs2FCruRjLHzp0iAYPHkz8LMqAZa5o+PDhVKNGDeEECUm5AhcvXhTejvneq+y4nMpb4X/OoUOHirBMWuK1+l+rthIATm36oXSAFMCR2gAJHcBq+GXJ6fnz5wGs1b5VXbt+m0qUbUv79k6xbycV9qxU6Y50YNdMSpsmpcISzslmFuBkxXlh/0aWjNTgPfmL+0Z1G4rdL068e/lxUGeq8m4V8d/NGjZx71Lyf/N9zB69e9KbWbNSUEfvECtRgdM1UzZ/t5lmTZ8hnBKNC59AmTJl0jSJBvYNpvr16pve06SmTupQmL26cogUrfcfXU3jDyF8xDJDhgwUFBREmTNnltZq/kDBRyA5JAvHEWVvzTLSwYMHhc2FCxfKMOc4G6wdh5Hhe8EJEyY0ff/5GDC3mT9OudZRpm80xyd+btLV3pQpU2jQoEF05coVK+iINuqsAIBTZ4ENMA/g1Cb68lXb6ZfTv7qN/PLLRTpw5CS9805+bYZtUHrPnh+oRJE89NZb/y4Wc+fKQvVql7NBz7R3wUzAyTED2WHKjLmziMFOVrpw/jz17f252MXk3dPP+velEqVKuM1/2rM3/XLqF/d/89+X8Bn/fqjZvXO3uPv55P9HbmMCTs7LIVemhk+hTkHadjj3791HSxYuRuxEFROAj6ayR9/g4GDKli2bCgu+i3CMRj6e2qBBA7GL+uabb6q2fe/ePRHzkQGhWLFiYldTxo6sq0GfffYZde7cWdyLRlKnwNdff02//vqrqeKy+uoJO7niuT5jxgzKkSOHus4aVArAaZDwqNY/BQCc/ullhdwATvWj9EG7UPrjjwfCQOmS+t83Ut9S40vu3X+c/v77H0qX7jWaEd7f+AYZ3AIzASdLwUcL4ydMQC1bfyBNmU3ffkdTJ00hvmMZPGgg5cmbx8v2ovkLif9xih8/PrXt0I6q1azuzjNl4mTatmWrgM7YgFNWg/n4b/t27alyZW1hYmS1x2p2Fi9eTN99953YMZeZGGbZsczWrVvF4r5ChQpUvHhxypo1a5zVXLt2jY4cOUIMCBx+g2GwevXqmsDVV6UMsrdv3yY+YomkTQEGOT4NERoaqs2QTqUPHz4sdt15V1/W7rhOTfVpFsAZSLVRl2oFAJyqpTNtQQCnuqHhnc2IuWtp9dJR6gw4tFT1ut2py8eNqE5N6wf61jKEZgPO69evU/0G9Wnk2NGUNVvcC3klfe/dvRddvXKVho0a7tOhDzv+GTtyDD148EAcp12wdFE0s10/7kKXfr2kO3CuXLaczpw6IxaRSOoV4J3y7NmzU+3atdUbiaXkgQMH6PvvvyfelecdSz5CnTZtWkqePLn4sMG73Tyfbty4QXy3lI9z586dW8T35GcuSZIk0tvFYWHYyREfseS2IGlXoE+fPpQ4cWLTQSeHu+nVq5fwRMzema2YAJxWHDUHthnAab9BB3CqH9P6TT6llYtHqDfgwJL1m/ShlYtHOrDn3l02G3By6xYtWkRbt22jQUO/kDY+N67doNRpU/u0d++Pe9SuVRt6Ts+pUZPG1KxF82j52OEQ7zwyTCxZ5e3tVlYjf714kTp36CSObmo5simrPVa2w5DXvHlz+vzzzylPHu8dbdn9un//Pl2+fFnsLPL9UYZLPrrNHy84REu6dOlEXE09E9fZv39/+vDDD3WDbD3bb2bbrCvftx0yZIg4AWF02rBhA4WEhBB7ZeZddqsm0wInuypet24dnTlzxqraot0SFeAvl7Vq1SI+Z49knAIcq4w9+clIrmMrso6vsGtwK7+MlWq6au1OmjpjJa1bMUZpEeQjoqq1ulLPrs2pZvXSjtbDjMDJA8J/87O9lZ0aNW0ckPFp0+JDunPnDkUsmBNjHMeVy1bQNwsW0cJl+sS5Y0dBFStUpPfffz8gfbZ7JbwwZ4+1X375JSVNmtTW3eV+pk6dmj799FNb99Oozo0ZM4bYm/CAAQN0/4ARWx95nPlYN8/pt99+2yg5pNRrWuBkb1vDhg2jH374QUpHYcTaCnBcLP5yyV8wkYxTgOGQnXmZMfEXQFnwasb+ebapXach9Pvv1+mVV17GHc44BovvcD5+/JRyZM9Ik8ZhcWZW4GQHgRy0vtdnvalI0SK6P4JBHbtQ0mRJadjIr3Svy1cFc2fNoVs3bopwFkjyFOAF+tGjR8V6wa6Jj9ByOI9JkybZtYum6NeKFSsEh/BxbVlekJV27PTp0zR27FjhNZd3XFOmtL7HddMCJ39Z4BcGX9ZGggKVKlUSf5iLFi0KMQxUgHc4+Z8ZE+9uOmGH06X9mvW76MTJ84qGYvjoOdSxXR1Fea2SKUGChJQgQQJFzS2QL7vjdzZdQpkVOLl927Zto6HDhtLwMSNF7GW90/179yiphPiN/rZz07ebaOXS5TR79mzb78T5q42M/PxRlO9ZdunSRYY5U9ng3S4+ZTR16lRKkSKFqdpmx8acO3dOnKx79OgRdejQQdzH1TOxozL2QDtv3jwBunbaZDEtcPKAVq1alfbu3SsGGsm5CvAFbvbI9e233zpXBPQcCmhQoErNIGreuCJVLF9IgxXzFP128yFas34frV+JI/b+joqZgZP7wqEjNn67kQZ/NZQSJFT2QcFfDYzMzw6LhgwaLALN582b18im2Lru3r1704svvkgdO3a0TT/ZE++aNWvEzqbM+KC2EUjHjqxdu5ZmzpwpnEU1btxYupdYdjbFO6p8upO9VTPc2s0RlKmBkwOxcjxOdiuN5FwF+G4ex5jiWFhI5lHg7t27dOzYMUMbxHMDKW4FNm89RO+3HkAN6pSlFCnke0uMuwXycty4+Qdt3HSQFs0ZTGXfsfadFnmqKLdkduDknowbN45OnDxBIYMHCWcsdkknfviRBvYbIDyLliuHuLB6jytDJydeP1g9MfAwcPJuG/u0QDJGAYZCDkXDMX55U6xs2bKq73jyGoo31fhkx+7du0U8WV7nyowna4xKvms1NXByk/lIxKZNm4jPMyM5TwH2NlejRg0aNQohIMw2+ny01uhA08+fPzebLKZtz/kLl2n9t3vp/n3vEyMzZ86gf/75x3TtZtBo27ZdtHYlS5aY6tYqS29kSGO6NluhQVYATtZx+IgRdO7cWeofMoBefuVlK0gbaxt/OP4DfRnyBQX370/VqlWzfH+s0gG+23/16lWxltQjNEkgdOBdL/ZnMnLkSMqYMWMgqkQdcShw/PhxceWPgZG9FefLl0/EauXxcYXL4Ssf/Hfszz//FCFzbt26Jbwb8zHdn376iX777TdxRJc/Pr377ruKr4hYdXBMD5zs+rlr164i9hHf6+SvCkj2V4CP0fJ9Tf4H2DTneHNMMvYsaWQy631SIzXxt+7x48fT/Pnz/S2me/5WrVrZ8g6W7sLFUYFVgJO7wZ4ijx0/Tp/2+5RSvvaa0dKprn//3n301eBhNHjwYLErghRYBSZOnCg2Lvh4bc6cOQNbuYba+DrZtGnTiEOI8dyxKjBrkMASRa9duyYYhaNqMETy8dizZ8+6eYXH77XXXqOsWbOKu+kcAonnodOO1JseOF2zbc6cOTRr1izxtYADRfOXAiR7KcCQyXGsOH7VSy+9RO3atcMxWnsNMXpjUgUmTJggYiHyBz6jE8c9ZEcJdnT4YbS2XL+VgJPby3cdV61eTT1796TcefWNr6jH+KxZuZoWzlsgvF2WLFlSjypgU4ECHGaPoY29jfKpKbMn9rQbEREhPlCw8xgkaynAf794k4xhk9ezvHHWrFkza3VCcmstA5yufu/fv198ReBgu0j2UoCPGPBiiI8lwButvcYWvYECUMAcClgNOFk1hgX2PNopqDNVr2V+WOA28zH1KWHhdOH8BdF23tVAMlaB8+fPi2OpPDZNmzY1peOdZ8+e0eLFi2nfvn3Up08fYg/9SNZTAMAZfcwsB5zWm3ZoMRRwhgL8JS8QCfc2A6Ey6rCrAlYETh6LU6dOiV3CNGnTUpsObehVE4eE+D7yKM2YOoMKFypE/fr1s+tUsmy/+AoBH7OtXbs21atXT8Q6NEPavHkzLVu2TIT34l1NPvWFZE0FAJwATmvOXLQaClhAAQCnBQYJTXS8AlYFTtfAMShw4PsP27Y23W4nOwZZOHcB7d29h3r27AnnQCZ+2vieHd+P5HBrderUoerVq4srPUYkjsSwYcMGcc+vffv2VLhwYSOagTolKtCrVy/heZbXRXwVsHv37jhS+9yC2wUcGJU9j126dEl8pfIMfstnpvmLlSuFhYVRw4YNo00jvtDLF8j5i2mxYsW8fu/rd1HtcoFVq1Z5lR07dqyww39oOPkq46qIva9yyBe7uj+W+NzCFBSAAlAACkhSwOrAyTL8+OOPFB4eTvfu36OGjd+jkqVLSVJHvZnlS5bR4kXfUJ3adUQYDqPgRX0PnFmSr2hxCD4GPr4vybuLWbJk0V2MP/74g9jpHYfESJ8+PbVo0UKE2ECyhwL8MWP27NnC30zq1KlpyJAhjh9fyx2pdcEge4TiF4MncPLv2KPp0KFDBYTGBpUuaE2XLp0bEF3TnGPsHDhwQNy7YLfGDJJ8h8QTEF0w6Qm0UYHT87Hh/Pz7qIBsj0cLvYACUAAKQAErKGAH4HTpzJ5HI2ZHEDuaqlG7FpWrENjYlvfv36eN6zbQ2lVrhN+B1q1b01tvvWWFaYA2RlHgypUrtHLlSlqzZo1YP/J48k6jzDAkHHeRvbsfOXKEDh8+LJwXNWjQgAoWLIjxsKEC/C7gkI68QRYaGmrDHvrXJUsBpycklilTJk6Ac+XnP7C+djkZLJcuXeoFgVHLMLQGBwcL72ZRdyOjlgdw+jf5kNu+CrB3vYsXL0rpYPny5cXHJSQoAAW0K2An4HSpwXffFi9ZQpcv/04VK1eisuXLUcZM+sUr/P7o97Rz2w7a/N0mcRyzcePGlDt3bu2DAwumUIAd9vDu4549e4gPAXIICw5pkSlTJrEbmTJlyjjbycerOf4nn8RjZ0UMHhyDkT0V89+zypUr2z7uYpwi2TwDj/OOHTvELjbWMESWAk5/dwzjAs47d+4I1/t8BNZ1rDYqYEbd7fRsQ9QdVACnzd8e6J5iBVwvWsUFYsmIr4MyVIQNKPCvAnYETtfY8smn9evXEwNoipQpqFCRwpS/YAHKnSc3xY8fX/UUuHXzFp348QQd//4YHT50iFKnTkPVq1WjmjVrKoIP1RWjoOEKMCweP36c2Is+QyMDJB+H5V1QjovJ8+rFF18Unm/ZwyzHzuSdTP5ZhgwZxEZFrly5KH/+/FSgQAHD+4MGBE4BAKe31rYGTj7G2rdv31jvSkaFRF/HaVky171MT/miAiuAM3APMmoytwK8w3nhwgUpjeSXNr4OSpESRqCArYHTc3gjIyOJw6jx0UW+85k5c2bKlDkTpXv9dUqVJhW9+uqrlChxYor/yisU74UX6O+//yb+SP3g/v3/tXc/oXac9f/Ax12yELkFYySGLOKqEBAlBqRgi3ahgoGQIi6CIkow9y5STKiJwZASEuGmfxb5Y4pgbRZCCQUXLaibukyLQikGF3YRYkpoIAG7SEUXXz7nx3N+z5k7c86ce8+dnDnzOiCm586Zmef1zJ173vP8Kx7cf1Dc++ij4sM7Hw6WNfnPf/4z6PYYD6a/9rWvzeVyGi7t9gT++9//DsbmRZfqhw8fDq6dmBgmwmeE0AijZphtrz7m9UgCZ08CZwqDBw8erOxOmxjysZUxNXa0puRdcMeFSIFzXn/NnRcBAgQIVAkscgtnXY1Ht8hYViVaq/71r38NujpGl//opRQtU/krQuW2bduKz3/+84MulNFC9YUvfMHFRIAAgakEBM4eBM7UlTaKmib+qbtK8tAY/fLL4zUndanNt9fCOdXvoo17IhAtndOO54zWhGiB8CJAYLYCP/rRj4q///3vw53+5je/GXT369vrnXfeKZ577rlBF8j8FWOuYrJALwIE+inw1FNPzaTgMUFUdK/+0pe+NJPvM/G96OWXX57JuT2KnSxcl9ppwmYCT0ExutzEF+O8++y4brnTdL81S+2juLwdcx4EYna2ePAzzcsg+2m0/t+26eFZTHYRr+PHjw/uZXGfWllZqdxhPtN32q5qKam4R66uro7sIy0L1WT5p/hgLEMVY+zyVzpW1T7S+U8v4RPjBF544YXi9ddfH25y9OjR4vvf/37v0ATO3lW5AhNoJNDWmuKNTibbKCZQTH/fp/3sPGy/UIFzPWEzKiH/slNeW7Nuzc/0mXx7LZzzcEk7h3kTiPGc8b9pXvEUL54KejUTqBpC8MorrwxmQsxn167rsRH3uVhSKl4xLqncM6RqjeGq8fF1D9bGzfad7sH5slFNh0Q007FVLhBLP8T60+kVs29GK2ffxpwJnIvxe5G+o8VSI+W1zdPPrl27NixseQ30fKm98ve/9KH0MO7QoUNr7o3pXhXbpmXvmjzkS38Ty/ODlO+hTR7GVT0QLC8buBi13U4p5jXURa+vLn8v6lzgrPrFSjeQ+/fvF/v3719zRU76xau6YZR3Uj5u1T6rzi09pdfC2c6NwlEI9FFgUqDLvzjlawyn9+P+FEtERWvX888/Xxw7dmwkqJYDZ90M4LMKnHFe44Yz9LGOZ1XmGMv44x//eDCjZnr95Cc/GbzXp5fAuRi1Hfe+eLj273//u3j66adH5uyouk+Vl7NL987Q+OpXv7pmgsi0j5iZ9jOf+cyawJnunTF7bb7iwaR7bl0DRVXgnPQwblxjx2LUslIsgkDnAucioCsDAQIEZimQHprFhCdVM2o3+fITQwpiveL48pL+nT5X/kJT1wI5y8AZx4zJXSaNw5+lY1/29etf/7r47W9/O1LcWNs6WnA+97nPDSbMWfSXwLkYNZzuVzt37hw8NMvvF1WBszzZYwqcP/zhDwc9ccprrqd7WjQyxLZV+4/JKSNwlodkjXtwtt7AWbVPgXPzruVphwPN+kwWaR1ygXPWV4f9ESAwVqBuQH6M2/Rav0DeNaxu/GNVq2F8ATtmgZrqAAAcuUlEQVR58uSwVbMqNFYtHxVf7lIXsnTW4wJneQxn3j2t/LnyGsfrV/HJOoHvfe97M1u6aJGU//SnPw1asrzmXyC/d8Wkj/l9LM6+KnCW7y0pcMYEkK+99trIKgWxjxRo49/l3iHx2RiKcO7cuSJ62KV/x7IoTR7yxTZNutTmLZzpnPKHcQLn5l2rj3o85yKtQy5wbt51as8ECFQI1N3AY+kCr40LpDE/5bFKseeqwJm6hKUn9+UWgPQFJ580qGosU2y3kRbOfDhE1blvXMYeygI/+MEPin/84x+9h4l7z2c/+9nBer/xsMarGwLle1eTrv/lnhP5cIT33ntv0EqaHqSVf1YOnHE/Ta2adcMM6oYGrLeFs+ph3LhJ3bpRk/N7ljHp4aN8LdI65ALno7ySHJtADwXqBuTHjdVrNgLpy8/27dtHnqBXffmp+rISZ5G3kuZfjsZ1391I4Myf4se/Y1/lFtTZ6NhLLvC73/2uuHz5cq9RvvKVrxTf/OY3x67Z3WugOS18uft/+f5TNWlQufdHHiqjlXR5eXk4FjMPlOV7Z9p3dKeNoQx1D/RmETgnPYzTwjmnF6jTGhEQOF0QBAgQWECBqi865ffqJhsqf3EzS+0CXiBZkf74xz8Wf/vb34oPP/ywuHPnzuB/fXpduXKl+PKXv9ynIne+rOVloPICpdlmy62OqXXwyJEjw4cL5XtgutfFmM5y+MxbOPMhDPmxy70zZhE4Jz2MEzjbuZzXs6b4es5sUdchFzjXczX4DAECBOZIIH8SH6dVN6lP+ctP3ZehcrfaJl3V4rizauGsay2YI3KnQoDAIxRoEuSmmaU2TRaU1l6PwPn+++8PJwlqsu563fGqZgavO//y++V7atW9XeBs50Jcz5ri6zmzRV2HXOBcz9XgMwQIEJgzgXLX2IsXL67pIph/mYnTjwkJ9u3bV9mVMB/rFC1A8conuCgvLzApcJYnDYrt0zlWBVUTB83ZBeZ0CMyJQN14yfI9aOvWrWvucXWz1KbAmXfDze+h+b3z4cOHI62fOUvTh3p1ra1xn4x1clM33ap7Y5PwOydVtVCnsZ41xdcDsKjrkAuc67kafIYAAQIECBAgQKB1gXHrDuctgN/+9rcrH6rlD9Oi+3jMUJsvh1L1MC0PedHyWZ45NiGUH5SNW0+43C24arK0Jg/jqsbhT1p/vvVKc8DeCwicvb8EABAgQIAAAQIECBAgQGBzBATOzXG1VwIECBAg0GmBtMROXoiqNV6rtksTt6TPjlu6YdwEMPH5qu7haX91S/Tk+yyfS9XxUrmqZjatK3+0Xq2srAx/XG6hqtqXJX86/Svh5AkMBKJ7bczwPatXH9YhFzhndbXYDwECBAgQWCCBuglLYnxZGs8bwe/NN98srl69WuzevXtQ+hRA86DYdKbjqnVgq0hjf++8887gR3l3yLRtnMOLL75Y3Lt3b82YuFhmIj+3dMydO3cOJ4mJ/dSNFUzv3759e2TpnhRA62ZJjX1WdddcoEtGUQj0QmDWEwj1YR1ygbMXvxoKSYAAAQIEphOom7Dk+vXrg6B1//79NePf0hHKwarpTMfTBM68NPmEVikQRgCOdX/jZxGSx002UzVJVd32dbMxx/nk4wPjv8sTczUt33Q1ZWsCBNoUiCVS4n+zevVhHXKBc1ZXi/0QIECAAIEFEpg0Q+Zbb71VVC35EATlAFcOnHVL9zQNZGl/TzzxxJoJXOLYFy5cKKKbbEwIkwLnuMlmUrjcvn37sPW2LnCOW4YiLasRLb47duxYEzjNvrxAvyCKQoBAY4FOBc66sRXl8RlR+vRHK/4dT2KXlpYGXVny8Ra5Ujxd+Na3vlU899xzlXhpxq/ot726ujqyTT4b2LhxKnV/aHSxaXy92pAAAQIEWhKYtAbguOA1aS3Xur970wbOWC9xeXm5OHjw4HB5n3Re6WcpcI5rmQzSJq2w41pJU9BOs55WBc68BXTLli0t1aTDECCwmQJnzpyZavdf//rXiz60auYonQyc+bpx8Ufr8uXLI+NHooDxhyW6/cQYi/THJi/4uKmqY7smiwpXXV2TxqmU/9jUPeWd6sq1MQECBAgQmLFA1WRA48Zl5oevCpz5w9pJk/1U/d3O95//rS2vkXjy5Mni2LFjxWOPPTayXuKjCpzXrl0bnnrVpEszrja7I0CgZYFPfepTUx0xutrHONA+vTofOMeNu4gnnhE4b926NbJg+bhAmSp/VoGz/DS0ao2mNB4mWmG9CBAgQIDAPAhMCmjjHtyWu6/mATGF0XzyoVTeaVs4I5jmx3rvvfeG3XwfPnw4EjibdKnNH2ivt0ttWqNx69atI11q09//I0eODFtj56GenQMBAhsTmDY8RuumFs6NmW/qp6tu/lXdctL4jXPnzg0mNYixHPHvPNC11cJZ1YKZWjmPHj1a/OxnP6tsgd1USDsnQIAAAQITBCYFzny8Ypqhtu6h7aTePxsJnOm7wac//eni448/HnSvjTBbDq/jehRVhdG6wDluGExezqbfWVyIBAgQWHSBTrZw5t1TooLKa3TFH4PUqjnuD0bdZAexz3EtnOUxnPkY0vIf1ao/TPnT3bt3745Mw77oF5zyESBAgEA3BCYFzrrlQVJX3HF/G+v+Nq+nhTM00zHzORWq9lVeuiQ+W9fiOukcy8uolIf4VH2+afm6cYU4SwIECDQT6GTgzLu8lLuopBt8esJZFx43s4WzyTiVqj96zarMVgQIECBAYPMFJgXOdAblyfLy0JdvE//Oly8Z90B2mjGceWjMJw+qC3dVY1OrJh8cN0FQ1SSG5XGp47rketi8+devIxB4FAJx//vLX/6y5tB9HLeZI3Q+cJYD5Z07d4rDhw8XN2/eHKnsxx9/fGRioc0MnOmP6rhxKk3/kD+KXxbHJECAAAECBAgQIEBgOgGBs9pr4QLnlStXBiWtWgS6PLvtervUlvef0zYdpyJwTvcLbGsCBMYLpAdcsdB9vKpmwywvDVV+EBefq1vqom5ZqtSqkx72bdu2bbgUVexvUrfEdL5V51weV5d6tJQfKFa1TrleCBAgQIAAgfkQ6HzgzCcBeOqpp0ZmpMuJyy2abbRwjvuyJXDOxy+AsyCwCAJVk6G88sorxTe+8Y0iJnOpG2tX1bV/UuDMH9zldnkYzMNuVeBMXRrz8fepDPm4uKrAmdY4TJPUpH1ZbmIRrmRlINCuQFX36vxeMm5m43Sm61n3PdaHn7Sue7sSjkZgcwU6GTjrJg0aF+KqliNZbwtnedKgfLxK1Ze1qnEqAufmXtj2TqBPApO+FI2735TXBt5I4Iww+J3vfGfwRerq1asjYTcF1XHj4sr36SaBM+p53GypfboOlJUAgekEyvfG8lCoSffWdP9Zz7rvdffa6UpgawLdEOhU4OwGqbMkQIBAuwLjxovHmYz7YlMOaxsNnBE6X3vttWL79u2DoQ1VaxGXWymTVto2fbZp4BwXYtutCUcjQKBLAlUP4/JGglhar+5+FeXMJ6qcdt13gbNLV4pz3aiAwLlRQZ8nQIDAHAhM06U1P91yqJsUOPMeJvkY0Hw/sf+YvO38+fPFnj17ipidL7VwTurdkR+/aeCcFKrnoHqcAgECcyhQFzhTD7gYmz4ucG5k3XeBcw4vCKe0aQIC56bR2jEBAgTaF0hjklIY3LFjx0jgK5/RtIFz3BjO/ItZ6qr785//vPjVr34lcLZ/KTgiAQITBOq61KbldSZ1qd3Iuu/l5YTiVE2A5pJdVAGBc1FrVrkIEOitQLlr6qQutfHzmMRiaWlp4iy1TQNnanH95S9/Wbz55pvDwDnuC9yk7rd1n9WltreXuoIT2JBA1aRB+WRmTe5X6133XQvnhqrOhzsmIHB2rMKcLgECBJoI5DNxv/XWW0VMapFCZf758peeSV1qmwbOOEacw5///OfB4Z5++uniwIEDRdWMuul8JnWhrfvyN6kVoomXbQgQ6J/ApC7+4+4tdcs0NV33XeDs3/XW5xILnH2ufWUnQGAhBPJuXVGgcqirWnIkBcLLly8PZ5SN92YZOPO1QfNWg6rlWKomPpoUQON805e+I0eODAKtFwECBJoKbCRwVt0rq3pb1C3DJ3A2rSXbLYKAwLkItagMBAj0XqA8HigPeIGTvgjlk/4cOnSoOHPmTLFly5ahX9W4oliX7qc//elgLGh5Waq0j7rJNVK4LJ9PVVe28vilqsAZkxHdvHlzeL7l1oTeXwgACBBoLLDewJkekMVM3Hv37h05XtN13wXOxtVkwwUQEDgXoBIVgQABAgQIECBAYDqBJoGz6iHXyspK8frrr1cOU2i67nvVw718XffpSmJrAvMtIHDOd/04OwIECBAgQIAAAQIECHRWQODsbNU5cQIECBAgsHkCVd2ey92wp1naoa57dSpBeRKWvLt0VUtUHDvej8mwtm7dWtvl+7vf/W7xzDPPVELpkr151489EyBAIAkInK4FAgQIECBAYI1A3RqFMWYtxq7FqzwOLT5z4sSJkYmoYrsYQ3zhwoXBZz7++OM1Y4dTuM3H8UYA/f3vf18cO3aseP/99wfHSjMtl4/TdGmcSV0oXQYECBAgMHsBgXP2pvZIgAABAgQ6L1DXqnj37t1hYCwHzrrgF/uKpXmOHj1aPP/884MQuXv37oFRk7CYn8v9+/eLGFd3/vz54YQtTfYRxxI4O39ZKgABAh0UEDg7WGlOmQABAgQIbLZAXQtnLHSflqApB866dVZju127dg0+l/87ytBkHdV0LmfPni1OnTpV5OfQNLQKnJt9xdg/AQIEqgUETlcGAQIECBAgsEagagxneRbNcuCMcZrRkpm6vsZOI4SePHly2KpZDrJNWh3zc4llelKX3nTSVcv+VI3PbHIslwIBAgQIzFZA4Jytp70RIECAAIGFEJg0Uc/S0tKgtXJ1dXVY3qq1XVN32rTma3kNwyYhMG0TgTeWo7h69eqwS24cXJfahbjkFIIAgQUVEDgXtGIViwABAgQIbESgKgiWw2Lewpl+lk8qFMevmsk23k8tlXUTDeXnnp/Lq6++WuTjSAXOjdSyzxIgQGDzBQTOzTd2BAIECBAg0DmBaQNnFLAcHuvGZ+b7js8tLy+vGZdZFzjT9nmw1cLZucvLCRMg0CMBgbNHla2oBAgQIECgqUBV4CyP0Zw0S21sf+PGjTXLoJRbStManeVlUWIplXPnzhX//Oc/R5ZFSWt2HjlyZDARkcDZtFZtR4AAgfYFBM72zR2RAAECBAjMvcB6Jg2KQqVQ+sILLxQvv/xysW/fvuGstnmhI6zmXWPLx8sn/akLv5cvXx6M59yxY0dx+vTp4tq1ayOu5TGlTcaLzn3FOEECBAh0TEDg7FiFOV0CBAgQIECAAAECBAh0RUDg7EpNOU8CBAgQIECAAAECBAh0TEDg7FiFOV0CBAgQIECAAAECBAh0RUDg7EpNOU8CBAgQIECAAAECBAh0TEDg7FiFOV0CBAgQIECAAAECBAh0RUDg7EpNOU8CBAgQIECAAAECBAh0TEDg7FiFOV0CBAgQIECAAAECBAh0RUDg7EpNOU8CBAgQIECAAAECBAh0TEDg7FiFOV0CBAgQIECAAAECBAh0RUDg7EpNOU8CBAgQIECAAAECBAh0TEDg7FiFOV0CBAgQIECAAAECBAh0RUDg7EpNOU8CBAgQIECAAAECBAh0TEDg7FiFOV0CBAgQIECAAAECBAh0RUDg7EpNOU8CBAgQINCiwLvvvlu89NJLxaVLl4qlpaU1R37w4EGxvLxcvP3228OfHT9+vHj22WcH//3GG28U169fX/P52Ofdu3eLM2fOFFu2bBl+Nt6PV3w+jr1///41x/zDH/5Q7N27d3Beq6urIz9PP2uRyKEIECBAoIGAwNkAySYECBAgQKBvAuMCZwqEFy9eLA4cODCgSQF0586dgzB5586d4tSpU8XZs2eL3bt3j2zz0UcfFVevXl3zfoTNCJSTwm4eTmPHsf2JEydG9tm3+lJeAgQIzKuAwDmvNeO8CBAgQIDAIxSoC32ffPJJcfr06WLfvn3DsJlO84MPPigOHz5cnD9/vtizZ8+a7eLnEULj9cwzzww/n95P4XTawDnunB4hoUMTIECAQFEUAqfLgAABAgQIEFgjUBf6yuEw/2AKftu3bx90jS13n41utrdu3Sp27do1+P+8++2NGzeG3WynDZypdfXgwYNrQrCqJUCAAIFHKyBwPlp/RydAgAABAnMpUBf6pgmD+bZbt24dtnhGt9t8fGj8O0Jo6p5bNYYzHx9a7lJbN150LmGdFAECBHomIHD2rMIVlwABAgQINBGYReBMLY/RkvnFL36xOHnyZHHs2LHiscceG0w4VH4/jfVsEmrzSYMOHTq0ZhKiJmW0DQECBAhsvoDAufnGjkCAAAECBDonsJEutfn4ztQa+cQTTwxmrU2z06ZWzXJrZ0A1CZyxXQTWFGpjsqHURbdz2E6YAAECCywgcC5w5SoaAQIECBBYr0Bd6Bs3XrJqfGd0d43xmTGJ0L1799aM2yy/P23gTNubpXa9Ne1zBAgQ2FwBgXNzfe2dAAECBAh0UmBcK2OEyJWVlSJf+7KupTHNXHvz5s2R7eveX0/gNEttJy8xJ02AQE8EBM6eVLRiEiBAgACBaQSqJu558skni0uXLhVLS0uDbq/79+8f2WUeQNMPUhj861//OrJOZnr/9u3bw32mz1TtO36W9l+eNCh+ZuKgaWrXtgQIEGhPQOBsz9qRCBAgQIAAAQIECBAg0CsBgbNX1a2wBAgQIECAAAECBAgQaE9A4GzP2pEIECBAgAABAgQIECDQKwGBs1fVrbAECBAgQIAAAQIECBBoT0DgbM/akQgQIECAAAECBAgQINArAYGzV9WtsAQIECBAgAABAgQIEGhPQOBsz9qRCBAgQIAAAQIECBAg0CsBgbNX1a2wBAgQIECAAAECBAgQaE9A4GzP2pEIECBAgAABAgQIECDQKwGBs1fVrbAECBAgQIAAAQIECBBoT0DgbM/akQgQIECAAAECBAgQINArAYGzV9WtsAQIECBAgAABAgQIEGhPQOBsz9qRCBAgQIAAAQIECBAg0CsBgbNX1a2wBAgQIECgucBLL71UrK6uDj7w5JNPFpcuXSqWlpaGO3jjjTeKlZWV4X8fOnSoOHPmTLFly5bi3XffLfbv3z9ysOPHjxfPPvvs4L1PPvmkOH36dHHt2rWRbdI+rly5Uty9e3e4v/wz27dvH+4nf3/fvn3FgQMHmhfQlgQIECCw6QIC56YTOwABAgQIEOieQITNPPBFgLx9+/Yw0MXP4708hEYAjVeEvvhZbJN+/uDBg2J5ebk4ePDg4OcpcNaFxPLnY78ffPBBcfjw4WLbtm0jx433T506VZw9e7bYvXt397CdMQECBBZYQOBc4MpVNAIECBAgsB6B//3vf8UvfvGLoi4MNgl4VYExAumNGzcGrZbxihbOumOkgBotonv37h1sH/t88cUXi3v37hXnz58feT8Pt+sps88QIECAwOYICJyb42qvBAgQIECg0wJVLZipQHlwjO6zVa+qwJm3mk4KnKkFNO8+G5/ftWtXcevWrcH/p+6z8X68UnfdTsM7eQIECCyYgMC5YBWqOAQIECBAYBYC+RjL8vjNJgGvHDhTd9jUMlk1hvPxxx8vrl69OuwWmwfbhw8fDrrkRqiMrr3lltLoqptaQmdRfvsgQIAAgdkICJyzcbQXAgQIECCwkAKpa+vbb79dXLx4cdCq2DRw5pMGlcPkpDGcgZl33Y3/vnDhQnHu3Lni/v37wzGb+fv5hEYLWRkKRYAAgQ4KCJwdrDSnTIAAAQIE2haI1sbr168PJut59dVX18wgWz6fcgtnuYtuk8CZbxP7j6600cKZ3o9Wzby1s657b9tWjkeAAAEC/19A4HQ1ECBAgAABAhMF8tbGaGE8ceLESPfXSYFz2llq0/5Sa2r8d9W4zfL7EwtiAwIECBBoVUDgbJXbwQgQIECAwPwLRKCMWWqj+2rqplo14U+0LpaXRUmtkBudpTYppfU8y11y696ff11nSIAAgX4JCJz9qm+lJUCAAAECjQRSoEsbHzp0aLCcSd5tNULo6urqcH/5NuPW0YyJg/bs2TNYFuXatWsj51M+TmoZjY3ycJve37lz55rzalRAGxEgQIBAKwICZyvMDkKAAAECBAgQIECAAIH+CQic/atzJSZAgAABAgQIECBAgEArAgJnK8wOQoAAAQIECBAgQIAAgf4JCJz9q3MlJkCAAAECBAgQIECAQCsCAmcrzA5CgAABAgQIECBAgACB/gkInP2rcyUmQIAAAQIECBAgQIBAKwICZyvMDkKAAAECBAgQIECAAIH+CQic/atzJSZAgAABAgQIECBAgEArAgJnK8wOQoAAAQIECBAgQIAAgf4JCJz9q3MlJkCAAAECBAgQIECAQCsCAmcrzA5CgAABAgQIECBAgACB/gkInP2rcyUmQIAAAQIECBAgQIBAKwICZyvMDkKAAAECBAgQIECAAIH+CQic/atzJSZAgAABAgQIECBAgEArAgJnK8wOQoAAAQIECBAgQIAAgf4JCJz9q3MlJkCAAAECBAgQIECAQCsCAmcrzA5CgAABAgQIECBAgACB/gkInP2rcyUmQIAAAQIECBAgQIBAKwICZyvMDkKAAAECBAgQIECAAIH+CQic/atzJSZAgAABAgQIECBAgEArAgJnK8wOQoAAAQIECBAgQIAAgf4JCJz9q3MlJkCAAAECBAgQIECAQCsCAmcrzA5CgAABAgQIECBAgACB/gkInP2rcyUmQIAAAQIECBAgQIBAKwICZyvMDkKAAAECBAgQIECAAIH+CQic/atzJSZAgAABAgQIECBAgEArAgJnK8wOQoAAAQIECBAgQIAAgf4JCJz9q3MlJkCAAAECBAgQIECAQCsCAmcrzA5CgAABAgQIECBAgACB/gkInP2rcyUmQIAAAQIECBAgQIBAKwICZyvMDkKAAAECBAgQIECAAIH+CQic/atzJSZAgAABAgQIECBAgEArAgJnK8wOQoAAAQIECBAgQIAAgf4JCJz9q3MlJkCAAAECBAgQIECAQCsCAmcrzA5CgAABAgQIECBAgACB/gkInP2rcyUmQIAAAQIECBAgQIBAKwICZyvMDkKAAAECBAgQIECAAIH+CQic/atzJSZAgAABAgQIECBAgEArAgJnK8wOQoAAAQIECBAgQIAAgf4JCJz9q3MlJkCAAAECBAgQIECAQCsCAmcrzA5CgAABAgQIECBAgACB/gkInP2rcyUmQIAAAQIECBAgQIBAKwICZyvMDkKAAAECBAgQIECAAIH+CQic/atzJSZAgAABAgQIECBAgEArAgJnK8wOQoAAAQIECBAgQIAAgf4JCJz9q3MlJkCAAAECBAgQIECAQCsCAmcrzA5CgAABAgQIECBAgACB/gkInP2rcyUmQIAAAQIECBAgQIBAKwICZyvMDkKAAAECBAgQIECAAIH+CQic/atzJSZAgAABAgQIECBAgEArAgJnK8wOQoAAAQIECBAgQIAAgf4JCJz9q3MlJkCAAAECBAgQIECAQCsCAmcrzA5CgAABAgQIECBAgACB/gkInP2rcyUmQIAAAQIECBAgQIBAKwICZyvMDkKAAAECBAgQIECAAIH+CQic/atzJSZAgAABAgQIECBAgEArAgJnK8wOQoAAAQIECBAgQIAAgf4JCJz9q3MlJkCAAAECBAgQIECAQCsCAmcrzA5CgAABAgQIECBAgACB/gn8H4DMNPsWlKW2AAAAAElFTkSuQmCC;clipPath=inset(3.46% 31% 75.77% 46.33% round 50%);" parent="1" vertex="1">
          <mxGeometry x="791" y="94" width="138.52" height="110" as="geometry" />
        </mxCell>
        <mxCell id="kWzljJYtxSuuumgWQ70q-2" value="" style="shape=image;verticalLabelPosition=bottom;labelBackgroundColor=default;verticalAlign=top;aspect=fixed;imageAspect=0;image=data:image/png,iVBORw0KGgoAAAANSUhEUgAAAN4AAACsCAIAAACb74UqAAANWklEQVR4Ae2dW2gTzx7HbWzVo1jjPZEWQaEogsXaphcVj0RBkaoUlaYVLyi1irTipYhU+yBVUQiIIPWC+ihoBBEPFXwQKT7E+qKUKo0cUaxgJWgp9kHKnv9xzn+YM7ObTC6d2ex+F/kz89vZuXzmk9nddDf/CYba7dOnTwFmGx4eVtu+fVv7d0fH8wkTyL93e/fat6OqejZBVUP/awdqWgGHmhwZqMkB0ZaFmhx6qMkB0ZaFmhx6qMkB0ZaFmhx6qMkB0ZaFmhx6qMkB0ZaFmhx6qMkB0ZaFmhx6qMkB0ZaFmhx6qMkB0ZaFmhx6qMkB0ZaFmhx6qMkB0ZaFmhx6qMkB0ZaFmhx6qMkB0ZaFmhx6qMkB0ZaFmhx6qMkB0ZaFmhx6qMkB0ZaFmhx6qMkB0ZaFmhx6qMkB0ZaFmhx6qMkB0ZaFmhx6qMkB0ZaFmhx6qMkB0ZaFmhx6qMkB0ZaFmhx6qMkB0ZaFmhx6qMkB0ZaFmhx6qMkB0ZaFmhx6qMkB0ZaFmhx6qMkB0ZaFmhx6qMkB0ZaFmhx6qMkB0ZaFmhx6qMkB0ZaFmhx6pWr29/c3Nzczv2EYOHLkyNevX7k+uTDb2dnZVVX1r8JC8q+rquro0aMu5MAOWbWalZWVc5gtEAhATcMw/lLT5/MxYOaEQiF2nlyY1qDmBGaDmsQ5oiYF4/V6oSbUtMV6BDXFaYCaIhMNEagpQoeaIhMNEagpQoeaIhMNEagpQoeaIhMNEagpQoeaIhMNEagpQoeaIhMNEagpQoeaIhMNEagpQh8XNcfGxn6abb29vYFAIJ/ZKioqBgYGzMq6K9bR0eHz+SgYr9e7c+fOlBCIU5vrkWyq+fjx43PnztXW1q603sqEzbqsi/YIVMpKS0tTGn8gENixY8fly5dfvnyZ61KS/mdHzaGhodbW1tWrV8+fP7+wsDA/P5/+zQ0JNQQmTZrk9XqXLFlSWVl58eLFsbGxXBc0C2q+ffu2urq6qKgoLy9PzTSglQQECgoKSkpK1q9fPzQ0lNN2ZkHNurq6efPmJYCFXeoJFBUVHT582NVq3rhxo6KiQj16tJiUQFVVVSQSyV07M101a2pqpkyZkhQTCqgnMH369NraWpeq+fHjx8rKSvXQ0aIMAY/HU1ZWNjIykqN2ZrRqdnd3L1++XAYTymghUF5e/urVKzeq2dXVVVxcrAU6GpUhsHTp0vv377tUzYULF8owImV8Pl9DQ0NnZ+f169evXbvW0dGxbdu2qVOnytfg7JL5+flz5szJIpBly5ZBzSTOrFix4t69e6Yf39+/f1+7dq2oqChJFc7dvXnz5tu3bw8MDFA+g4ODDx48aGxszHDQUDMJwBMnTlDoVomRkZHdu3cnqchxu9esWdPT02PFxDCMvr6+rVu3pj1uqJkI3aVLlxKg53YdO3YsUV3O2if/lfiZM2fSGzrUtOR28uRJTr6k2YaGBsvqHLTj0KFDSVGwBc6ePZvG6KGmObSVK1eycCXT379/nzVrlnmNTomuXr1akgZbrK6uLlUAUNOcWNr3hhcuXDCv0SnRFy9esM5Jpt+9e5cqAKhpQqy4uFiSuFjs69evJjU6JbRp0yZxyJKRPXv2pIQBaprg2rt3ryRu02LV1dUmlToidPPmTdMhywQfPXqUEgOoaYLr8uXLMqytyjQ1NZlU6ohQX1+f1aiTxuPxeEoMoKYJrjt37iQFnaBAejekJv2wXyjBqGV2zZ07V35MUNOE1e3bt2VAW5Xp6OgwqTT3Qx6Px2rIkvHFixfLY4CaJqzOnz8vydq0WHNzs0mljgiZjlc+6PP55DFATRNW9fX1Vrjj8XgoFPL/2YLBYCwWE0vW1NSYVOqI0Js3b8Tx0sjo6GhbW1s0GqURNjE8PJwSA6hpgmv27Nks05TSg4ODJjU6JfTXI1cJaCRW88mTJylhgJrmuNK+Ezp37px5jY6Irl+/Pm019+3blxIDqGmOq6SkJI23oT9//jxt2jTzGp0SffbsGWcne5FDLnXIf9kzO/4axEFLlO3q6kr8KPHBgwcTHW+2b8uWLU4x0HIcgUDAbOj/jSU4oW/bts2yRosdWDUtwPwJt7e3W02DGD9w4ECiuhy078CBA+LwE6h5+vTpNEYPNZNA279//69fv0xngga/fPmSyTOzSXpgy91NTU10+DRhumqeOnUqvRFAzeTcioqKrly58vPnTzoHNPHt27fz589Pnz49eS2OK1FTU/P8+XOKQkz09vZu3Lgx7XFDzRTQrVu3rqWlpfPP1tLSsnbt2hQOdmjRjRs33rp16/3791TNgYGBu3fvpnFxyRGCmhwQZNMk4PF4Zs6cOXHixDSPFw6DmgISBOxBAGraYx7QC4EA1BSQIGAPAlDTHvOAXggEoKaABAF7EICa9pgH9EIgADUFJAjYgwDUtMc8oBcCAfeqef369cRPHgmsEFBKAGoqxY3G5AlATXlWKKmUANRUihuNyROAmvKsUFIpAaipFDcakycANeVZoaRSAlBTKW40Jk8AasqzQkmlBKCmUtxoTJ4A1JRnhZJKCUBNpbjRmDwBqCnPCiWVEoCaSnGjMXkCUFOeFUoqJQA1leJGY/IEoKY8K5RUSgBqKsWNxuQJQE15ViiplADUVIobjckTgJryrFBSKQGoqRQ3GpMnADXlWaGkUgJQUyluNCZPAGrKs0JJpQSgplLcaEyeANSUZ4WSSglATaW40Zg8AagpzwollRKAmkpxozF5AlBTnhVKKiXgXjVv3bq1ePFipbDRWCoEli9f/vDhQ/p/ysqtxIRMutvT07NixYpUWKGsUgKBQKC/vz+TKdZ4bEZqDg0NlZeXK4WNxqQJFBQUlJeXa3Qrw6YzUtMwjA0bNni9XmlcKKiOwNy5c3ft2pWhHxoPz1TNp0+fVlZWejwedcjRkgSByZMnl5eXv379WqNbGTadqZqGYRw/fnzRokUSuFBEEYG8vLzS0tKrV69mKIfew7Og5o8fPxobG0tLS6dOnaqIPZqxJjBjxoxAINDa2qpXrMxbz4KapBN3794tKysLBAI+n6+wsPAf2NQS8Hq9CxYsqKmpWbVq1ePHjzM3Q3sNWVPTMIxYLBaJRNrb22tra/+JTS2B7du3X7x48cmTJ0NDQ9qtykoHsqlmVjqESkCAEICaMMGmBMZFzWg06vf7I5EIO+hwOOz/e+N2GYYxOjra1tYWDofZQwzDiEajwWAwFouROKn572r+r4lYLFZfX09LRiIRWoxNiE1zLSJrEwJZVpMYRlRgJYhGo1Q7olc0GuUQRCKRUCgUj8fZeDgcbmtrGx0dNQwjHA6zmsZisWAwSKvl1KSVWMVpASTsSSDLahK9Pnz4EAqFWDXZwVstkEQ1Vtl4PE7rMRWaDVopaBVnu4S0DQlkWU0yQlYpccxWaorxaDRK11F2+aR1sodYKWgVp5UgYU8CGtRMIC53Tg//2RJciZKzPDmnWyloFbfnfKBXlIAGNcPhMF0LaT9Igj2nE4PJ+Z1dHblD6GpqpaBVnKsHWbsRUK0me3UosmAVZM/mbJw9io1bKWgVZ+tB2oYElKpJFkWr2yNChxpJz+YkTldHFiJ7bWCloFWcrQdpGxJQp6aMl4ZhENu6u7tDoRB7t859wUlQskErBa3iNpwMdIkloEhNIhz9DpLtgZgmX85z16Pk3M0GybUBXYOtFLSKi+0iYisCWVZT/BsM0VGMs1+ec0SIc6Yes/VwNZBVmf3DD1l0oSaHN1eyWVYzV4aNftqfANS0/xy5tIdQ06UTb/9hQ037z5FLewg1XTrx9h821LT/HLm0h1DTpRNv/2FDTfvPkUt7CDVdOvH2HzbUtP8cubSHUNOlE2//YUNN+8+RS3sINV068fYfdpbVZJ8M8vv94tND5Pkg+mwbeciIfVyIpDs7O0OhkBgnB3Kt+P1++pBRMBikR3GtJH360/6z5aoeZl9N+tq46bPDkUikra2Ne0yYPkHM2kOngXvc3TAMUgl5OZ0WIz+6xP5KAn0JiTzrSTvGvrbBHo60rQiMo5rkdUcqBH0xkvxcAregsi+pcYDSVpN8Noju3PPwwWDQ9GPANY2sRgJK1YzFYs3NzfF4nL4AREc+3mqyK6Xpa0a0J0jYhMA4qskuWmS09EQsiihGKKD0Vk3uJE5/Pqm7uxtLJmVr50T21aR3IX6/n96I0LM5eZWHXcMInVTVZFuh1wbkw0B30ThpgjTq9/vZaww7z43L+5Z9NdmJDzM/oMVe7ZFbGfblnlTVZFuhU8i+BhSJRNj6SZnEb8HTepCwA4HxVZMIR1ZK9kcM6cJG34fMupriwizewtthAtAHKwKK1GQdpV1hb0eyria9uKS/uAk1KfmcSIyvmvSsyp3NCRo2OB5qip8H9oyfE9Pj5k5mX016smZvg9gFkuJm1UlVTbYV+gvIonn0W3fSqFiAdgYJuxHIspp2Gx76k7sEoGbuzp3Dew41HT7BuTs8qJm7c+fwnkNNh09w7g4Paubu3Dm851DT4ROcu8ODmrk7dw7vOdR0+ATn7vCgZu7OncN7DjUdPsG5Ozyombtz5/Ce/wdTOPiNolqZVQAAAABJRU5ErkJggg==;" parent="1" vertex="1">
          <mxGeometry x="87" y="240" width="140.69" height="109" as="geometry" />
        </mxCell>
        <mxCell id="kWzljJYtxSuuumgWQ70q-3" value="" style="html=1;shape=mxgraph.electrical.electro-mechanical.switchDisconnector;aspect=fixed;elSwitchState=off;strokeWidth=7;" parent="1" vertex="1">
          <mxGeometry x="180" y="190" width="75" height="20" as="geometry" />
        </mxCell>
        <mxCell id="kWzljJYtxSuuumgWQ70q-4" value="20 A" style="html=1;shape=mxgraph.electrical.electro-mechanical.fuse2;aspect=fixed;elSwitchState=on;" parent="1" vertex="1">
          <mxGeometry x="359" y="190" width="75" height="20" as="geometry" />
        </mxCell>
        <mxCell id="kWzljJYtxSuuumgWQ70q-8" value="" style="endArrow=none;html=1;rounded=0;exitX=1;exitY=0.8;exitDx=0;exitDy=0;entryX=0.411;entryY=1.018;entryDx=0;entryDy=0;entryPerimeter=0;" parent="1" source="kWzljJYtxSuuumgWQ70q-4" target="kWzljJYtxSuuumgWQ70q-1" edge="1">
          <mxGeometry width="50" height="50" relative="1" as="geometry">
            <mxPoint x="520" y="410" as="sourcePoint" />
            <mxPoint x="570" y="360" as="targetPoint" />
            <Array as="points">
              <mxPoint x="627" y="206" />
            </Array>
          </mxGeometry>
        </mxCell>
        <mxCell id="kWzljJYtxSuuumgWQ70q-9" value="" style="endArrow=none;html=1;rounded=0;exitX=0.59;exitY=0.018;exitDx=0;exitDy=0;exitPerimeter=0;entryX=0;entryY=0.84;entryDx=0;entryDy=0;strokeWidth=7;" parent="1" source="kWzljJYtxSuuumgWQ70q-2" target="kWzljJYtxSuuumgWQ70q-3" edge="1">
          <mxGeometry width="50" height="50" relative="1" as="geometry">
            <mxPoint x="520" y="410" as="sourcePoint" />
            <mxPoint x="570" y="360" as="targetPoint" />
            <Array as="points">
              <mxPoint x="170" y="207" />
            </Array>
          </mxGeometry>
        </mxCell>
        <mxCell id="kWzljJYtxSuuumgWQ70q-10" value="" style="pointerEvents=1;verticalLabelPosition=bottom;shadow=0;dashed=0;align=center;html=1;verticalAlign=top;shape=mxgraph.electrical.signal_sources.protective_earth;" parent="1" vertex="1">
          <mxGeometry x="50" y="405" width="25" height="20" as="geometry" />
        </mxCell>
        <mxCell id="kWzljJYtxSuuumgWQ70q-11" value="" style="endArrow=none;html=1;rounded=0;exitX=0.5;exitY=0;exitDx=0;exitDy=0;exitPerimeter=0;entryX=0.171;entryY=0;entryDx=0;entryDy=0;entryPerimeter=0;strokeWidth=6;" parent="1" source="kWzljJYtxSuuumgWQ70q-10" target="kWzljJYtxSuuumgWQ70q-2" edge="1">
          <mxGeometry width="50" height="50" relative="1" as="geometry">
            <mxPoint x="520" y="410" as="sourcePoint" />
            <mxPoint x="570" y="360" as="targetPoint" />
            <Array as="points">
              <mxPoint x="63" y="220" />
              <mxPoint x="111" y="220" />
            </Array>
          </mxGeometry>
        </mxCell>
        <mxCell id="kWzljJYtxSuuumgWQ70q-12" value="20 A" style="html=1;shape=mxgraph.electrical.electro-mechanical.fuse2;aspect=fixed;elSwitchState=on;" parent="1" vertex="1">
          <mxGeometry x="359" y="310" width="75" height="20" as="geometry" />
        </mxCell>
        <mxCell id="kWzljJYtxSuuumgWQ70q-17" value="" style="group" parent="1" vertex="1" connectable="0">
          <mxGeometry x="320" y="40" width="160" height="90" as="geometry" />
        </mxCell>
        <mxCell id="kWzljJYtxSuuumgWQ70q-16" value="" style="rounded=0;whiteSpace=wrap;html=1;" parent="kWzljJYtxSuuumgWQ70q-17" vertex="1">
          <mxGeometry x="10" width="140" height="90" as="geometry" />
        </mxCell>
        <mxCell id="kWzljJYtxSuuumgWQ70q-14" value="&lt;div&gt;&lt;br&gt;&lt;/div&gt;&lt;div&gt;&lt;br&gt;&lt;/div&gt;&lt;div&gt;&lt;br&gt;&lt;/div&gt;&lt;div&gt;&lt;br&gt;&lt;/div&gt;&lt;div&gt;Starter Relay&lt;/div&gt;" style="html=1;shape=mxgraph.electrical.electro-mechanical.singleSwitch;aspect=fixed;elSwitchState=off;strokeWidth=6;" parent="kWzljJYtxSuuumgWQ70q-17" vertex="1">
          <mxGeometry x="5" y="30" width="150" height="40" as="geometry" />
        </mxCell>
        <mxCell id="kWzljJYtxSuuumgWQ70q-15" value="" style="pointerEvents=1;verticalLabelPosition=bottom;shadow=0;dashed=0;align=center;html=1;verticalAlign=top;shape=mxgraph.electrical.inductors.inductor_3;rotation=-180;" parent="kWzljJYtxSuuumgWQ70q-17" vertex="1">
          <mxGeometry y="17" width="160" height="8" as="geometry" />
        </mxCell>
        <mxCell id="kWzljJYtxSuuumgWQ70q-21" value="" style="endArrow=none;html=1;rounded=0;exitX=0;exitY=1;exitDx=0;exitDy=0;exitPerimeter=0;" parent="1" target="kWzljJYtxSuuumgWQ70q-1" edge="1">
          <mxGeometry width="50" height="50" relative="1" as="geometry">
            <mxPoint x="480" y="57" as="sourcePoint" />
            <mxPoint x="825.6300000000001" y="94" as="targetPoint" />
            <Array as="points">
              <mxPoint x="770" y="61" />
            </Array>
          </mxGeometry>
        </mxCell>
        <mxCell id="kWzljJYtxSuuumgWQ70q-22" value="" style="endArrow=none;html=1;rounded=0;exitX=1;exitY=1;exitDx=0;exitDy=0;exitPerimeter=0;strokeWidth=6;" parent="1" edge="1">
          <mxGeometry width="50" height="50" relative="1" as="geometry">
            <mxPoint x="323" y="57" as="sourcePoint" />
            <mxPoint x="63" y="220" as="targetPoint" />
            <Array as="points">
              <mxPoint x="63" y="57" />
            </Array>
          </mxGeometry>
        </mxCell>
        <mxCell id="kWzljJYtxSuuumgWQ70q-23" value="" style="shape=mxgraph.electrical.electro-mechanical.motor_2;html=1;shadow=0;dashed=0;align=center;fontSize=30;strokeWidth=1;" parent="1" vertex="1">
          <mxGeometry x="500" y="72" width="100" height="60" as="geometry" />
        </mxCell>
        <mxCell id="kWzljJYtxSuuumgWQ70q-24" value="" style="endArrow=none;html=1;rounded=0;exitX=0;exitY=0.5;exitDx=0;exitDy=0;exitPerimeter=0;entryX=1;entryY=0.8;entryDx=0;entryDy=0;strokeWidth=6;" parent="1" source="kWzljJYtxSuuumgWQ70q-23" target="kWzljJYtxSuuumgWQ70q-14" edge="1">
          <mxGeometry width="50" height="50" relative="1" as="geometry">
            <mxPoint x="520" y="80" as="sourcePoint" />
            <mxPoint x="570" y="30" as="targetPoint" />
          </mxGeometry>
        </mxCell>
        <mxCell id="kWzljJYtxSuuumgWQ70q-25" value="" style="pointerEvents=1;verticalLabelPosition=bottom;shadow=0;dashed=0;align=center;html=1;verticalAlign=top;shape=mxgraph.electrical.signal_sources.protective_earth;" parent="1" vertex="1">
          <mxGeometry x="614" y="132" width="34" height="28" as="geometry" />
        </mxCell>
        <mxCell id="kWzljJYtxSuuumgWQ70q-26" value="" style="endArrow=none;html=1;rounded=0;strokeWidth=7;" parent="1" edge="1">
          <mxGeometry width="50" height="50" relative="1" as="geometry">
            <mxPoint x="601" y="102" as="sourcePoint" />
            <mxPoint x="631" y="132" as="targetPoint" />
            <Array as="points">
              <mxPoint x="631" y="102" />
            </Array>
          </mxGeometry>
        </mxCell>
        <mxCell id="_8aa0ysd634xORG5aHoz-1" value="" style="group" parent="1" vertex="1" connectable="0">
          <mxGeometry x="464" y="265" width="160" height="90" as="geometry" />
        </mxCell>
        <mxCell id="_8aa0ysd634xORG5aHoz-2" value="" style="rounded=0;whiteSpace=wrap;html=1;" parent="_8aa0ysd634xORG5aHoz-1" vertex="1">
          <mxGeometry x="10" width="140" height="90" as="geometry" />
        </mxCell>
        <mxCell id="_8aa0ysd634xORG5aHoz-3" value="&lt;div&gt;&lt;br&gt;&lt;/div&gt;&lt;div&gt;&lt;br&gt;&lt;/div&gt;&lt;div&gt;&lt;br&gt;&lt;/div&gt;&lt;div&gt;&lt;br&gt;&lt;/div&gt;&lt;div&gt;fuel pump Relay&lt;/div&gt;" style="html=1;shape=mxgraph.electrical.electro-mechanical.singleSwitch;aspect=fixed;elSwitchState=off;strokeWidth=6;" parent="_8aa0ysd634xORG5aHoz-1" vertex="1">
          <mxGeometry x="5" y="30" width="150" height="40" as="geometry" />
        </mxCell>
        <mxCell id="_8aa0ysd634xORG5aHoz-4" value="" style="pointerEvents=1;verticalLabelPosition=bottom;shadow=0;dashed=0;align=center;html=1;verticalAlign=top;shape=mxgraph.electrical.inductors.inductor_3;rotation=-180;" parent="_8aa0ysd634xORG5aHoz-1" vertex="1">
          <mxGeometry y="17" width="160" height="8" as="geometry" />
        </mxCell>
        <mxCell id="_8aa0ysd634xORG5aHoz-5" value="" style="endArrow=none;html=1;rounded=0;exitX=0;exitY=0.8;exitDx=0;exitDy=0;" parent="1" source="kWzljJYtxSuuumgWQ70q-12" edge="1">
          <mxGeometry width="50" height="50" relative="1" as="geometry">
            <mxPoint x="520" y="410" as="sourcePoint" />
            <mxPoint x="330" y="210" as="targetPoint" />
            <Array as="points">
              <mxPoint x="330" y="326" />
            </Array>
          </mxGeometry>
        </mxCell>
        <mxCell id="_8aa0ysd634xORG5aHoz-6" value="" style="endArrow=none;html=1;rounded=0;exitX=1;exitY=0.8;exitDx=0;exitDy=0;" parent="1" source="kWzljJYtxSuuumgWQ70q-12" edge="1">
          <mxGeometry width="50" height="50" relative="1" as="geometry">
            <mxPoint x="520" y="410" as="sourcePoint" />
            <mxPoint x="470" y="326" as="targetPoint" />
          </mxGeometry>
        </mxCell>
        <mxCell id="_8aa0ysd634xORG5aHoz-7" value="" style="pointerEvents=1;verticalLabelPosition=bottom;shadow=0;dashed=0;align=center;html=1;verticalAlign=top;shape=mxgraph.electrical.signal_sources.protective_earth;" parent="1" vertex="1">
          <mxGeometry x="379.5" y="265" width="34" height="28" as="geometry" />
        </mxCell>
        <mxCell id="_8aa0ysd634xORG5aHoz-8" value="" style="endArrow=none;html=1;rounded=0;exitX=0.5;exitY=0;exitDx=0;exitDy=0;exitPerimeter=0;entryX=1;entryY=1;entryDx=0;entryDy=0;entryPerimeter=0;" parent="1" source="_8aa0ysd634xORG5aHoz-7" target="_8aa0ysd634xORG5aHoz-4" edge="1">
          <mxGeometry width="50" height="50" relative="1" as="geometry">
            <mxPoint x="520" y="410" as="sourcePoint" />
            <mxPoint x="460" y="280" as="targetPoint" />
            <Array as="points">
              <mxPoint x="440" y="265" />
              <mxPoint x="440" y="280" />
            </Array>
          </mxGeometry>
        </mxCell>
        <mxCell id="_8aa0ysd634xORG5aHoz-9" value="STARTER" style="text;html=1;align=center;verticalAlign=middle;whiteSpace=wrap;rounded=0;" parent="1" vertex="1">
          <mxGeometry x="520" y="130" width="60" height="30" as="geometry" />
        </mxCell>
        <mxCell id="_8aa0ysd634xORG5aHoz-10" value="FUEL PUMP" style="text;html=1;align=center;verticalAlign=middle;whiteSpace=wrap;rounded=0;" parent="1" vertex="1">
          <mxGeometry x="740" y="370" width="80" height="30" as="geometry" />
        </mxCell>
        <mxCell id="_8aa0ysd634xORG5aHoz-11" value="" style="shape=mxgraph.electrical.electro-mechanical.motor_2;html=1;shadow=0;dashed=0;align=center;fontSize=30;strokeWidth=1;" parent="1" vertex="1">
          <mxGeometry x="730" y="297" width="100" height="60" as="geometry" />
        </mxCell>
        <mxCell id="_8aa0ysd634xORG5aHoz-12" value="" style="endArrow=none;html=1;rounded=0;entryX=1;entryY=0.8;entryDx=0;entryDy=0;exitX=0;exitY=0.5;exitDx=0;exitDy=0;exitPerimeter=0;" parent="1" source="_8aa0ysd634xORG5aHoz-11" target="_8aa0ysd634xORG5aHoz-3" edge="1">
          <mxGeometry width="50" height="50" relative="1" as="geometry">
            <mxPoint x="520" y="410" as="sourcePoint" />
            <mxPoint x="570" y="360" as="targetPoint" />
          </mxGeometry>
        </mxCell>
        <mxCell id="_8aa0ysd634xORG5aHoz-13" value="" style="endArrow=none;html=1;rounded=0;exitX=0;exitY=1;exitDx=0;exitDy=0;exitPerimeter=0;" parent="1" source="_8aa0ysd634xORG5aHoz-4" edge="1">
          <mxGeometry width="50" height="50" relative="1" as="geometry">
            <mxPoint x="520" y="410" as="sourcePoint" />
            <mxPoint x="780" y="170" as="targetPoint" />
            <Array as="points">
              <mxPoint x="700" y="170" />
            </Array>
          </mxGeometry>
        </mxCell>
        <mxCell id="_8aa0ysd634xORG5aHoz-14" value="C" style="edgeLabel;html=1;align=center;verticalAlign=middle;resizable=0;points=[];" parent="_8aa0ysd634xORG5aHoz-13" vertex="1" connectable="0">
          <mxGeometry x="0.74" y="-2" relative="1" as="geometry">
            <mxPoint as="offset" />
          </mxGeometry>
        </mxCell>
        <mxCell id="_8aa0ysd634xORG5aHoz-15" value="" style="pointerEvents=1;verticalLabelPosition=bottom;shadow=0;dashed=0;align=center;html=1;verticalAlign=top;shape=mxgraph.electrical.signal_sources.protective_earth;" parent="1" vertex="1">
          <mxGeometry x="903" y="368" width="34" height="28" as="geometry" />
        </mxCell>
        <mxCell id="_8aa0ysd634xORG5aHoz-16" value="" style="endArrow=none;html=1;rounded=0;entryX=0.5;entryY=0;entryDx=0;entryDy=0;entryPerimeter=0;" parent="1" edge="1">
          <mxGeometry width="50" height="50" relative="1" as="geometry">
            <mxPoint x="830" y="328" as="sourcePoint" />
            <mxPoint x="920" y="368" as="targetPoint" />
            <Array as="points">
              <mxPoint x="920" y="328" />
            </Array>
          </mxGeometry>
        </mxCell>
        <mxCell id="_8aa0ysd634xORG5aHoz-17" value="ignition coil" style="ellipse;whiteSpace=wrap;html=1;aspect=fixed;" parent="1" vertex="1">
          <mxGeometry x="740" y="460" width="80" height="80" as="geometry" />
        </mxCell>
        <mxCell id="_8aa0ysd634xORG5aHoz-19" value="" style="pointerEvents=1;verticalLabelPosition=bottom;shadow=0;dashed=0;align=center;html=1;verticalAlign=top;shape=mxgraph.electrical.signal_sources.protective_earth;" parent="1" vertex="1">
          <mxGeometry x="893" y="540" width="34" height="28" as="geometry" />
        </mxCell>
        <mxCell id="_8aa0ysd634xORG5aHoz-20" value="" style="endArrow=none;html=1;rounded=0;entryX=0.5;entryY=0;entryDx=0;entryDy=0;entryPerimeter=0;" parent="1" edge="1">
          <mxGeometry width="50" height="50" relative="1" as="geometry">
            <mxPoint x="820" y="500" as="sourcePoint" />
            <mxPoint x="910" y="540" as="targetPoint" />
            <Array as="points">
              <mxPoint x="910" y="500" />
            </Array>
          </mxGeometry>
        </mxCell>
        <mxCell id="_8aa0ysd634xORG5aHoz-21" value="" style="endArrow=none;html=1;rounded=0;exitX=0;exitY=0.5;exitDx=0;exitDy=0;" parent="1" source="_8aa0ysd634xORG5aHoz-17" edge="1">
          <mxGeometry width="50" height="50" relative="1" as="geometry">
            <mxPoint x="640" y="377" as="sourcePoint" />
            <mxPoint x="690" y="327" as="targetPoint" />
            <Array as="points">
              <mxPoint x="690" y="500" />
            </Array>
          </mxGeometry>
        </mxCell>
        <mxCell id="_8aa0ysd634xORG5aHoz-22" value="distribuitor" style="ellipse;whiteSpace=wrap;html=1;aspect=fixed;" parent="1" vertex="1">
          <mxGeometry x="740" y="568" width="80" height="80" as="geometry" />
        </mxCell>
        <mxCell id="_8aa0ysd634xORG5aHoz-23" value="" style="endArrow=none;html=1;rounded=0;exitX=0;exitY=0.5;exitDx=0;exitDy=0;" parent="1" source="_8aa0ysd634xORG5aHoz-22" edge="1">
          <mxGeometry width="50" height="50" relative="1" as="geometry">
            <mxPoint x="640" y="550" as="sourcePoint" />
            <mxPoint x="690" y="500" as="targetPoint" />
            <Array as="points">
              <mxPoint x="690" y="608" />
            </Array>
          </mxGeometry>
        </mxCell>
        <mxCell id="_8aa0ysd634xORG5aHoz-24" value="" style="pointerEvents=1;verticalLabelPosition=bottom;shadow=0;dashed=0;align=center;html=1;verticalAlign=top;shape=mxgraph.electrical.signal_sources.protective_earth;" parent="1" vertex="1">
          <mxGeometry x="893" y="650" width="34" height="28" as="geometry" />
        </mxCell>
        <mxCell id="_8aa0ysd634xORG5aHoz-25" value="" style="endArrow=none;html=1;rounded=0;entryX=0.5;entryY=0;entryDx=0;entryDy=0;entryPerimeter=0;" parent="1" edge="1">
          <mxGeometry width="50" height="50" relative="1" as="geometry">
            <mxPoint x="820" y="610" as="sourcePoint" />
            <mxPoint x="910" y="650" as="targetPoint" />
            <Array as="points">
              <mxPoint x="910" y="610" />
            </Array>
          </mxGeometry>
        </mxCell>
        <mxCell id="_8aa0ysd634xORG5aHoz-26" value="" style="group" parent="1" vertex="1" connectable="0">
          <mxGeometry x="470" y="750" width="160" height="90" as="geometry" />
        </mxCell>
        <mxCell id="_8aa0ysd634xORG5aHoz-27" value="" style="rounded=0;whiteSpace=wrap;html=1;" parent="_8aa0ysd634xORG5aHoz-26" vertex="1">
          <mxGeometry x="10" width="140" height="90" as="geometry" />
        </mxCell>
        <mxCell id="_8aa0ysd634xORG5aHoz-28" value="&lt;div&gt;&lt;br&gt;&lt;/div&gt;&lt;div&gt;&lt;br&gt;&lt;/div&gt;&lt;div&gt;&lt;br&gt;&lt;/div&gt;&lt;div&gt;&lt;br&gt;&lt;/div&gt;&lt;div&gt;front light relay&lt;/div&gt;" style="html=1;shape=mxgraph.electrical.electro-mechanical.singleSwitch;aspect=fixed;elSwitchState=off;strokeWidth=6;" parent="_8aa0ysd634xORG5aHoz-26" vertex="1">
          <mxGeometry x="5" y="30" width="150" height="40" as="geometry" />
        </mxCell>
        <mxCell id="_8aa0ysd634xORG5aHoz-29" value="" style="pointerEvents=1;verticalLabelPosition=bottom;shadow=0;dashed=0;align=center;html=1;verticalAlign=top;shape=mxgraph.electrical.inductors.inductor_3;rotation=-180;" parent="_8aa0ysd634xORG5aHoz-26" vertex="1">
          <mxGeometry y="17" width="160" height="8" as="geometry" />
        </mxCell>
        <mxCell id="m78y9Psc8lJ6t1jXdw8Q-1" value="&lt;div&gt;&lt;br&gt;&lt;/div&gt;&lt;div&gt;&lt;br&gt;&lt;/div&gt;&lt;div&gt;&lt;br&gt;&lt;/div&gt;&lt;div&gt;front light switch&lt;/div&gt;" style="html=1;shape=mxgraph.electrical.electro-mechanical.singleSwitch;aspect=fixed;elSwitchState=off;" vertex="1" parent="1">
          <mxGeometry x="665" y="751" width="75" height="20" as="geometry" />
        </mxCell>
        <mxCell id="m78y9Psc8lJ6t1jXdw8Q-2" value="" style="endArrow=none;html=1;rounded=0;entryX=0;entryY=0.8;entryDx=0;entryDy=0;" edge="1" parent="1">
          <mxGeometry width="50" height="50" relative="1" as="geometry">
            <mxPoint x="630" y="768" as="sourcePoint" />
            <mxPoint x="665" y="765" as="targetPoint" />
          </mxGeometry>
        </mxCell>
        <mxCell id="m78y9Psc8lJ6t1jXdw8Q-3" value="20 A" style="html=1;shape=mxgraph.electrical.electro-mechanical.fuse2;aspect=fixed;elSwitchState=on;" vertex="1" parent="1">
          <mxGeometry x="362.5" y="796" width="75" height="20" as="geometry" />
        </mxCell>
        <mxCell id="m78y9Psc8lJ6t1jXdw8Q-5" value="" style="endArrow=none;html=1;rounded=0;entryX=1;entryY=0.8;entryDx=0;entryDy=0;exitX=0;exitY=0.8;exitDx=0;exitDy=0;" edge="1" parent="1" source="_8aa0ysd634xORG5aHoz-28" target="m78y9Psc8lJ6t1jXdw8Q-3">
          <mxGeometry width="50" height="50" relative="1" as="geometry">
            <mxPoint x="520" y="790" as="sourcePoint" />
            <mxPoint x="570" y="740" as="targetPoint" />
          </mxGeometry>
        </mxCell>
        <mxCell id="m78y9Psc8lJ6t1jXdw8Q-6" value="" style="endArrow=none;html=1;rounded=0;exitX=0;exitY=0.8;exitDx=0;exitDy=0;" edge="1" parent="1" source="m78y9Psc8lJ6t1jXdw8Q-3">
          <mxGeometry width="50" height="50" relative="1" as="geometry">
            <mxPoint x="520" y="460" as="sourcePoint" />
            <mxPoint x="330" y="320" as="targetPoint" />
            <Array as="points">
              <mxPoint x="330" y="812" />
            </Array>
          </mxGeometry>
        </mxCell>
        <mxCell id="m78y9Psc8lJ6t1jXdw8Q-9" value="" style="endArrow=none;html=1;rounded=0;" edge="1" parent="1" target="m78y9Psc8lJ6t1jXdw8Q-10">
          <mxGeometry width="50" height="50" relative="1" as="geometry">
            <mxPoint x="740" y="767" as="sourcePoint" />
            <mxPoint x="790" y="717" as="targetPoint" />
          </mxGeometry>
        </mxCell>
        <mxCell id="m78y9Psc8lJ6t1jXdw8Q-10" value="to key switch A" style="ellipse;whiteSpace=wrap;html=1;aspect=fixed;" vertex="1" parent="1">
          <mxGeometry x="780" y="727" width="80" height="80" as="geometry" />
        </mxCell>
        <mxCell id="m78y9Psc8lJ6t1jXdw8Q-11" value="" style="endArrow=none;html=1;rounded=0;entryX=1;entryY=1;entryDx=0;entryDy=0;entryPerimeter=0;" edge="1" parent="1">
          <mxGeometry width="50" height="50" relative="1" as="geometry">
            <mxPoint x="398" y="740" as="sourcePoint" />
            <mxPoint x="470" y="767" as="targetPoint" />
            <Array as="points">
              <mxPoint x="398" y="710" />
              <mxPoint x="450" y="710" />
              <mxPoint x="450" y="767" />
            </Array>
          </mxGeometry>
        </mxCell>
        <mxCell id="m78y9Psc8lJ6t1jXdw8Q-12" value="" style="pointerEvents=1;verticalLabelPosition=bottom;shadow=0;dashed=0;align=center;html=1;verticalAlign=top;shape=mxgraph.electrical.signal_sources.protective_earth;" vertex="1" parent="1">
          <mxGeometry x="380" y="740" width="34" height="28" as="geometry" />
        </mxCell>
        <mxCell id="m78y9Psc8lJ6t1jXdw8Q-13" value="Front lights" style="pointerEvents=1;verticalLabelPosition=bottom;shadow=0;dashed=0;align=center;html=1;verticalAlign=top;shape=mxgraph.electrical.miscellaneous.light_bulb;rotation=90;" vertex="1" parent="1">
          <mxGeometry x="665" y="900" width="60" height="50" as="geometry" />
        </mxCell>
        <mxCell id="m78y9Psc8lJ6t1jXdw8Q-16" value="" style="endArrow=none;html=1;rounded=0;entryX=1;entryY=0.8;entryDx=0;entryDy=0;exitX=0;exitY=0.5;exitDx=0;exitDy=0;exitPerimeter=0;" edge="1" parent="1" source="m78y9Psc8lJ6t1jXdw8Q-13" target="_8aa0ysd634xORG5aHoz-28">
          <mxGeometry width="50" height="50" relative="1" as="geometry">
            <mxPoint x="570" y="970" as="sourcePoint" />
            <mxPoint x="620" y="920" as="targetPoint" />
            <Array as="points">
              <mxPoint x="695" y="810" />
            </Array>
          </mxGeometry>
        </mxCell>
        <mxCell id="m78y9Psc8lJ6t1jXdw8Q-17" value="" style="pointerEvents=1;verticalLabelPosition=bottom;shadow=0;dashed=0;align=center;html=1;verticalAlign=top;shape=mxgraph.electrical.signal_sources.protective_earth;" vertex="1" parent="1">
          <mxGeometry x="678" y="955" width="34" height="28" as="geometry" />
        </mxCell>
        <mxCell id="m78y9Psc8lJ6t1jXdw8Q-19" value="" style="endArrow=none;html=1;rounded=0;exitX=0.5;exitY=0;exitDx=0;exitDy=0;exitPerimeter=0;entryX=1;entryY=0.5;entryDx=0;entryDy=0;entryPerimeter=0;" edge="1" parent="1" source="m78y9Psc8lJ6t1jXdw8Q-17" target="m78y9Psc8lJ6t1jXdw8Q-13">
          <mxGeometry width="50" height="50" relative="1" as="geometry">
            <mxPoint x="780" y="990" as="sourcePoint" />
            <mxPoint x="830" y="940" as="targetPoint" />
          </mxGeometry>
        </mxCell>
        <mxCell id="m78y9Psc8lJ6t1jXdw8Q-20" value="Rear lights" style="pointerEvents=1;verticalLabelPosition=bottom;shadow=0;dashed=0;align=center;html=1;verticalAlign=top;shape=mxgraph.electrical.miscellaneous.light_bulb;rotation=90;" vertex="1" parent="1">
          <mxGeometry x="791" y="900" width="60" height="50" as="geometry" />
        </mxCell>
        <mxCell id="m78y9Psc8lJ6t1jXdw8Q-22" value="" style="pointerEvents=1;verticalLabelPosition=bottom;shadow=0;dashed=0;align=center;html=1;verticalAlign=top;shape=mxgraph.electrical.signal_sources.protective_earth;" vertex="1" parent="1">
          <mxGeometry x="804" y="955" width="34" height="28" as="geometry" />
        </mxCell>
        <mxCell id="m78y9Psc8lJ6t1jXdw8Q-24" value="" style="endArrow=none;html=1;rounded=0;entryX=0;entryY=0.5;entryDx=0;entryDy=0;entryPerimeter=0;" edge="1" parent="1" target="m78y9Psc8lJ6t1jXdw8Q-20">
          <mxGeometry width="50" height="50" relative="1" as="geometry">
            <mxPoint x="696" y="820" as="sourcePoint" />
            <mxPoint x="817" y="895" as="targetPoint" />
            <Array as="points">
              <mxPoint x="820" y="820" />
            </Array>
          </mxGeometry>
        </mxCell>
        <mxCell id="m78y9Psc8lJ6t1jXdw8Q-45" value="" style="group" vertex="1" connectable="0" parent="1">
          <mxGeometry x="458" y="1070" width="160" height="90" as="geometry" />
        </mxCell>
        <mxCell id="m78y9Psc8lJ6t1jXdw8Q-46" value="" style="rounded=0;whiteSpace=wrap;html=1;" vertex="1" parent="m78y9Psc8lJ6t1jXdw8Q-45">
          <mxGeometry x="10" width="140" height="90" as="geometry" />
        </mxCell>
        <mxCell id="m78y9Psc8lJ6t1jXdw8Q-47" value="&lt;div&gt;&lt;br&gt;&lt;/div&gt;&lt;div&gt;&lt;br&gt;&lt;/div&gt;&lt;div&gt;&lt;br&gt;&lt;/div&gt;&lt;div&gt;&lt;br&gt;&lt;/div&gt;&lt;div&gt;misc relay lights&lt;/div&gt;" style="html=1;shape=mxgraph.electrical.electro-mechanical.singleSwitch;aspect=fixed;elSwitchState=off;strokeWidth=6;" vertex="1" parent="m78y9Psc8lJ6t1jXdw8Q-45">
          <mxGeometry x="5" y="30" width="150" height="40" as="geometry" />
        </mxCell>
        <mxCell id="m78y9Psc8lJ6t1jXdw8Q-48" value="" style="pointerEvents=1;verticalLabelPosition=bottom;shadow=0;dashed=0;align=center;html=1;verticalAlign=top;shape=mxgraph.electrical.inductors.inductor_3;rotation=-180;" vertex="1" parent="m78y9Psc8lJ6t1jXdw8Q-45">
          <mxGeometry y="17" width="160" height="8" as="geometry" />
        </mxCell>
        <mxCell id="m78y9Psc8lJ6t1jXdw8Q-50" value="" style="endArrow=none;html=1;rounded=0;entryX=0;entryY=0.8;entryDx=0;entryDy=0;" edge="1" parent="1">
          <mxGeometry width="50" height="50" relative="1" as="geometry">
            <mxPoint x="618" y="1088" as="sourcePoint" />
            <mxPoint x="653" y="1085" as="targetPoint" />
          </mxGeometry>
        </mxCell>
        <mxCell id="m78y9Psc8lJ6t1jXdw8Q-51" value="" style="endArrow=none;html=1;rounded=0;entryX=1;entryY=0.8;entryDx=0;entryDy=0;exitX=0;exitY=0.8;exitDx=0;exitDy=0;" edge="1" parent="1" source="m78y9Psc8lJ6t1jXdw8Q-47">
          <mxGeometry width="50" height="50" relative="1" as="geometry">
            <mxPoint x="508" y="1110" as="sourcePoint" />
            <mxPoint x="426" y="1132" as="targetPoint" />
          </mxGeometry>
        </mxCell>
        <mxCell id="m78y9Psc8lJ6t1jXdw8Q-52" value="" style="endArrow=none;html=1;rounded=0;" edge="1" parent="1" target="m78y9Psc8lJ6t1jXdw8Q-53">
          <mxGeometry width="50" height="50" relative="1" as="geometry">
            <mxPoint x="728" y="1087" as="sourcePoint" />
            <mxPoint x="778" y="1037" as="targetPoint" />
          </mxGeometry>
        </mxCell>
        <mxCell id="m78y9Psc8lJ6t1jXdw8Q-53" value="to key switch A" style="ellipse;whiteSpace=wrap;html=1;aspect=fixed;" vertex="1" parent="1">
          <mxGeometry x="768" y="1047" width="80" height="80" as="geometry" />
        </mxCell>
        <mxCell id="m78y9Psc8lJ6t1jXdw8Q-54" value="" style="endArrow=none;html=1;rounded=0;entryX=1;entryY=1;entryDx=0;entryDy=0;entryPerimeter=0;" edge="1" parent="1">
          <mxGeometry width="50" height="50" relative="1" as="geometry">
            <mxPoint x="386" y="1060" as="sourcePoint" />
            <mxPoint x="458" y="1087" as="targetPoint" />
            <Array as="points">
              <mxPoint x="386" y="1030" />
              <mxPoint x="438" y="1030" />
              <mxPoint x="438" y="1087" />
            </Array>
          </mxGeometry>
        </mxCell>
        <mxCell id="m78y9Psc8lJ6t1jXdw8Q-55" value="" style="pointerEvents=1;verticalLabelPosition=bottom;shadow=0;dashed=0;align=center;html=1;verticalAlign=top;shape=mxgraph.electrical.signal_sources.protective_earth;" vertex="1" parent="1">
          <mxGeometry x="368" y="1060" width="34" height="28" as="geometry" />
        </mxCell>
        <mxCell id="m78y9Psc8lJ6t1jXdw8Q-56" value="reverse lights" style="pointerEvents=1;verticalLabelPosition=bottom;shadow=0;dashed=0;align=center;html=1;verticalAlign=top;shape=mxgraph.electrical.miscellaneous.light_bulb;rotation=90;" vertex="1" parent="1">
          <mxGeometry x="760" y="1344" width="60" height="50" as="geometry" />
        </mxCell>
        <mxCell id="m78y9Psc8lJ6t1jXdw8Q-58" value="" style="pointerEvents=1;verticalLabelPosition=bottom;shadow=0;dashed=0;align=center;html=1;verticalAlign=top;shape=mxgraph.electrical.signal_sources.protective_earth;" vertex="1" parent="1">
          <mxGeometry x="773" y="1404" width="34" height="23" as="geometry" />
        </mxCell>
        <mxCell id="m78y9Psc8lJ6t1jXdw8Q-59" value="" style="endArrow=none;html=1;rounded=0;exitX=0.5;exitY=0;exitDx=0;exitDy=0;exitPerimeter=0;entryX=1;entryY=0.5;entryDx=0;entryDy=0;entryPerimeter=0;" edge="1" parent="1" source="m78y9Psc8lJ6t1jXdw8Q-58" target="m78y9Psc8lJ6t1jXdw8Q-56">
          <mxGeometry width="50" height="50" relative="1" as="geometry">
            <mxPoint x="875" y="1390" as="sourcePoint" />
            <mxPoint x="925" y="1340" as="targetPoint" />
          </mxGeometry>
        </mxCell>
        <mxCell id="m78y9Psc8lJ6t1jXdw8Q-60" value="left light" style="pointerEvents=1;verticalLabelPosition=bottom;shadow=0;dashed=0;align=center;html=1;verticalAlign=top;shape=mxgraph.electrical.miscellaneous.light_bulb;rotation=90;" vertex="1" parent="1">
          <mxGeometry x="953" y="1289" width="60" height="50" as="geometry" />
        </mxCell>
        <mxCell id="m78y9Psc8lJ6t1jXdw8Q-61" value="" style="pointerEvents=1;verticalLabelPosition=bottom;shadow=0;dashed=0;align=center;html=1;verticalAlign=top;shape=mxgraph.electrical.signal_sources.protective_earth;" vertex="1" parent="1">
          <mxGeometry x="966" y="1344" width="34" height="28" as="geometry" />
        </mxCell>
        <mxCell id="m78y9Psc8lJ6t1jXdw8Q-63" value="15 A" style="html=1;shape=mxgraph.electrical.electro-mechanical.fuse2;aspect=fixed;elSwitchState=on;" vertex="1" parent="1">
          <mxGeometry x="342" y="1116" width="75" height="20" as="geometry" />
        </mxCell>
        <mxCell id="m78y9Psc8lJ6t1jXdw8Q-65" value="" style="endArrow=none;html=1;rounded=0;exitX=1;exitY=0.8;exitDx=0;exitDy=0;" edge="1" parent="1">
          <mxGeometry width="50" height="50" relative="1" as="geometry">
            <mxPoint x="385" y="1132" as="sourcePoint" />
            <mxPoint x="430" y="1132" as="targetPoint" />
          </mxGeometry>
        </mxCell>
        <mxCell id="m78y9Psc8lJ6t1jXdw8Q-67" value="" style="endArrow=none;html=1;rounded=0;exitX=0;exitY=0.8;exitDx=0;exitDy=0;" edge="1" parent="1" source="m78y9Psc8lJ6t1jXdw8Q-63">
          <mxGeometry width="50" height="50" relative="1" as="geometry">
            <mxPoint x="280" y="900" as="sourcePoint" />
            <mxPoint x="330" y="810" as="targetPoint" />
            <Array as="points">
              <mxPoint x="330" y="1130" />
            </Array>
          </mxGeometry>
        </mxCell>
        <mxCell id="m78y9Psc8lJ6t1jXdw8Q-72" value="" style="endArrow=none;html=1;rounded=0;exitX=0;exitY=1;exitDx=0;exitDy=0;exitPerimeter=0;" edge="1" parent="1">
          <mxGeometry width="50" height="50" relative="1" as="geometry">
            <mxPoint x="618" y="1085" as="sourcePoint" />
            <mxPoint x="740" y="1088" as="targetPoint" />
          </mxGeometry>
        </mxCell>
        <mxCell id="m78y9Psc8lJ6t1jXdw8Q-75" value="&lt;div&gt;&lt;br&gt;&lt;/div&gt;&lt;div&gt;&lt;br&gt;&lt;/div&gt;&lt;div&gt;&lt;br&gt;&lt;/div&gt;&lt;div&gt;left switch control&lt;/div&gt;" style="html=1;shape=mxgraph.electrical.electro-mechanical.singleSwitch;aspect=fixed;elSwitchState=off;" vertex="1" parent="1">
          <mxGeometry x="791" y="1160" width="75" height="20" as="geometry" />
        </mxCell>
        <mxCell id="m78y9Psc8lJ6t1jXdw8Q-76" value="right light" style="pointerEvents=1;verticalLabelPosition=bottom;shadow=0;dashed=0;align=center;html=1;verticalAlign=top;shape=mxgraph.electrical.miscellaneous.light_bulb;rotation=90;" vertex="1" parent="1">
          <mxGeometry x="859" y="1289" width="60" height="50" as="geometry" />
        </mxCell>
        <mxCell id="m78y9Psc8lJ6t1jXdw8Q-77" value="" style="pointerEvents=1;verticalLabelPosition=bottom;shadow=0;dashed=0;align=center;html=1;verticalAlign=top;shape=mxgraph.electrical.signal_sources.protective_earth;" vertex="1" parent="1">
          <mxGeometry x="872" y="1344" width="34" height="28" as="geometry" />
        </mxCell>
        <mxCell id="m78y9Psc8lJ6t1jXdw8Q-80" value="&lt;div&gt;&lt;br&gt;&lt;/div&gt;&lt;div&gt;&lt;br&gt;&lt;/div&gt;&lt;div&gt;&lt;br&gt;&lt;/div&gt;&lt;div&gt;right switch control&lt;/div&gt;" style="html=1;shape=mxgraph.electrical.electro-mechanical.singleSwitch;aspect=fixed;elSwitchState=off;" vertex="1" parent="1">
          <mxGeometry x="791" y="1210" width="75" height="20" as="geometry" />
        </mxCell>
        <mxCell id="m78y9Psc8lJ6t1jXdw8Q-82" value="" style="endArrow=none;html=1;rounded=0;entryX=0;entryY=0.5;entryDx=0;entryDy=0;entryPerimeter=0;" edge="1" parent="1" target="m78y9Psc8lJ6t1jXdw8Q-76">
          <mxGeometry width="50" height="50" relative="1" as="geometry">
            <mxPoint x="866" y="1225" as="sourcePoint" />
            <mxPoint x="916" y="1175" as="targetPoint" />
            <Array as="points">
              <mxPoint x="890" y="1225" />
            </Array>
          </mxGeometry>
        </mxCell>
        <mxCell id="m78y9Psc8lJ6t1jXdw8Q-84" value="" style="endArrow=none;html=1;rounded=0;exitX=1;exitY=0.8;exitDx=0;exitDy=0;entryX=0;entryY=0.5;entryDx=0;entryDy=0;entryPerimeter=0;" edge="1" parent="1" source="m78y9Psc8lJ6t1jXdw8Q-75" target="m78y9Psc8lJ6t1jXdw8Q-60">
          <mxGeometry width="50" height="50" relative="1" as="geometry">
            <mxPoint x="970" y="1190" as="sourcePoint" />
            <mxPoint x="1020" y="1140" as="targetPoint" />
            <Array as="points">
              <mxPoint x="983" y="1176" />
            </Array>
          </mxGeometry>
        </mxCell>
        <mxCell id="m78y9Psc8lJ6t1jXdw8Q-85" value="" style="endArrow=none;html=1;rounded=0;entryX=0;entryY=0.8;entryDx=0;entryDy=0;exitX=0;exitY=0.8;exitDx=0;exitDy=0;" edge="1" parent="1" source="m78y9Psc8lJ6t1jXdw8Q-80" target="m78y9Psc8lJ6t1jXdw8Q-75">
          <mxGeometry width="50" height="50" relative="1" as="geometry">
            <mxPoint x="725" y="1210" as="sourcePoint" />
            <mxPoint x="775" y="1160" as="targetPoint" />
            <Array as="points">
              <mxPoint x="700" y="1226" />
              <mxPoint x="700" y="1176" />
            </Array>
          </mxGeometry>
        </mxCell>
        <mxCell id="m78y9Psc8lJ6t1jXdw8Q-86" value="" style="endArrow=none;html=1;rounded=0;exitX=1;exitY=0.8;exitDx=0;exitDy=0;" edge="1" parent="1" source="m78y9Psc8lJ6t1jXdw8Q-47">
          <mxGeometry width="50" height="50" relative="1" as="geometry">
            <mxPoint x="660" y="1150" as="sourcePoint" />
            <mxPoint x="700" y="1180" as="targetPoint" />
            <Array as="points">
              <mxPoint x="700" y="1132" />
            </Array>
          </mxGeometry>
        </mxCell>
        <mxCell id="m78y9Psc8lJ6t1jXdw8Q-87" value="&lt;div&gt;&lt;br&gt;&lt;/div&gt;&lt;div&gt;&lt;br&gt;&lt;/div&gt;&lt;div&gt;&lt;br&gt;&lt;/div&gt;&lt;div&gt;gearbox reverse switch&lt;/div&gt;" style="html=1;shape=mxgraph.electrical.electro-mechanical.singleSwitch;aspect=fixed;elSwitchState=off;" vertex="1" parent="1">
          <mxGeometry x="600" y="1289" width="75" height="20" as="geometry" />
        </mxCell>
        <mxCell id="m78y9Psc8lJ6t1jXdw8Q-88" value="" style="endArrow=none;html=1;rounded=0;exitX=1;exitY=0.8;exitDx=0;exitDy=0;entryX=0;entryY=0.5;entryDx=0;entryDy=0;entryPerimeter=0;" edge="1" parent="1" source="m78y9Psc8lJ6t1jXdw8Q-87" target="m78y9Psc8lJ6t1jXdw8Q-56">
          <mxGeometry width="50" height="50" relative="1" as="geometry">
            <mxPoint x="740" y="1309" as="sourcePoint" />
            <mxPoint x="790" y="1259" as="targetPoint" />
            <Array as="points">
              <mxPoint x="790" y="1305" />
            </Array>
          </mxGeometry>
        </mxCell>
        <mxCell id="m78y9Psc8lJ6t1jXdw8Q-89" value="" style="endArrow=none;html=1;rounded=0;exitX=0;exitY=0.8;exitDx=0;exitDy=0;" edge="1" parent="1" source="m78y9Psc8lJ6t1jXdw8Q-87">
          <mxGeometry width="50" height="50" relative="1" as="geometry">
            <mxPoint x="550" y="1300" as="sourcePoint" />
            <mxPoint x="700" y="1220" as="targetPoint" />
            <Array as="points">
              <mxPoint x="600" y="1220" />
            </Array>
          </mxGeometry>
        </mxCell>
        <mxCell id="m78y9Psc8lJ6t1jXdw8Q-90" value="stop lights" style="pointerEvents=1;verticalLabelPosition=bottom;shadow=0;dashed=0;align=center;html=1;verticalAlign=top;shape=mxgraph.electrical.miscellaneous.light_bulb;rotation=90;" vertex="1" parent="1">
          <mxGeometry x="670" y="1399" width="60" height="50" as="geometry" />
        </mxCell>
        <mxCell id="m78y9Psc8lJ6t1jXdw8Q-91" value="" style="pointerEvents=1;verticalLabelPosition=bottom;shadow=0;dashed=0;align=center;html=1;verticalAlign=top;shape=mxgraph.electrical.signal_sources.protective_earth;" vertex="1" parent="1">
          <mxGeometry x="683" y="1459" width="34" height="23" as="geometry" />
        </mxCell>
        <mxCell id="m78y9Psc8lJ6t1jXdw8Q-92" value="" style="endArrow=none;html=1;rounded=0;exitX=0.5;exitY=0;exitDx=0;exitDy=0;exitPerimeter=0;entryX=1;entryY=0.5;entryDx=0;entryDy=0;entryPerimeter=0;" edge="1" parent="1" source="m78y9Psc8lJ6t1jXdw8Q-91" target="m78y9Psc8lJ6t1jXdw8Q-90">
          <mxGeometry width="50" height="50" relative="1" as="geometry">
            <mxPoint x="785" y="1445" as="sourcePoint" />
            <mxPoint x="835" y="1395" as="targetPoint" />
          </mxGeometry>
        </mxCell>
        <mxCell id="m78y9Psc8lJ6t1jXdw8Q-93" value="&lt;div&gt;&lt;br&gt;&lt;/div&gt;&lt;div&gt;&lt;br&gt;&lt;/div&gt;&lt;div&gt;&lt;br&gt;&lt;/div&gt;&lt;div&gt;brake stop&lt;/div&gt;" style="html=1;shape=mxgraph.electrical.electro-mechanical.singleSwitch;aspect=fixed;elSwitchState=off;" vertex="1" parent="1">
          <mxGeometry x="510" y="1344" width="75" height="20" as="geometry" />
        </mxCell>
        <mxCell id="m78y9Psc8lJ6t1jXdw8Q-94" value="" style="endArrow=none;html=1;rounded=0;exitX=1;exitY=0.8;exitDx=0;exitDy=0;entryX=0;entryY=0.5;entryDx=0;entryDy=0;entryPerimeter=0;" edge="1" parent="1" source="m78y9Psc8lJ6t1jXdw8Q-93" target="m78y9Psc8lJ6t1jXdw8Q-90">
          <mxGeometry width="50" height="50" relative="1" as="geometry">
            <mxPoint x="650" y="1364" as="sourcePoint" />
            <mxPoint x="700" y="1314" as="targetPoint" />
            <Array as="points">
              <mxPoint x="700" y="1360" />
            </Array>
          </mxGeometry>
        </mxCell>
        <mxCell id="m78y9Psc8lJ6t1jXdw8Q-95" value="" style="endArrow=none;html=1;rounded=0;exitX=0;exitY=0.8;exitDx=0;exitDy=0;" edge="1" parent="1" source="m78y9Psc8lJ6t1jXdw8Q-93">
          <mxGeometry width="50" height="50" relative="1" as="geometry">
            <mxPoint x="520" y="1190" as="sourcePoint" />
            <mxPoint x="600" y="1250" as="targetPoint" />
            <Array as="points">
              <mxPoint x="510" y="1250" />
            </Array>
          </mxGeometry>
        </mxCell>
        <mxCell id="m78y9Psc8lJ6t1jXdw8Q-101" value="" style="group" vertex="1" connectable="0" parent="1">
          <mxGeometry x="497.5" y="1570" width="160" height="90" as="geometry" />
        </mxCell>
        <mxCell id="m78y9Psc8lJ6t1jXdw8Q-102" value="" style="rounded=0;whiteSpace=wrap;html=1;" vertex="1" parent="m78y9Psc8lJ6t1jXdw8Q-101">
          <mxGeometry x="10" width="140" height="90" as="geometry" />
        </mxCell>
        <mxCell id="m78y9Psc8lJ6t1jXdw8Q-103" value="&lt;div&gt;&lt;br&gt;&lt;/div&gt;&lt;div&gt;&lt;br&gt;&lt;/div&gt;&lt;div&gt;&lt;br&gt;&lt;/div&gt;&lt;div&gt;&lt;br&gt;&lt;/div&gt;&lt;div&gt;flashlight relay&lt;/div&gt;" style="html=1;shape=mxgraph.electrical.electro-mechanical.singleSwitch;aspect=fixed;elSwitchState=off;strokeWidth=6;" vertex="1" parent="m78y9Psc8lJ6t1jXdw8Q-101">
          <mxGeometry x="5" y="30" width="150" height="40" as="geometry" />
        </mxCell>
        <mxCell id="m78y9Psc8lJ6t1jXdw8Q-104" value="" style="pointerEvents=1;verticalLabelPosition=bottom;shadow=0;dashed=0;align=center;html=1;verticalAlign=top;shape=mxgraph.electrical.inductors.inductor_3;rotation=-180;" vertex="1" parent="m78y9Psc8lJ6t1jXdw8Q-101">
          <mxGeometry y="17" width="160" height="8" as="geometry" />
        </mxCell>
        <mxCell id="m78y9Psc8lJ6t1jXdw8Q-105" value="&lt;div&gt;&lt;br&gt;&lt;/div&gt;&lt;div&gt;&lt;br&gt;&lt;/div&gt;&lt;div&gt;&lt;br&gt;&lt;/div&gt;&lt;div&gt;flashlight switch&lt;/div&gt;" style="html=1;shape=mxgraph.electrical.electro-mechanical.singleSwitch;aspect=fixed;elSwitchState=off;" vertex="1" parent="1">
          <mxGeometry x="692.5" y="1571" width="75" height="20" as="geometry" />
        </mxCell>
        <mxCell id="m78y9Psc8lJ6t1jXdw8Q-106" value="" style="endArrow=none;html=1;rounded=0;entryX=0;entryY=0.8;entryDx=0;entryDy=0;" edge="1" parent="1">
          <mxGeometry width="50" height="50" relative="1" as="geometry">
            <mxPoint x="657.5" y="1588" as="sourcePoint" />
            <mxPoint x="692.5" y="1585" as="targetPoint" />
          </mxGeometry>
        </mxCell>
        <mxCell id="m78y9Psc8lJ6t1jXdw8Q-107" value="20 A" style="html=1;shape=mxgraph.electrical.electro-mechanical.fuse2;aspect=fixed;elSwitchState=on;" vertex="1" parent="1">
          <mxGeometry x="390" y="1616" width="75" height="20" as="geometry" />
        </mxCell>
        <mxCell id="m78y9Psc8lJ6t1jXdw8Q-108" value="" style="endArrow=none;html=1;rounded=0;entryX=1;entryY=0.8;entryDx=0;entryDy=0;exitX=0;exitY=0.8;exitDx=0;exitDy=0;" edge="1" parent="1" source="m78y9Psc8lJ6t1jXdw8Q-103" target="m78y9Psc8lJ6t1jXdw8Q-107">
          <mxGeometry width="50" height="50" relative="1" as="geometry">
            <mxPoint x="547.5" y="1610" as="sourcePoint" />
            <mxPoint x="597.5" y="1560" as="targetPoint" />
          </mxGeometry>
        </mxCell>
        <mxCell id="m78y9Psc8lJ6t1jXdw8Q-109" value="" style="endArrow=none;html=1;rounded=0;" edge="1" parent="1" target="m78y9Psc8lJ6t1jXdw8Q-110">
          <mxGeometry width="50" height="50" relative="1" as="geometry">
            <mxPoint x="767.5" y="1587" as="sourcePoint" />
            <mxPoint x="817.5" y="1537" as="targetPoint" />
          </mxGeometry>
        </mxCell>
        <mxCell id="m78y9Psc8lJ6t1jXdw8Q-110" value="to key switch A" style="ellipse;whiteSpace=wrap;html=1;aspect=fixed;" vertex="1" parent="1">
          <mxGeometry x="807.5" y="1547" width="80" height="80" as="geometry" />
        </mxCell>
        <mxCell id="m78y9Psc8lJ6t1jXdw8Q-111" value="" style="endArrow=none;html=1;rounded=0;entryX=1;entryY=1;entryDx=0;entryDy=0;entryPerimeter=0;" edge="1" parent="1">
          <mxGeometry width="50" height="50" relative="1" as="geometry">
            <mxPoint x="425.5" y="1560" as="sourcePoint" />
            <mxPoint x="497.5" y="1587" as="targetPoint" />
            <Array as="points">
              <mxPoint x="425.5" y="1530" />
              <mxPoint x="477.5" y="1530" />
              <mxPoint x="477.5" y="1587" />
            </Array>
          </mxGeometry>
        </mxCell>
        <mxCell id="m78y9Psc8lJ6t1jXdw8Q-112" value="" style="pointerEvents=1;verticalLabelPosition=bottom;shadow=0;dashed=0;align=center;html=1;verticalAlign=top;shape=mxgraph.electrical.signal_sources.protective_earth;" vertex="1" parent="1">
          <mxGeometry x="407.5" y="1560" width="34" height="28" as="geometry" />
        </mxCell>
        <mxCell id="m78y9Psc8lJ6t1jXdw8Q-113" value="front flashlight" style="pointerEvents=1;verticalLabelPosition=bottom;shadow=0;dashed=0;align=center;html=1;verticalAlign=top;shape=mxgraph.electrical.miscellaneous.light_bulb;rotation=90;" vertex="1" parent="1">
          <mxGeometry x="692.5" y="1720" width="60" height="50" as="geometry" />
        </mxCell>
        <mxCell id="m78y9Psc8lJ6t1jXdw8Q-114" value="" style="endArrow=none;html=1;rounded=0;entryX=1;entryY=0.8;entryDx=0;entryDy=0;exitX=0;exitY=0.5;exitDx=0;exitDy=0;exitPerimeter=0;" edge="1" parent="1" source="m78y9Psc8lJ6t1jXdw8Q-113" target="m78y9Psc8lJ6t1jXdw8Q-103">
          <mxGeometry width="50" height="50" relative="1" as="geometry">
            <mxPoint x="597.5" y="1790" as="sourcePoint" />
            <mxPoint x="647.5" y="1740" as="targetPoint" />
            <Array as="points">
              <mxPoint x="722.5" y="1630" />
            </Array>
          </mxGeometry>
        </mxCell>
        <mxCell id="m78y9Psc8lJ6t1jXdw8Q-115" value="" style="pointerEvents=1;verticalLabelPosition=bottom;shadow=0;dashed=0;align=center;html=1;verticalAlign=top;shape=mxgraph.electrical.signal_sources.protective_earth;" vertex="1" parent="1">
          <mxGeometry x="705.5" y="1775" width="34" height="28" as="geometry" />
        </mxCell>
        <mxCell id="m78y9Psc8lJ6t1jXdw8Q-116" value="" style="endArrow=none;html=1;rounded=0;exitX=0.5;exitY=0;exitDx=0;exitDy=0;exitPerimeter=0;entryX=1;entryY=0.5;entryDx=0;entryDy=0;entryPerimeter=0;" edge="1" parent="1" source="m78y9Psc8lJ6t1jXdw8Q-115" target="m78y9Psc8lJ6t1jXdw8Q-113">
          <mxGeometry width="50" height="50" relative="1" as="geometry">
            <mxPoint x="807.5" y="1810" as="sourcePoint" />
            <mxPoint x="857.5" y="1760" as="targetPoint" />
          </mxGeometry>
        </mxCell>
        <mxCell id="m78y9Psc8lJ6t1jXdw8Q-117" value="rear flashlight" style="pointerEvents=1;verticalLabelPosition=bottom;shadow=0;dashed=0;align=center;html=1;verticalAlign=top;shape=mxgraph.electrical.miscellaneous.light_bulb;rotation=90;" vertex="1" parent="1">
          <mxGeometry x="818.5" y="1720" width="60" height="50" as="geometry" />
        </mxCell>
        <mxCell id="m78y9Psc8lJ6t1jXdw8Q-118" value="" style="pointerEvents=1;verticalLabelPosition=bottom;shadow=0;dashed=0;align=center;html=1;verticalAlign=top;shape=mxgraph.electrical.signal_sources.protective_earth;" vertex="1" parent="1">
          <mxGeometry x="831.5" y="1775" width="34" height="28" as="geometry" />
        </mxCell>
        <mxCell id="m78y9Psc8lJ6t1jXdw8Q-119" value="" style="endArrow=none;html=1;rounded=0;entryX=0;entryY=0.5;entryDx=0;entryDy=0;entryPerimeter=0;" edge="1" parent="1" target="m78y9Psc8lJ6t1jXdw8Q-117">
          <mxGeometry width="50" height="50" relative="1" as="geometry">
            <mxPoint x="723.5" y="1640" as="sourcePoint" />
            <mxPoint x="844.5" y="1715" as="targetPoint" />
            <Array as="points">
              <mxPoint x="847.5" y="1640" />
            </Array>
          </mxGeometry>
        </mxCell>
        <mxCell id="m78y9Psc8lJ6t1jXdw8Q-121" value="" style="endArrow=none;html=1;rounded=0;exitX=0;exitY=0.8;exitDx=0;exitDy=0;" edge="1" parent="1" source="m78y9Psc8lJ6t1jXdw8Q-107">
          <mxGeometry width="50" height="50" relative="1" as="geometry">
            <mxPoint x="310" y="1230" as="sourcePoint" />
            <mxPoint x="330" y="1130" as="targetPoint" />
            <Array as="points">
              <mxPoint x="330" y="1632" />
            </Array>
          </mxGeometry>
        </mxCell>
        <mxCell id="m78y9Psc8lJ6t1jXdw8Q-125" value="" style="group" vertex="1" connectable="0" parent="1">
          <mxGeometry x="457.5" y="1892" width="160" height="90" as="geometry" />
        </mxCell>
        <mxCell id="m78y9Psc8lJ6t1jXdw8Q-126" value="" style="rounded=0;whiteSpace=wrap;html=1;" vertex="1" parent="m78y9Psc8lJ6t1jXdw8Q-125">
          <mxGeometry x="10" width="140" height="90" as="geometry" />
        </mxCell>
        <mxCell id="m78y9Psc8lJ6t1jXdw8Q-127" value="&lt;div&gt;&lt;br&gt;&lt;/div&gt;&lt;div&gt;&lt;br&gt;&lt;/div&gt;&lt;div&gt;&lt;br&gt;&lt;/div&gt;&lt;div&gt;&lt;br&gt;&lt;/div&gt;&lt;div&gt;dashboard accesories&lt;/div&gt;" style="html=1;shape=mxgraph.electrical.electro-mechanical.singleSwitch;aspect=fixed;elSwitchState=off;strokeWidth=6;" vertex="1" parent="m78y9Psc8lJ6t1jXdw8Q-125">
          <mxGeometry x="5" y="30" width="150" height="40" as="geometry" />
        </mxCell>
        <mxCell id="m78y9Psc8lJ6t1jXdw8Q-128" value="" style="pointerEvents=1;verticalLabelPosition=bottom;shadow=0;dashed=0;align=center;html=1;verticalAlign=top;shape=mxgraph.electrical.inductors.inductor_3;rotation=-180;" vertex="1" parent="m78y9Psc8lJ6t1jXdw8Q-125">
          <mxGeometry y="17" width="160" height="8" as="geometry" />
        </mxCell>
        <mxCell id="m78y9Psc8lJ6t1jXdw8Q-130" value="" style="endArrow=none;html=1;rounded=0;" edge="1" parent="1">
          <mxGeometry width="50" height="50" relative="1" as="geometry">
            <mxPoint x="617.5" y="1910" as="sourcePoint" />
            <mxPoint x="740" y="1910" as="targetPoint" />
          </mxGeometry>
        </mxCell>
        <mxCell id="m78y9Psc8lJ6t1jXdw8Q-131" value="20 A" style="html=1;shape=mxgraph.electrical.electro-mechanical.fuse2;aspect=fixed;elSwitchState=on;" vertex="1" parent="1">
          <mxGeometry x="350" y="1938" width="75" height="20" as="geometry" />
        </mxCell>
        <mxCell id="m78y9Psc8lJ6t1jXdw8Q-132" value="" style="endArrow=none;html=1;rounded=0;entryX=1;entryY=0.8;entryDx=0;entryDy=0;exitX=0;exitY=0.8;exitDx=0;exitDy=0;" edge="1" parent="1" source="m78y9Psc8lJ6t1jXdw8Q-127" target="m78y9Psc8lJ6t1jXdw8Q-131">
          <mxGeometry width="50" height="50" relative="1" as="geometry">
            <mxPoint x="507.5" y="1932" as="sourcePoint" />
            <mxPoint x="557.5" y="1882" as="targetPoint" />
          </mxGeometry>
        </mxCell>
        <mxCell id="m78y9Psc8lJ6t1jXdw8Q-133" value="" style="endArrow=none;html=1;rounded=0;" edge="1" parent="1" target="m78y9Psc8lJ6t1jXdw8Q-134">
          <mxGeometry width="50" height="50" relative="1" as="geometry">
            <mxPoint x="727.5" y="1909" as="sourcePoint" />
            <mxPoint x="777.5" y="1859" as="targetPoint" />
          </mxGeometry>
        </mxCell>
        <mxCell id="m78y9Psc8lJ6t1jXdw8Q-134" value="to key switch A" style="ellipse;whiteSpace=wrap;html=1;aspect=fixed;" vertex="1" parent="1">
          <mxGeometry x="767.5" y="1869" width="80" height="80" as="geometry" />
        </mxCell>
        <mxCell id="m78y9Psc8lJ6t1jXdw8Q-135" value="" style="endArrow=none;html=1;rounded=0;entryX=1;entryY=1;entryDx=0;entryDy=0;entryPerimeter=0;" edge="1" parent="1">
          <mxGeometry width="50" height="50" relative="1" as="geometry">
            <mxPoint x="385.5" y="1882" as="sourcePoint" />
            <mxPoint x="457.5" y="1909" as="targetPoint" />
            <Array as="points">
              <mxPoint x="385.5" y="1852" />
              <mxPoint x="437.5" y="1852" />
              <mxPoint x="437.5" y="1909" />
            </Array>
          </mxGeometry>
        </mxCell>
        <mxCell id="m78y9Psc8lJ6t1jXdw8Q-136" value="" style="pointerEvents=1;verticalLabelPosition=bottom;shadow=0;dashed=0;align=center;html=1;verticalAlign=top;shape=mxgraph.electrical.signal_sources.protective_earth;" vertex="1" parent="1">
          <mxGeometry x="367.5" y="1882" width="34" height="28" as="geometry" />
        </mxCell>
        <mxCell id="m78y9Psc8lJ6t1jXdw8Q-138" value="" style="endArrow=none;html=1;rounded=0;entryX=1;entryY=0.8;entryDx=0;entryDy=0;" edge="1" parent="1" target="m78y9Psc8lJ6t1jXdw8Q-127">
          <mxGeometry width="50" height="50" relative="1" as="geometry">
            <mxPoint x="683" y="1990" as="sourcePoint" />
            <mxPoint x="607.5" y="2062" as="targetPoint" />
            <Array as="points">
              <mxPoint x="682.5" y="1952" />
            </Array>
          </mxGeometry>
        </mxCell>
        <mxCell id="m78y9Psc8lJ6t1jXdw8Q-140" value="" style="endArrow=none;html=1;rounded=0;exitX=0.5;exitY=0;exitDx=0;exitDy=0;exitPerimeter=0;entryX=1;entryY=0.5;entryDx=0;entryDy=0;entryPerimeter=0;" edge="1" parent="1">
          <mxGeometry width="50" height="50" relative="1" as="geometry">
            <mxPoint x="682.5" y="2097" as="sourcePoint" />
            <mxPoint x="682.5" y="2097" as="targetPoint" />
          </mxGeometry>
        </mxCell>
        <mxCell id="m78y9Psc8lJ6t1jXdw8Q-144" value="" style="endArrow=none;html=1;rounded=0;exitX=0;exitY=0.8;exitDx=0;exitDy=0;" edge="1" parent="1" source="m78y9Psc8lJ6t1jXdw8Q-131">
          <mxGeometry width="50" height="50" relative="1" as="geometry">
            <mxPoint x="280" y="1677" as="sourcePoint" />
            <mxPoint x="330" y="1627" as="targetPoint" />
            <Array as="points">
              <mxPoint x="330" y="1954" />
            </Array>
          </mxGeometry>
        </mxCell>
        <mxCell id="m78y9Psc8lJ6t1jXdw8Q-145" value="dashboard accesories" style="rounded=0;whiteSpace=wrap;html=1;" vertex="1" parent="1">
          <mxGeometry x="653" y="1982" width="120" height="60" as="geometry" />
        </mxCell>
        <mxCell id="m78y9Psc8lJ6t1jXdw8Q-146" value="" style="pointerEvents=1;verticalLabelPosition=bottom;shadow=0;dashed=0;align=center;html=1;verticalAlign=top;shape=mxgraph.electrical.signal_sources.protective_earth;" vertex="1" parent="1">
          <mxGeometry x="665" y="2070" width="34" height="28" as="geometry" />
        </mxCell>
        <mxCell id="m78y9Psc8lJ6t1jXdw8Q-147" value="" style="endArrow=none;html=1;rounded=0;entryX=0.25;entryY=1;entryDx=0;entryDy=0;" edge="1" parent="1" target="m78y9Psc8lJ6t1jXdw8Q-145">
          <mxGeometry width="50" height="50" relative="1" as="geometry">
            <mxPoint x="683" y="2080" as="sourcePoint" />
            <mxPoint x="815" y="2060" as="targetPoint" />
          </mxGeometry>
        </mxCell>
        <mxCell id="m78y9Psc8lJ6t1jXdw8Q-148" value="100 A" style="html=1;shape=mxgraph.electrical.electro-mechanical.fuse2;aspect=fixed;elSwitchState=on;rotation=-90;strokeWidth=1;" vertex="1" parent="1">
          <mxGeometry x="230" y="150" width="75" height="20" as="geometry" />
        </mxCell>
        <mxCell id="m78y9Psc8lJ6t1jXdw8Q-149" value="" style="endArrow=none;html=1;rounded=0;entryX=0;entryY=0.8;entryDx=0;entryDy=0;exitX=1;exitY=0.8;exitDx=0;exitDy=0;strokeWidth=6;" edge="1" parent="1" source="m78y9Psc8lJ6t1jXdw8Q-148" target="kWzljJYtxSuuumgWQ70q-14">
          <mxGeometry width="50" height="50" relative="1" as="geometry">
            <mxPoint x="440" y="320" as="sourcePoint" />
            <mxPoint x="490" y="270" as="targetPoint" />
            <Array as="points">
              <mxPoint x="274" y="102" />
            </Array>
          </mxGeometry>
        </mxCell>
        <mxCell id="m78y9Psc8lJ6t1jXdw8Q-150" value="" style="endArrow=none;html=1;rounded=0;entryX=0;entryY=0.8;entryDx=0;entryDy=0;exitX=1;exitY=0.84;exitDx=0;exitDy=0;" edge="1" parent="1" source="kWzljJYtxSuuumgWQ70q-3" target="kWzljJYtxSuuumgWQ70q-4">
          <mxGeometry width="50" height="50" relative="1" as="geometry">
            <mxPoint x="440" y="320" as="sourcePoint" />
            <mxPoint x="490" y="270" as="targetPoint" />
          </mxGeometry>
        </mxCell>
        <mxCell id="m78y9Psc8lJ6t1jXdw8Q-151" value="" style="endArrow=none;html=1;rounded=0;entryX=0.139;entryY=0.758;entryDx=0;entryDy=0;entryPerimeter=0;strokeWidth=6;" edge="1" parent="1" target="m78y9Psc8lJ6t1jXdw8Q-148">
          <mxGeometry width="50" height="50" relative="1" as="geometry">
            <mxPoint x="273" y="210" as="sourcePoint" />
            <mxPoint x="320" y="160" as="targetPoint" />
          </mxGeometry>
        </mxCell>
        <mxCell id="m78y9Psc8lJ6t1jXdw8Q-152" value="" style="pointerEvents=1;verticalLabelPosition=bottom;shadow=0;dashed=0;align=center;html=1;verticalAlign=top;shape=mxgraph.electrical.capacitors.capacitor_2;" vertex="1" parent="1">
          <mxGeometry x="100" y="80" width="100" height="60" as="geometry" />
        </mxCell>
        <mxCell id="m78y9Psc8lJ6t1jXdw8Q-153" value="" style="endArrow=none;html=1;rounded=0;entryX=0;entryY=0.5;entryDx=0;entryDy=0;entryPerimeter=0;strokeWidth=6;" edge="1" parent="1" target="m78y9Psc8lJ6t1jXdw8Q-152">
          <mxGeometry width="50" height="50" relative="1" as="geometry">
            <mxPoint x="60" y="110" as="sourcePoint" />
            <mxPoint x="490" y="270" as="targetPoint" />
          </mxGeometry>
        </mxCell>
        <mxCell id="m78y9Psc8lJ6t1jXdw8Q-154" value="" style="endArrow=none;html=1;rounded=0;exitX=1;exitY=0.5;exitDx=0;exitDy=0;exitPerimeter=0;strokeWidth=6;" edge="1" parent="1" source="m78y9Psc8lJ6t1jXdw8Q-152">
          <mxGeometry width="50" height="50" relative="1" as="geometry">
            <mxPoint x="440" y="320" as="sourcePoint" />
            <mxPoint x="270" y="110" as="targetPoint" />
          </mxGeometry>
        </mxCell>
      </root>
    </mxGraphModel>
  </diagram>
</mxfile>
